%FSLAX25Y25*%
%MOIN*%
G70*
G01*
G75*
G04 Layer_Color=32896*
%ADD10C,0.00591*%
%ADD11C,0.00591*%
%ADD12C,0.00492*%
%ADD13R,0.03347X0.05118*%
%ADD14R,0.04528X0.05709*%
%ADD15R,0.12598X0.16929*%
%ADD16R,0.03150X0.01575*%
%ADD17R,0.01575X0.03150*%
%ADD18R,0.05709X0.04528*%
%ADD19R,0.03543X0.02756*%
G04:AMPARAMS|DCode=20|XSize=23.62mil|YSize=23.62mil|CornerRadius=2.95mil|HoleSize=0mil|Usage=FLASHONLY|Rotation=90.000|XOffset=0mil|YOffset=0mil|HoleType=Round|Shape=RoundedRectangle|*
%AMROUNDEDRECTD20*
21,1,0.02362,0.01772,0,0,90.0*
21,1,0.01772,0.02362,0,0,90.0*
1,1,0.00591,0.00886,0.00886*
1,1,0.00591,0.00886,-0.00886*
1,1,0.00591,-0.00886,-0.00886*
1,1,0.00591,-0.00886,0.00886*
%
%ADD20ROUNDEDRECTD20*%
%ADD21R,0.02756X0.03543*%
G04:AMPARAMS|DCode=22|XSize=23.62mil|YSize=23.62mil|CornerRadius=2.95mil|HoleSize=0mil|Usage=FLASHONLY|Rotation=180.000|XOffset=0mil|YOffset=0mil|HoleType=Round|Shape=RoundedRectangle|*
%AMROUNDEDRECTD22*
21,1,0.02362,0.01772,0,0,180.0*
21,1,0.01772,0.02362,0,0,180.0*
1,1,0.00591,-0.00886,0.00886*
1,1,0.00591,0.00886,0.00886*
1,1,0.00591,0.00886,-0.00886*
1,1,0.00591,-0.00886,-0.00886*
%
%ADD22ROUNDEDRECTD22*%
%ADD23R,0.05118X0.03347*%
%ADD24R,0.11000X0.08500*%
%ADD25R,0.23622X0.19685*%
%ADD26O,0.06102X0.01378*%
%ADD27R,0.10787X0.12795*%
%ADD28O,0.04134X0.01181*%
%ADD29O,0.01181X0.04134*%
%ADD30R,0.08268X0.08268*%
%ADD31R,0.05906X0.09449*%
%ADD32C,0.03937*%
%ADD33R,0.05512X0.02992*%
%ADD34R,0.12520X0.05000*%
%ADD35R,0.02992X0.05512*%
%ADD36R,0.05000X0.12520*%
%ADD37O,0.00984X0.03150*%
%ADD38O,0.03150X0.00984*%
%ADD39R,0.21654X0.21654*%
%ADD40O,0.00984X0.05709*%
%ADD41R,0.29528X0.29528*%
%ADD42O,0.00984X0.03543*%
%ADD43O,0.03543X0.00984*%
%ADD44C,0.01772*%
%ADD45C,0.01575*%
%ADD46C,0.01969*%
%ADD47R,0.07087X0.08661*%
%ADD48R,0.08661X0.07087*%
%ADD49R,0.14961X0.11024*%
%ADD50R,0.03543X0.03740*%
%ADD51C,0.05906*%
%ADD52C,0.01181*%
%ADD53C,0.00984*%
%ADD54C,0.03937*%
%ADD55C,0.00787*%
%ADD56C,0.00551*%
%ADD57C,0.00394*%
%ADD58P,0.05966X8X22.5*%
%ADD59C,0.05512*%
%ADD60C,0.05906*%
%ADD61C,0.07874*%
%ADD62C,0.09843*%
%ADD63C,0.15748*%
%ADD64C,0.04724*%
%ADD65R,0.07874X0.07874*%
%ADD66R,0.07874X0.07874*%
G04:AMPARAMS|DCode=67|XSize=62.99mil|YSize=62.99mil|CornerRadius=15.75mil|HoleSize=0mil|Usage=FLASHONLY|Rotation=90.000|XOffset=0mil|YOffset=0mil|HoleType=Round|Shape=RoundedRectangle|*
%AMROUNDEDRECTD67*
21,1,0.06299,0.03150,0,0,90.0*
21,1,0.03150,0.06299,0,0,90.0*
1,1,0.03150,0.01575,0.01575*
1,1,0.03150,0.01575,-0.01575*
1,1,0.03150,-0.01575,-0.01575*
1,1,0.03150,-0.01575,0.01575*
%
%ADD67ROUNDEDRECTD67*%
%ADD68C,0.06299*%
%ADD69C,0.02559*%
%ADD70C,0.02953*%
%ADD71C,0.02362*%
%ADD72C,0.02756*%
%ADD73C,0.01575*%
%ADD74C,0.01969*%
%ADD75C,0.08661*%
%ADD76C,0.06693*%
%ADD77C,0.03937*%
%ADD78C,0.03740*%
%ADD79C,0.03543*%
%ADD80C,0.03150*%
%ADD81C,0.04331*%
%ADD82C,0.03347*%
%ADD83C,0.00512*%
%ADD84C,0.00494*%
%ADD85C,0.02756*%
%ADD86C,0.02362*%
%ADD87C,0.09449*%
%ADD88C,0.10630*%
%ADD89R,0.03347X0.01102*%
%ADD90R,0.06496X0.09449*%
%ADD91O,0.08661X0.02362*%
%ADD92O,0.03347X0.01102*%
%ADD93O,0.01102X0.03347*%
%ADD94R,0.08071X0.08071*%
%ADD95O,0.02756X0.09843*%
%ADD96C,0.07874*%
%ADD97C,0.01000*%
%ADD98C,0.00984*%
%ADD99R,0.03740X0.05512*%
%ADD100R,0.04921X0.06102*%
%ADD101R,0.12992X0.17323*%
%ADD102R,0.03543X0.01969*%
%ADD103R,0.01969X0.03543*%
%ADD104R,0.06102X0.04921*%
%ADD105R,0.03937X0.03150*%
G04:AMPARAMS|DCode=106|XSize=27.56mil|YSize=27.56mil|CornerRadius=4.92mil|HoleSize=0mil|Usage=FLASHONLY|Rotation=90.000|XOffset=0mil|YOffset=0mil|HoleType=Round|Shape=RoundedRectangle|*
%AMROUNDEDRECTD106*
21,1,0.02756,0.01772,0,0,90.0*
21,1,0.01772,0.02756,0,0,90.0*
1,1,0.00984,0.00886,0.00886*
1,1,0.00984,0.00886,-0.00886*
1,1,0.00984,-0.00886,-0.00886*
1,1,0.00984,-0.00886,0.00886*
%
%ADD106ROUNDEDRECTD106*%
%ADD107R,0.03150X0.03937*%
G04:AMPARAMS|DCode=108|XSize=27.56mil|YSize=27.56mil|CornerRadius=4.92mil|HoleSize=0mil|Usage=FLASHONLY|Rotation=180.000|XOffset=0mil|YOffset=0mil|HoleType=Round|Shape=RoundedRectangle|*
%AMROUNDEDRECTD108*
21,1,0.02756,0.01772,0,0,180.0*
21,1,0.01772,0.02756,0,0,180.0*
1,1,0.00984,-0.00886,0.00886*
1,1,0.00984,0.00886,0.00886*
1,1,0.00984,0.00886,-0.00886*
1,1,0.00984,-0.00886,-0.00886*
%
%ADD108ROUNDEDRECTD108*%
%ADD109R,0.05512X0.03740*%
%ADD110R,0.11394X0.08894*%
%ADD111R,0.24016X0.20079*%
%ADD112O,0.06496X0.01772*%
%ADD113R,0.11181X0.13189*%
%ADD114O,0.04528X0.01575*%
%ADD115O,0.01575X0.04528*%
%ADD116R,0.08661X0.08661*%
%ADD117R,0.06299X0.09843*%
%ADD118C,0.07874*%
%ADD119R,0.05906X0.03386*%
%ADD120R,0.12913X0.05394*%
%ADD121R,0.03386X0.05906*%
%ADD122R,0.05394X0.12913*%
%ADD123O,0.01378X0.03543*%
%ADD124O,0.03543X0.01378*%
%ADD125R,0.22047X0.22047*%
%ADD126O,0.01378X0.06102*%
%ADD127R,0.29921X0.29921*%
%ADD128O,0.01378X0.03937*%
%ADD129O,0.03937X0.01378*%
%ADD130C,0.02165*%
%ADD131R,0.07480X0.09055*%
%ADD132R,0.09055X0.07480*%
%ADD133R,0.15354X0.11417*%
%ADD134R,0.03937X0.04134*%
%ADD135P,0.06392X8X22.5*%
%ADD136C,0.08268*%
%ADD137C,0.10236*%
%ADD138C,0.16142*%
%ADD139C,0.05118*%
%ADD140C,0.15748*%
%ADD141R,0.08268X0.08268*%
G04:AMPARAMS|DCode=142|XSize=66.93mil|YSize=66.93mil|CornerRadius=17.72mil|HoleSize=0mil|Usage=FLASHONLY|Rotation=90.000|XOffset=0mil|YOffset=0mil|HoleType=Round|Shape=RoundedRectangle|*
%AMROUNDEDRECTD142*
21,1,0.06693,0.03150,0,0,90.0*
21,1,0.03150,0.06693,0,0,90.0*
1,1,0.03543,0.01575,0.01575*
1,1,0.03543,0.01575,-0.01575*
1,1,0.03543,-0.01575,-0.01575*
1,1,0.03543,-0.01575,0.01575*
%
%ADD142ROUNDEDRECTD142*%
%ADD143C,0.01772*%
%ADD144C,0.02165*%
%ADD145C,0.01181*%
%ADD146R,0.03740X0.01496*%
%ADD147R,0.06890X0.09843*%
%ADD148O,0.09055X0.02756*%
%ADD149O,0.03898X0.01654*%
%ADD150O,0.01654X0.03898*%
%ADD151R,0.08622X0.08622*%
%ADD152O,0.03150X0.10236*%
D53*
X593602Y395689D02*
G03*
X593602Y395689I-492J0D01*
G01*
X424311Y417126D02*
G03*
X424311Y417126I-492J0D01*
G01*
X569173Y207480D02*
G03*
X569173Y207480I-492J0D01*
G01*
D55*
X371850Y143504D02*
X372244D01*
X371850Y147835D02*
X372244D01*
X494095Y462598D02*
X512795D01*
X520669Y454724D01*
X339567Y226929D02*
Y226968D01*
Y214764D02*
Y214803D01*
X327362Y226929D02*
Y226968D01*
Y214764D02*
Y214803D01*
X337992Y226968D02*
X339567D01*
X327362D02*
X328937D01*
X337992Y214764D02*
X339567D01*
X327362D02*
X328937D01*
X363189Y267717D02*
Y286417D01*
Y267717D02*
X365158Y265748D01*
X375787Y279724D02*
X376181D01*
X375787Y275394D02*
X376181D01*
X362992Y259646D02*
Y260039D01*
X367323Y259646D02*
Y260039D01*
X355807Y234055D02*
Y234449D01*
X360728Y234055D02*
Y234449D01*
X346949Y214370D02*
Y214764D01*
X351870Y214370D02*
Y214764D01*
X355807Y214370D02*
Y214764D01*
X360728Y214370D02*
Y214764D01*
X364665Y214370D02*
Y214764D01*
X369586Y214370D02*
Y214764D01*
X321358Y206496D02*
Y206890D01*
X326279Y206496D02*
Y206890D01*
X387205Y223031D02*
X387598D01*
X387205Y227362D02*
X387598D01*
X377756Y301969D02*
Y302362D01*
X382087Y301969D02*
Y302362D01*
X368898Y313779D02*
Y314173D01*
X373229Y313779D02*
Y314173D01*
X431595Y314764D02*
Y315157D01*
X436516Y314764D02*
Y315157D01*
X436516Y330512D02*
Y330905D01*
X431595Y330512D02*
Y330905D01*
X495079Y281693D02*
X495473D01*
X495079Y277362D02*
X495473D01*
X496850Y298031D02*
Y298425D01*
X501181Y298031D02*
Y298425D01*
X522834Y242913D02*
Y243307D01*
X518504Y242913D02*
Y243307D01*
X510335Y232086D02*
Y232480D01*
X515256Y232086D02*
Y232480D01*
X565665Y406283D02*
X566059D01*
X565665Y403528D02*
X566059D01*
X567913Y464567D02*
X573819Y470472D01*
X576772D01*
X522244Y454528D02*
Y454921D01*
X525000Y454528D02*
Y454921D01*
X527165Y454528D02*
Y454921D01*
X529921Y454528D02*
Y454921D01*
X532087Y454528D02*
Y454921D01*
X534843Y454528D02*
Y454921D01*
X537008Y454528D02*
Y454921D01*
X539764Y454528D02*
Y454921D01*
X549409Y454528D02*
Y454921D01*
X545079Y454528D02*
Y454921D01*
X557283Y454528D02*
Y454921D01*
X552953Y454528D02*
Y454921D01*
X568405Y454528D02*
Y454921D01*
X563484Y454528D02*
Y454921D01*
X576280Y454528D02*
Y454921D01*
X571358Y454528D02*
Y454921D01*
X584154Y454528D02*
Y454921D01*
X579232Y454528D02*
Y454921D01*
X592028Y454528D02*
Y454921D01*
X587106Y454528D02*
Y454921D01*
X599901Y454527D02*
Y454921D01*
X594980Y454527D02*
Y454921D01*
X607776Y454528D02*
Y454921D01*
X602854Y454528D02*
Y454921D01*
X583465Y416929D02*
X583858D01*
X583465Y419685D02*
X583858D01*
X583465Y411024D02*
X583858D01*
X583465Y413779D02*
X583858D01*
X583465Y405118D02*
X583858D01*
X583465Y407874D02*
X583858D01*
X580118Y374803D02*
X587205D01*
X580118Y394882D02*
X587205D01*
X580118Y374803D02*
Y394882D01*
X587205Y374803D02*
Y394882D01*
X625787Y388287D02*
X626181D01*
X625787Y383366D02*
X626181D01*
X557874Y470965D02*
X558268D01*
X557874Y475886D02*
X558268D01*
X532284Y475886D02*
X532677D01*
X532284Y470965D02*
X532677D01*
X505413Y476181D02*
Y476575D01*
X510335Y476181D02*
Y476575D01*
X441043Y416536D02*
X443701D01*
Y419193D01*
X441043Y433858D02*
X443701D01*
Y431201D02*
Y433858D01*
X426378D02*
X429035D01*
X426378Y431201D02*
Y433858D01*
Y416536D02*
X429035D01*
X426378D02*
Y419193D01*
X440748Y440748D02*
X441142D01*
X440748Y445079D02*
X441142D01*
X428937Y440748D02*
X429331D01*
X428937Y445079D02*
X429331D01*
X457185Y439764D02*
Y440158D01*
X452264Y439764D02*
Y440158D01*
X419685Y433858D02*
Y434252D01*
X416929Y433858D02*
Y434252D01*
X413189Y410925D02*
X413583D01*
X413189Y415846D02*
X413583D01*
X253445Y476181D02*
Y476575D01*
X258366Y476181D02*
Y476575D01*
X153346Y450295D02*
X153740D01*
X153346Y455217D02*
X153740D01*
X327559Y406988D02*
X327953D01*
X327559Y402067D02*
X327953D01*
X208465Y272146D02*
X208858D01*
X208465Y267225D02*
X208858D01*
X237008Y172736D02*
X237402D01*
X237008Y167815D02*
X237402D01*
X238681Y158268D02*
Y158661D01*
X243602Y158268D02*
Y158661D01*
X223917Y153347D02*
Y153740D01*
X218996Y153347D02*
Y153740D01*
X232776Y145473D02*
Y145866D01*
X227854Y145473D02*
Y145866D01*
X210138Y184843D02*
Y185236D01*
X205217Y184843D02*
Y185236D01*
X218012Y184843D02*
Y185236D01*
X213090Y184843D02*
Y185236D01*
X252756Y176378D02*
X253150D01*
X252756Y172047D02*
X253150D01*
X251476Y184843D02*
Y185236D01*
X246555Y184843D02*
Y185236D01*
X259350Y184843D02*
Y185236D01*
X254429Y184843D02*
Y185236D01*
X153346Y174705D02*
X153740D01*
X153346Y179626D02*
X153740D01*
X536220Y183465D02*
X536614D01*
X536220Y180709D02*
X536614D01*
X530315Y176575D02*
X530709D01*
X530315Y173819D02*
X530709D01*
X530315Y170669D02*
X530709D01*
X530315Y167913D02*
X530709D01*
X536221Y161024D02*
X536614D01*
X536221Y163779D02*
X536614D01*
X535925Y147441D02*
Y147835D01*
X531004Y147441D02*
Y147835D01*
X568110Y180905D02*
Y181299D01*
X563780Y180905D02*
Y181299D01*
X536220Y204134D02*
X536614D01*
X536220Y201378D02*
X536614D01*
X551968Y209252D02*
X552362D01*
X551968Y212008D02*
X552362D01*
X579528Y178347D02*
X579921D01*
X579528Y174016D02*
X579921D01*
X591339Y180905D02*
Y181299D01*
X595669Y180905D02*
Y181299D01*
X258366Y121850D02*
Y122244D01*
X253445Y121850D02*
Y122244D01*
X310827Y167126D02*
X311220D01*
X310827Y171457D02*
X311220D01*
X310827Y163583D02*
X311221D01*
X310827Y159252D02*
X311221D01*
X317716Y155020D02*
X318110D01*
X317716Y150098D02*
X318110D01*
X331496Y163878D02*
X331890D01*
X331496Y158957D02*
X331890D01*
X331496Y154725D02*
X331890D01*
X331496Y150394D02*
X331890D01*
X352165Y173721D02*
X352559D01*
X352165Y178642D02*
X352559D01*
X360137Y158622D02*
Y161319D01*
X344586Y158622D02*
Y161319D01*
Y145767D02*
Y148464D01*
Y145767D02*
X346299D01*
X344586Y161319D02*
X346299D01*
X358425D02*
X360137D01*
X358425Y145767D02*
X360137D01*
Y148464D01*
X436811Y168110D02*
X437205D01*
X436811Y172441D02*
X437205D01*
X436811Y163583D02*
X437205D01*
X436811Y159252D02*
X437205D01*
X443701Y155019D02*
X444095D01*
X443701Y150098D02*
X444095D01*
X457481Y154725D02*
X457875D01*
X457481Y150394D02*
X457875D01*
X457481Y163878D02*
X457874D01*
X457481Y158957D02*
X457874D01*
X497834Y143504D02*
X498228D01*
X497834Y147835D02*
X498228D01*
X478150Y173720D02*
X478543D01*
X478150Y178642D02*
X478543D01*
X486122Y158622D02*
Y161319D01*
X470571Y158622D02*
Y161319D01*
Y145768D02*
Y148465D01*
Y145768D02*
X472284D01*
X470571Y161319D02*
X472284D01*
X484410D02*
X486122D01*
X484410Y145768D02*
X486122D01*
Y148465D01*
X541831Y121850D02*
Y122244D01*
X536909Y121850D02*
Y122244D01*
X625787Y148130D02*
X626181D01*
X625787Y143209D02*
X626181D01*
X211417Y176378D02*
X211811D01*
X211417Y172047D02*
X211811D01*
X564764Y356890D02*
X565158D01*
X564764Y359646D02*
X565158D01*
X564764Y368701D02*
X565158D01*
X564764Y371457D02*
X565158D01*
X564764Y362795D02*
X565158D01*
X564764Y365551D02*
X565158D01*
X589764Y194685D02*
Y200984D01*
X569685Y194685D02*
Y200984D01*
Y194685D02*
X589764D01*
X569685Y200984D02*
X589764D01*
X413189Y401083D02*
X413583D01*
X413189Y396161D02*
X413583D01*
X599803Y304921D02*
Y305315D01*
X597047Y304921D02*
Y305315D01*
X597047Y314764D02*
Y315157D01*
X599803Y314764D02*
Y315157D01*
X379921Y150591D02*
Y155313D01*
X377560D01*
X376773Y154526D01*
Y152952D01*
X377560Y152165D01*
X379921D01*
X378347D02*
X376773Y150591D01*
X372050Y155313D02*
X375198D01*
Y152952D01*
X373624Y153739D01*
X372837D01*
X372050Y152952D01*
Y151378D01*
X372837Y150591D01*
X374411D01*
X375198Y151378D01*
X370476Y154526D02*
X369688Y155313D01*
X368114D01*
X367327Y154526D01*
Y153739D01*
X368114Y152952D01*
X368901D01*
X368114D01*
X367327Y152165D01*
Y151378D01*
X368114Y150591D01*
X369688D01*
X370476Y151378D01*
X339567Y212400D02*
Y207677D01*
X337206D01*
X336418Y208464D01*
Y211613D01*
X337206Y212400D01*
X339567D01*
X334844Y211613D02*
X334057Y212400D01*
X332483D01*
X331696Y211613D01*
Y210826D01*
X332483Y210039D01*
X333270D01*
X332483D01*
X331696Y209251D01*
Y208464D01*
X332483Y207677D01*
X334057D01*
X334844Y208464D01*
X161417Y446652D02*
Y441929D01*
X158269D01*
X153546D02*
X156694D01*
X153546Y445078D01*
Y445865D01*
X154333Y446652D01*
X155907D01*
X156694Y445865D01*
X149610Y441929D02*
Y446652D01*
X151972Y444291D01*
X148823D01*
X162402Y170077D02*
Y165354D01*
X159253D01*
X154530D02*
X157679D01*
X154530Y168503D01*
Y169290D01*
X155317Y170077D01*
X156892D01*
X157679Y169290D01*
X152956D02*
X152169Y170077D01*
X150594D01*
X149807Y169290D01*
Y168503D01*
X150594Y167716D01*
X151382D01*
X150594D01*
X149807Y166929D01*
Y166141D01*
X150594Y165354D01*
X152169D01*
X152956Y166141D01*
X262795Y134644D02*
Y129921D01*
X259647D01*
X254924D02*
X258072D01*
X254924Y133070D01*
Y133857D01*
X255711Y134644D01*
X257285D01*
X258072Y133857D01*
X250201Y129921D02*
X253349D01*
X250201Y133070D01*
Y133857D01*
X250988Y134644D01*
X252562D01*
X253349Y133857D01*
X544291Y134644D02*
Y129921D01*
X541143D01*
X536420D02*
X539569D01*
X536420Y133070D01*
Y133857D01*
X537207Y134644D01*
X538781D01*
X539569Y133857D01*
X534846Y129921D02*
X533271D01*
X534058D01*
Y134644D01*
X534846Y133857D01*
X631890Y155313D02*
Y150591D01*
X628741D01*
X624018D02*
X627167D01*
X624018Y153739D01*
Y154526D01*
X624805Y155313D01*
X626380D01*
X627167Y154526D01*
X622444D02*
X621657Y155313D01*
X620083D01*
X619295Y154526D01*
Y151378D01*
X620083Y150591D01*
X621657D01*
X622444Y151378D01*
Y154526D01*
X618110Y387597D02*
Y382874D01*
X614962D01*
X613387D02*
X611813D01*
X612600D01*
Y387597D01*
X613387Y386810D01*
X609452Y383661D02*
X608665Y382874D01*
X607090D01*
X606303Y383661D01*
Y386810D01*
X607090Y387597D01*
X608665D01*
X609452Y386810D01*
Y386023D01*
X608665Y385236D01*
X606303D01*
X501968Y480117D02*
Y475394D01*
X498820D01*
X497246D02*
X495671D01*
X496458D01*
Y480117D01*
X497246Y479329D01*
X493310D02*
X492523Y480117D01*
X490948D01*
X490161Y479329D01*
Y478542D01*
X490948Y477755D01*
X490161Y476968D01*
Y476181D01*
X490948Y475394D01*
X492523D01*
X493310Y476181D01*
Y476968D01*
X492523Y477755D01*
X493310Y478542D01*
Y479329D01*
X492523Y477755D02*
X490948D01*
X261811Y468306D02*
Y463583D01*
X258662D01*
X257088D02*
X255514D01*
X256301D01*
Y468306D01*
X257088Y467518D01*
X253152Y468306D02*
X250004D01*
Y467518D01*
X253152Y464370D01*
Y463583D01*
X306102Y279528D02*
Y284250D01*
X303741D01*
X302954Y283463D01*
Y281889D01*
X303741Y281102D01*
X306102D01*
X304528D02*
X302954Y279528D01*
X298231D02*
X301379D01*
X298231Y282676D01*
Y283463D01*
X299018Y284250D01*
X300592D01*
X301379Y283463D01*
X306102Y244094D02*
Y248817D01*
X303741D01*
X302954Y248030D01*
Y246456D01*
X303741Y245669D01*
X306102D01*
X304528D02*
X302954Y244094D01*
X298231Y248817D02*
X301379D01*
Y246456D01*
X299805Y247243D01*
X299018D01*
X298231Y246456D01*
Y244882D01*
X299018Y244094D01*
X300592D01*
X301379Y244882D01*
X358268Y278543D02*
Y283266D01*
X355906D01*
X355119Y282479D01*
Y280905D01*
X355906Y280118D01*
X358268D01*
X356693D02*
X355119Y278543D01*
X353545Y283266D02*
X350396D01*
Y282479D01*
X353545Y279330D01*
Y278543D01*
X340551Y246063D02*
Y250786D01*
X338190D01*
X337403Y249999D01*
Y248424D01*
X338190Y247637D01*
X340551D01*
X338977D02*
X337403Y246063D01*
X335828Y249999D02*
X335041Y250786D01*
X333467D01*
X332680Y249999D01*
Y249212D01*
X333467Y248424D01*
X332680Y247637D01*
Y246850D01*
X333467Y246063D01*
X335041D01*
X335828Y246850D01*
Y247637D01*
X335041Y248424D01*
X335828Y249212D01*
Y249999D01*
X335041Y248424D02*
X333467D01*
X328740Y246063D02*
Y250786D01*
X326379D01*
X325592Y249999D01*
Y248424D01*
X326379Y247637D01*
X328740D01*
X327166D02*
X325592Y246063D01*
X324017D02*
X322443D01*
X323230D01*
Y250786D01*
X324017Y249999D01*
X320081D02*
X319294Y250786D01*
X317720D01*
X316933Y249999D01*
Y246850D01*
X317720Y246063D01*
X319294D01*
X320081Y246850D01*
Y249999D01*
X348425Y255906D02*
Y260628D01*
X346064D01*
X345277Y259841D01*
Y258267D01*
X346064Y257480D01*
X348425D01*
X346851D02*
X345277Y255906D01*
X343702D02*
X342128D01*
X342915D01*
Y260628D01*
X343702Y259841D01*
X336618Y255906D02*
X339767D01*
X336618Y259054D01*
Y259841D01*
X337405Y260628D01*
X338979D01*
X339767Y259841D01*
X554134Y244094D02*
Y248817D01*
X551772D01*
X550985Y248030D01*
Y246456D01*
X551772Y245669D01*
X554134D01*
X552560D02*
X550985Y244094D01*
X549411D02*
X547837D01*
X548624D01*
Y248817D01*
X549411Y248030D01*
X545475Y244094D02*
X543901D01*
X544688D01*
Y248817D01*
X545475Y248030D01*
X537402Y244094D02*
Y248817D01*
X535040D01*
X534253Y248030D01*
Y246456D01*
X535040Y245669D01*
X537402D01*
X535827D02*
X534253Y244094D01*
X532679Y244882D02*
X531891Y244094D01*
X530317D01*
X529530Y244882D01*
Y248030D01*
X530317Y248817D01*
X531891D01*
X532679Y248030D01*
Y247243D01*
X531891Y246456D01*
X529530D01*
X602362Y312008D02*
X607085D01*
Y314369D01*
X606298Y315157D01*
X604724D01*
X603936Y314369D01*
Y312008D01*
Y313582D02*
X602362Y315157D01*
X603149Y316731D02*
X602362Y317518D01*
Y319092D01*
X603149Y319879D01*
X606298D01*
X607085Y319092D01*
Y317518D01*
X606298Y316731D01*
X605511D01*
X604724Y317518D01*
Y319879D01*
X602362Y324602D02*
Y321454D01*
X605511Y324602D01*
X606298D01*
X607085Y323815D01*
Y322241D01*
X606298Y321454D01*
X602362Y297244D02*
X607085D01*
Y299605D01*
X606298Y300393D01*
X604724D01*
X603936Y299605D01*
Y297244D01*
Y298818D02*
X602362Y300393D01*
X603149Y301967D02*
X602362Y302754D01*
Y304328D01*
X603149Y305116D01*
X606298D01*
X607085Y304328D01*
Y302754D01*
X606298Y301967D01*
X605511D01*
X604724Y302754D01*
Y305116D01*
X602362Y306690D02*
Y308264D01*
Y307477D01*
X607085D01*
X606298Y306690D01*
X414370Y432087D02*
Y436809D01*
X412009D01*
X411222Y436022D01*
Y434448D01*
X412009Y433661D01*
X414370D01*
X412796D02*
X411222Y432087D01*
X409647Y436022D02*
X408860Y436809D01*
X407286D01*
X406499Y436022D01*
Y435235D01*
X407286Y434448D01*
X406499Y433661D01*
Y432874D01*
X407286Y432087D01*
X408860D01*
X409647Y432874D01*
Y433661D01*
X408860Y434448D01*
X409647Y435235D01*
Y436022D01*
X408860Y434448D02*
X407286D01*
X402563Y432087D02*
Y436809D01*
X404924Y434448D01*
X401776D01*
X429134Y447835D02*
Y452558D01*
X426772D01*
X425985Y451770D01*
Y450196D01*
X426772Y449409D01*
X429134D01*
X427560D02*
X425985Y447835D01*
X424411Y451770D02*
X423624Y452558D01*
X422050D01*
X421262Y451770D01*
Y450983D01*
X422050Y450196D01*
X421262Y449409D01*
Y448622D01*
X422050Y447835D01*
X423624D01*
X424411Y448622D01*
Y449409D01*
X423624Y450196D01*
X424411Y450983D01*
Y451770D01*
X423624Y450196D02*
X422050D01*
X419688Y451770D02*
X418901Y452558D01*
X417327D01*
X416539Y451770D01*
Y450983D01*
X417327Y450196D01*
X418114D01*
X417327D01*
X416539Y449409D01*
Y448622D01*
X417327Y447835D01*
X418901D01*
X419688Y448622D01*
X448234Y449016D02*
Y453739D01*
X445872D01*
X445085Y452951D01*
Y451377D01*
X445872Y450590D01*
X448234D01*
X446659D02*
X445085Y449016D01*
X443511Y452951D02*
X442724Y453739D01*
X441149D01*
X440362Y452951D01*
Y452164D01*
X441149Y451377D01*
X440362Y450590D01*
Y449803D01*
X441149Y449016D01*
X442724D01*
X443511Y449803D01*
Y450590D01*
X442724Y451377D01*
X443511Y452164D01*
Y452951D01*
X442724Y451377D02*
X441149D01*
X435639Y449016D02*
X438788D01*
X435639Y452164D01*
Y452951D01*
X436426Y453739D01*
X438001D01*
X438788Y452951D01*
X457677Y456693D02*
X462400D01*
Y459054D01*
X461613Y459841D01*
X460039D01*
X459251Y459054D01*
Y456693D01*
Y458267D02*
X457677Y459841D01*
X462400Y461416D02*
Y464564D01*
X461613D01*
X458464Y461416D01*
X457677D01*
X458464Y466139D02*
X457677Y466926D01*
Y468500D01*
X458464Y469287D01*
X461613D01*
X462400Y468500D01*
Y466926D01*
X461613Y466139D01*
X460826D01*
X460039Y466926D01*
Y469287D01*
X464567Y456693D02*
X469290D01*
Y459054D01*
X468503Y459841D01*
X466928D01*
X466141Y459054D01*
Y456693D01*
Y458267D02*
X464567Y459841D01*
X469290Y461416D02*
Y464564D01*
X468503D01*
X465354Y461416D01*
X464567D01*
X468503Y466139D02*
X469290Y466926D01*
Y468500D01*
X468503Y469287D01*
X467716D01*
X466928Y468500D01*
X466141Y469287D01*
X465354D01*
X464567Y468500D01*
Y466926D01*
X465354Y466139D01*
X466141D01*
X466928Y466926D01*
X467716Y466139D01*
X468503D01*
X466928Y466926D02*
Y468500D01*
X471457Y456693D02*
X476180D01*
Y459054D01*
X475392Y459841D01*
X473818D01*
X473031Y459054D01*
Y456693D01*
Y458267D02*
X471457Y459841D01*
X476180Y461416D02*
Y464564D01*
X475392D01*
X472244Y461416D01*
X471457D01*
X476180Y466139D02*
Y469287D01*
X475392D01*
X472244Y466139D01*
X471457D01*
X497047Y439961D02*
X501770D01*
Y442322D01*
X500983Y443109D01*
X499409D01*
X498622Y442322D01*
Y439961D01*
Y441535D02*
X497047Y443109D01*
X501770Y444684D02*
Y447832D01*
X500983D01*
X497834Y444684D01*
X497047D01*
Y452555D02*
Y449406D01*
X500196Y452555D01*
X500983D01*
X501770Y451768D01*
Y450194D01*
X500983Y449406D01*
X497047Y393701D02*
X501770D01*
Y396062D01*
X500983Y396849D01*
X499409D01*
X498622Y396062D01*
Y393701D01*
Y395275D02*
X497047Y396849D01*
X501770Y398424D02*
Y401572D01*
X500983D01*
X497834Y398424D01*
X497047D01*
Y403147D02*
Y404721D01*
Y403934D01*
X501770D01*
X500983Y403147D01*
X487205Y456693D02*
X491928D01*
Y459054D01*
X491141Y459841D01*
X489566D01*
X488779Y459054D01*
Y456693D01*
Y458267D02*
X487205Y459841D01*
X491928Y464564D02*
X491141Y462990D01*
X489566Y461416D01*
X487992D01*
X487205Y462203D01*
Y463777D01*
X487992Y464564D01*
X488779D01*
X489566Y463777D01*
Y461416D01*
X491141Y466139D02*
X491928Y466926D01*
Y468500D01*
X491141Y469287D01*
X490353D01*
X489566Y468500D01*
X488779Y469287D01*
X487992D01*
X487205Y468500D01*
Y466926D01*
X487992Y466139D01*
X488779D01*
X489566Y466926D01*
X490353Y466139D01*
X491141D01*
X489566Y466926D02*
Y468500D01*
X480315Y454724D02*
X485038D01*
Y457086D01*
X484251Y457873D01*
X482676D01*
X481889Y457086D01*
Y454724D01*
Y456299D02*
X480315Y457873D01*
Y459447D02*
Y461022D01*
Y460234D01*
X485038D01*
X484251Y459447D01*
Y463383D02*
X485038Y464170D01*
Y465744D01*
X484251Y466532D01*
X481102D01*
X480315Y465744D01*
Y464170D01*
X481102Y463383D01*
X484251D01*
X481102Y468106D02*
X480315Y468893D01*
Y470467D01*
X481102Y471254D01*
X484251D01*
X485038Y470467D01*
Y468893D01*
X484251Y468106D01*
X483464D01*
X482676Y468893D01*
Y471254D01*
X537402Y376969D02*
Y381691D01*
X535040D01*
X534253Y380904D01*
Y379330D01*
X535040Y378543D01*
X537402D01*
X535827D02*
X534253Y376969D01*
X529530Y381691D02*
X531104Y380904D01*
X532679Y379330D01*
Y377756D01*
X531891Y376969D01*
X530317D01*
X529530Y377756D01*
Y378543D01*
X530317Y379330D01*
X532679D01*
X524807Y381691D02*
X527956D01*
Y379330D01*
X526381Y380117D01*
X525594D01*
X524807Y379330D01*
Y377756D01*
X525594Y376969D01*
X527169D01*
X527956Y377756D01*
X497047Y408465D02*
X501770D01*
Y410826D01*
X500983Y411613D01*
X499409D01*
X498622Y410826D01*
Y408465D01*
Y410039D02*
X497047Y411613D01*
X501770Y416336D02*
X500983Y414762D01*
X499409Y413187D01*
X497834D01*
X497047Y413975D01*
Y415549D01*
X497834Y416336D01*
X498622D01*
X499409Y415549D01*
Y413187D01*
X497047Y420272D02*
X501770D01*
X499409Y417910D01*
Y421059D01*
X592520Y398622D02*
Y403345D01*
X590158D01*
X589371Y402558D01*
Y400983D01*
X590158Y400196D01*
X592520D01*
X590945D02*
X589371Y398622D01*
X584648Y403345D02*
X586223Y402558D01*
X587797Y400983D01*
Y399409D01*
X587010Y398622D01*
X585435D01*
X584648Y399409D01*
Y400196D01*
X585435Y400983D01*
X587797D01*
X579925Y398622D02*
X583074D01*
X579925Y401771D01*
Y402558D01*
X580713Y403345D01*
X582287D01*
X583074Y402558D01*
X591535Y407480D02*
X596258D01*
Y409842D01*
X595471Y410629D01*
X593897D01*
X593110Y409842D01*
Y407480D01*
Y409055D02*
X591535Y410629D01*
X596258Y415352D02*
X595471Y413777D01*
X593897Y412203D01*
X592323D01*
X591535Y412990D01*
Y414565D01*
X592323Y415352D01*
X593110D01*
X593897Y414565D01*
Y412203D01*
X591535Y416926D02*
Y418500D01*
Y417713D01*
X596258D01*
X595471Y416926D01*
X571850Y399606D02*
X576573D01*
Y401968D01*
X575786Y402755D01*
X574212D01*
X573425Y401968D01*
Y399606D01*
Y401181D02*
X571850Y402755D01*
X576573Y407478D02*
X575786Y405903D01*
X574212Y404329D01*
X572638D01*
X571850Y405116D01*
Y406691D01*
X572638Y407478D01*
X573425D01*
X574212Y406691D01*
Y404329D01*
X575786Y409052D02*
X576573Y409839D01*
Y411413D01*
X575786Y412201D01*
X572638D01*
X571850Y411413D01*
Y409839D01*
X572638Y409052D01*
X575786D01*
X591535Y422244D02*
Y426967D01*
X589174D01*
X588387Y426180D01*
Y424606D01*
X589174Y423818D01*
X591535D01*
X589961D02*
X588387Y422244D01*
X583664Y426967D02*
X586813D01*
Y424606D01*
X585238Y425393D01*
X584451D01*
X583664Y424606D01*
Y423031D01*
X584451Y422244D01*
X586025D01*
X586813Y423031D01*
X582090D02*
X581302Y422244D01*
X579728D01*
X578941Y423031D01*
Y426180D01*
X579728Y426967D01*
X581302D01*
X582090Y426180D01*
Y425393D01*
X581302Y424606D01*
X578941D01*
X339567Y143701D02*
Y148424D01*
X337206D01*
X336418Y147636D01*
Y146062D01*
X337206Y145275D01*
X339567D01*
X337993D02*
X336418Y143701D01*
X331696Y148424D02*
X334844D01*
Y146062D01*
X333270Y146849D01*
X332483D01*
X331696Y146062D01*
Y144488D01*
X332483Y143701D01*
X334057D01*
X334844Y144488D01*
X326973Y148424D02*
X330121D01*
Y146062D01*
X328547Y146849D01*
X327760D01*
X326973Y146062D01*
Y144488D01*
X327760Y143701D01*
X329334D01*
X330121Y144488D01*
X304134Y158465D02*
Y163187D01*
X301772D01*
X300985Y162400D01*
Y160826D01*
X301772Y160039D01*
X304134D01*
X302560D02*
X300985Y158465D01*
X296262Y163187D02*
X299411D01*
Y160826D01*
X297837Y161613D01*
X297049D01*
X296262Y160826D01*
Y159252D01*
X297049Y158465D01*
X298624D01*
X299411Y159252D01*
X291540Y158465D02*
X294688D01*
X291540Y161613D01*
Y162400D01*
X292327Y163187D01*
X293901D01*
X294688Y162400D01*
X304134Y167323D02*
Y172046D01*
X301772D01*
X300985Y171259D01*
Y169684D01*
X301772Y168897D01*
X304134D01*
X302560D02*
X300985Y167323D01*
X296262Y172046D02*
X299411D01*
Y169684D01*
X297837Y170471D01*
X297049D01*
X296262Y169684D01*
Y168110D01*
X297049Y167323D01*
X298624D01*
X299411Y168110D01*
X294688Y171259D02*
X293901Y172046D01*
X292327D01*
X291540Y171259D01*
Y168110D01*
X292327Y167323D01*
X293901D01*
X294688Y168110D01*
Y171259D01*
X216400Y180100D02*
Y184823D01*
X214039D01*
X213251Y184036D01*
Y182461D01*
X214039Y181674D01*
X216400D01*
X214826D02*
X213251Y180100D01*
X209316D02*
Y184823D01*
X211677Y182461D01*
X208528D01*
X206954Y184036D02*
X206167Y184823D01*
X204593D01*
X203806Y184036D01*
Y183249D01*
X204593Y182461D01*
X203806Y181674D01*
Y180887D01*
X204593Y180100D01*
X206167D01*
X206954Y180887D01*
Y181674D01*
X206167Y182461D01*
X206954Y183249D01*
Y184036D01*
X206167Y182461D02*
X204593D01*
X465551Y143701D02*
Y148424D01*
X463190D01*
X462403Y147636D01*
Y146062D01*
X463190Y145275D01*
X465551D01*
X463977D02*
X462403Y143701D01*
X458467D02*
Y148424D01*
X460828Y146062D01*
X457680D01*
X452957Y148424D02*
X454531Y147636D01*
X456105Y146062D01*
Y144488D01*
X455318Y143701D01*
X453744D01*
X452957Y144488D01*
Y145275D01*
X453744Y146062D01*
X456105D01*
X505905Y150590D02*
Y155313D01*
X503544D01*
X502757Y154526D01*
Y152952D01*
X503544Y152165D01*
X505905D01*
X504331D02*
X502757Y150590D01*
X498821D02*
Y155313D01*
X501182Y152952D01*
X498034D01*
X493311Y155313D02*
X496459D01*
Y152952D01*
X494885Y153739D01*
X494098D01*
X493311Y152952D01*
Y151377D01*
X494098Y150590D01*
X495672D01*
X496459Y151377D01*
X430118Y158465D02*
Y163187D01*
X427757D01*
X426969Y162400D01*
Y160826D01*
X427757Y160039D01*
X430118D01*
X428544D02*
X426969Y158465D01*
X423034D02*
Y163187D01*
X425395Y160826D01*
X422247D01*
X418311Y158465D02*
Y163187D01*
X420672Y160826D01*
X417524D01*
X259842Y164370D02*
Y169093D01*
X257481D01*
X256694Y168306D01*
Y166732D01*
X257481Y165944D01*
X259842D01*
X258268D02*
X256694Y164370D01*
X252758D02*
Y169093D01*
X255120Y166732D01*
X251971D01*
X250397Y168306D02*
X249610Y169093D01*
X248035D01*
X247248Y168306D01*
Y167519D01*
X248035Y166732D01*
X248822D01*
X248035D01*
X247248Y165944D01*
Y165157D01*
X248035Y164370D01*
X249610D01*
X250397Y165157D01*
X430118Y168307D02*
Y173030D01*
X427757D01*
X426969Y172243D01*
Y170668D01*
X427757Y169881D01*
X430118D01*
X428544D02*
X426969Y168307D01*
X423034D02*
Y173030D01*
X425395Y170668D01*
X422247D01*
X420672Y168307D02*
X419098D01*
X419885D01*
Y173030D01*
X420672Y172243D01*
X393701Y216535D02*
Y221258D01*
X391339D01*
X390552Y220471D01*
Y218897D01*
X391339Y218110D01*
X393701D01*
X392126D02*
X390552Y216535D01*
X388978Y220471D02*
X388191Y221258D01*
X386616D01*
X385829Y220471D01*
Y219684D01*
X386616Y218897D01*
X387404D01*
X386616D01*
X385829Y218110D01*
Y217323D01*
X386616Y216535D01*
X388191D01*
X388978Y217323D01*
X384255D02*
X383468Y216535D01*
X381894D01*
X381106Y217323D01*
Y220471D01*
X381894Y221258D01*
X383468D01*
X384255Y220471D01*
Y219684D01*
X383468Y218897D01*
X381106D01*
X598425Y175197D02*
X603148D01*
Y177558D01*
X602361Y178345D01*
X600787D01*
X600000Y177558D01*
Y175197D01*
Y176771D02*
X598425Y178345D01*
X602361Y179920D02*
X603148Y180707D01*
Y182281D01*
X602361Y183068D01*
X601574D01*
X600787Y182281D01*
Y181494D01*
Y182281D01*
X600000Y183068D01*
X599212D01*
X598425Y182281D01*
Y180707D01*
X599212Y179920D01*
X602361Y184643D02*
X603148Y185430D01*
Y187004D01*
X602361Y187791D01*
X601574D01*
X600787Y187004D01*
X600000Y187791D01*
X599212D01*
X598425Y187004D01*
Y185430D01*
X599212Y184643D01*
X600000D01*
X600787Y185430D01*
X601574Y184643D01*
X602361D01*
X600787Y185430D02*
Y187004D01*
X585630Y167323D02*
Y172046D01*
X583268D01*
X582481Y171259D01*
Y169684D01*
X583268Y168897D01*
X585630D01*
X584056D02*
X582481Y167323D01*
X580907Y171259D02*
X580120Y172046D01*
X578546D01*
X577758Y171259D01*
Y170471D01*
X578546Y169684D01*
X579333D01*
X578546D01*
X577758Y168897D01*
Y168110D01*
X578546Y167323D01*
X580120D01*
X580907Y168110D01*
X573036Y172046D02*
X574610Y171259D01*
X576184Y169684D01*
Y168110D01*
X575397Y167323D01*
X573823D01*
X573036Y168110D01*
Y168897D01*
X573823Y169684D01*
X576184D01*
X562992Y187992D02*
X567715D01*
Y190354D01*
X566928Y191141D01*
X565354D01*
X564566Y190354D01*
Y187992D01*
Y189566D02*
X562992Y191141D01*
X566928Y192715D02*
X567715Y193502D01*
Y195076D01*
X566928Y195864D01*
X566141D01*
X565354Y195076D01*
Y194289D01*
Y195076D01*
X564566Y195864D01*
X563779D01*
X562992Y195076D01*
Y193502D01*
X563779Y192715D01*
X562992Y199799D02*
X567715D01*
X565354Y197438D01*
Y200587D01*
X558071Y214567D02*
Y219290D01*
X555709D01*
X554922Y218503D01*
Y216928D01*
X555709Y216141D01*
X558071D01*
X556497D02*
X554922Y214567D01*
X553348Y218503D02*
X552561Y219290D01*
X550986D01*
X550199Y218503D01*
Y217716D01*
X550986Y216928D01*
X551774D01*
X550986D01*
X550199Y216141D01*
Y215354D01*
X550986Y214567D01*
X552561D01*
X553348Y215354D01*
X548625Y218503D02*
X547838Y219290D01*
X546264D01*
X545476Y218503D01*
Y217716D01*
X546264Y216928D01*
X547051D01*
X546264D01*
X545476Y216141D01*
Y215354D01*
X546264Y214567D01*
X547838D01*
X548625Y215354D01*
X558957Y356410D02*
Y361133D01*
X556596D01*
X555809Y360346D01*
Y358772D01*
X556596Y357984D01*
X558957D01*
X557383D02*
X555809Y356410D01*
X554235Y360346D02*
X553447Y361133D01*
X551873D01*
X551086Y360346D01*
Y359559D01*
X551873Y358772D01*
X552660D01*
X551873D01*
X551086Y357984D01*
Y357197D01*
X551873Y356410D01*
X553447D01*
X554235Y357197D01*
X546363Y356410D02*
X549512D01*
X546363Y359559D01*
Y360346D01*
X547150Y361133D01*
X548725D01*
X549512Y360346D01*
X558957Y368210D02*
Y372933D01*
X556596D01*
X555809Y372146D01*
Y370572D01*
X556596Y369784D01*
X558957D01*
X557383D02*
X555809Y368210D01*
X554235Y372146D02*
X553447Y372933D01*
X551873D01*
X551086Y372146D01*
Y371359D01*
X551873Y370572D01*
X552660D01*
X551873D01*
X551086Y369784D01*
Y368997D01*
X551873Y368210D01*
X553447D01*
X554235Y368997D01*
X549512Y368210D02*
X547937D01*
X548725D01*
Y372933D01*
X549512Y372146D01*
X558957Y362310D02*
Y367033D01*
X556596D01*
X555809Y366246D01*
Y364672D01*
X556596Y363884D01*
X558957D01*
X557383D02*
X555809Y362310D01*
X554235Y366246D02*
X553447Y367033D01*
X551873D01*
X551086Y366246D01*
Y365459D01*
X551873Y364672D01*
X552660D01*
X551873D01*
X551086Y363884D01*
Y363097D01*
X551873Y362310D01*
X553447D01*
X554235Y363097D01*
X549512Y366246D02*
X548725Y367033D01*
X547150D01*
X546363Y366246D01*
Y363097D01*
X547150Y362310D01*
X548725D01*
X549512Y363097D01*
Y366246D01*
X524606Y166339D02*
Y171062D01*
X522245D01*
X521458Y170274D01*
Y168700D01*
X522245Y167913D01*
X524606D01*
X523032D02*
X521458Y166339D01*
X516735D02*
X519883D01*
X516735Y169487D01*
Y170274D01*
X517522Y171062D01*
X519096D01*
X519883Y170274D01*
X515161Y167126D02*
X514373Y166339D01*
X512799D01*
X512012Y167126D01*
Y170274D01*
X512799Y171062D01*
X514373D01*
X515161Y170274D01*
Y169487D01*
X514373Y168700D01*
X512012D01*
X524606Y173228D02*
Y177951D01*
X522245D01*
X521458Y177164D01*
Y175590D01*
X522245Y174803D01*
X524606D01*
X523032D02*
X521458Y173228D01*
X516735D02*
X519883D01*
X516735Y176377D01*
Y177164D01*
X517522Y177951D01*
X519096D01*
X519883Y177164D01*
X515161D02*
X514373Y177951D01*
X512799D01*
X512012Y177164D01*
Y176377D01*
X512799Y175590D01*
X512012Y174803D01*
Y174015D01*
X512799Y173228D01*
X514373D01*
X515161Y174015D01*
Y174803D01*
X514373Y175590D01*
X515161Y176377D01*
Y177164D01*
X514373Y175590D02*
X512799D01*
X530512Y159449D02*
Y164172D01*
X528150D01*
X527363Y163385D01*
Y161810D01*
X528150Y161023D01*
X530512D01*
X528937D02*
X527363Y159449D01*
X522640D02*
X525789D01*
X522640Y162597D01*
Y163385D01*
X523427Y164172D01*
X525002D01*
X525789Y163385D01*
X521066Y164172D02*
X517917D01*
Y163385D01*
X521066Y160236D01*
Y159449D01*
X530512Y200787D02*
Y205510D01*
X528150D01*
X527363Y204723D01*
Y203149D01*
X528150Y202362D01*
X530512D01*
X528937D02*
X527363Y200787D01*
X522640D02*
X525789D01*
X522640Y203936D01*
Y204723D01*
X523427Y205510D01*
X525002D01*
X525789Y204723D01*
X517917Y205510D02*
X519492Y204723D01*
X521066Y203149D01*
Y201574D01*
X520279Y200787D01*
X518705D01*
X517917Y201574D01*
Y202362D01*
X518705Y203149D01*
X521066D01*
X541339Y186024D02*
Y190746D01*
X538977D01*
X538190Y189959D01*
Y188385D01*
X538977Y187598D01*
X541339D01*
X539764D02*
X538190Y186024D01*
X533467D02*
X536616D01*
X533467Y189172D01*
Y189959D01*
X534254Y190746D01*
X535828D01*
X536616Y189959D01*
X528744Y190746D02*
X531893D01*
Y188385D01*
X530318Y189172D01*
X529531D01*
X528744Y188385D01*
Y186811D01*
X529531Y186024D01*
X531106D01*
X531893Y186811D01*
X500984Y283465D02*
Y288187D01*
X498623D01*
X497836Y287400D01*
Y285826D01*
X498623Y285039D01*
X500984D01*
X499410D02*
X497836Y283465D01*
X493113D02*
X496261D01*
X493113Y286613D01*
Y287400D01*
X493900Y288187D01*
X495474D01*
X496261Y287400D01*
X489177Y283465D02*
Y288187D01*
X491538Y285826D01*
X488390D01*
X381890Y281496D02*
Y286219D01*
X379528D01*
X378741Y285432D01*
Y283857D01*
X379528Y283070D01*
X381890D01*
X380315D02*
X378741Y281496D01*
X374018D02*
X377167D01*
X374018Y284645D01*
Y285432D01*
X374805Y286219D01*
X376380D01*
X377167Y285432D01*
X372444D02*
X371657Y286219D01*
X370083D01*
X369295Y285432D01*
Y284645D01*
X370083Y283857D01*
X370870D01*
X370083D01*
X369295Y283070D01*
Y282283D01*
X370083Y281496D01*
X371657D01*
X372444Y282283D01*
X366142Y312008D02*
Y316731D01*
X363780D01*
X362993Y315944D01*
Y314369D01*
X363780Y313582D01*
X366142D01*
X364567D02*
X362993Y312008D01*
X361419D02*
X359845D01*
X360632D01*
Y316731D01*
X361419Y315944D01*
X357483D02*
X356696Y316731D01*
X355122D01*
X354334Y315944D01*
Y315157D01*
X355122Y314369D01*
X354334Y313582D01*
Y312795D01*
X355122Y312008D01*
X356696D01*
X357483Y312795D01*
Y313582D01*
X356696Y314369D01*
X357483Y315157D01*
Y315944D01*
X356696Y314369D02*
X355122D01*
X515748Y241142D02*
Y245865D01*
X513387D01*
X512599Y245077D01*
Y243503D01*
X513387Y242716D01*
X515748D01*
X514174D02*
X512599Y241142D01*
X511025D02*
X509451D01*
X510238D01*
Y245865D01*
X511025Y245077D01*
X507089Y245865D02*
X503941D01*
Y245077D01*
X507089Y241929D01*
Y241142D01*
X375000Y299213D02*
Y303936D01*
X372639D01*
X371851Y303148D01*
Y301574D01*
X372639Y300787D01*
X375000D01*
X373426D02*
X371851Y299213D01*
X370277D02*
X368703D01*
X369490D01*
Y303936D01*
X370277Y303148D01*
X363193Y303936D02*
X364767Y303148D01*
X366341Y301574D01*
Y300000D01*
X365554Y299213D01*
X363980D01*
X363193Y300000D01*
Y300787D01*
X363980Y301574D01*
X366341D01*
X502953Y292323D02*
X507676D01*
Y294684D01*
X506888Y295471D01*
X505314D01*
X504527Y294684D01*
Y292323D01*
Y293897D02*
X502953Y295471D01*
Y297046D02*
Y298620D01*
Y297833D01*
X507676D01*
X506888Y297046D01*
X507676Y304130D02*
Y300981D01*
X505314D01*
X506101Y302556D01*
Y303343D01*
X505314Y304130D01*
X503740D01*
X502953Y303343D01*
Y301769D01*
X503740Y300981D01*
X368110Y287402D02*
Y292124D01*
X365749D01*
X364962Y291337D01*
Y289763D01*
X365749Y288976D01*
X368110D01*
X366536D02*
X364962Y287402D01*
X363387D02*
X361813D01*
X362600D01*
Y292124D01*
X363387Y291337D01*
X357090Y287402D02*
Y292124D01*
X359452Y289763D01*
X356303D01*
X529528Y248819D02*
Y253542D01*
X527166D01*
X526379Y252755D01*
Y251180D01*
X527166Y250393D01*
X529528D01*
X527953D02*
X526379Y248819D01*
X524805Y252755D02*
X524018Y253542D01*
X522443D01*
X521656Y252755D01*
Y251968D01*
X522443Y251180D01*
X523231D01*
X522443D01*
X521656Y250393D01*
Y249606D01*
X522443Y248819D01*
X524018D01*
X524805Y249606D01*
X569882Y279528D02*
Y284250D01*
X567520D01*
X566733Y283463D01*
Y281889D01*
X567520Y281102D01*
X569882D01*
X568308D02*
X566733Y279528D01*
X565159D02*
X563585D01*
X564372D01*
Y284250D01*
X565159Y283463D01*
X214567Y264565D02*
Y259842D01*
X211418D01*
X209844D02*
X208270D01*
X209057D01*
Y264565D01*
X209844Y263778D01*
X202760Y264565D02*
X204334Y263778D01*
X205908Y262204D01*
Y260630D01*
X205121Y259842D01*
X203547D01*
X202760Y260630D01*
Y261417D01*
X203547Y262204D01*
X205908D01*
X347441Y407282D02*
Y402559D01*
X344292D01*
X342718D02*
X341144D01*
X341931D01*
Y407282D01*
X342718Y406495D01*
X336421Y402559D02*
Y407282D01*
X338782Y404920D01*
X335634D01*
X599211Y435039D02*
X594488D01*
Y438188D01*
Y439762D02*
Y441336D01*
Y440549D01*
X599211D01*
X598424Y439762D01*
X594488Y446847D02*
Y443698D01*
X597637Y446847D01*
X598424D01*
X599211Y446059D01*
Y444485D01*
X598424Y443698D01*
X584447Y437008D02*
X579724D01*
Y440157D01*
Y441731D02*
Y443305D01*
Y442518D01*
X584447D01*
X583660Y441731D01*
X579724Y445667D02*
Y447241D01*
Y446454D01*
X584447D01*
X583660Y445667D01*
X584646Y477164D02*
Y472441D01*
X581497D01*
X579923D02*
X578348D01*
X579136D01*
Y477164D01*
X579923Y476377D01*
X575987D02*
X575200Y477164D01*
X573626D01*
X572838Y476377D01*
Y473228D01*
X573626Y472441D01*
X575200D01*
X575987Y473228D01*
Y476377D01*
X528543Y150392D02*
Y145669D01*
X525395D01*
X520672Y150392D02*
X523820D01*
Y148031D01*
X522246Y148818D01*
X521459D01*
X520672Y148031D01*
Y146456D01*
X521459Y145669D01*
X523033D01*
X523820Y146456D01*
X428935Y310039D02*
X424213D01*
Y313188D01*
Y317124D02*
X428935D01*
X426574Y314762D01*
Y317911D01*
X429920Y328740D02*
X425197D01*
Y331889D01*
X429133Y333463D02*
X429920Y334250D01*
Y335824D01*
X429133Y336612D01*
X428345D01*
X427558Y335824D01*
Y335037D01*
Y335824D01*
X426771Y336612D01*
X425984D01*
X425197Y335824D01*
Y334250D01*
X425984Y333463D01*
X362205Y246849D02*
Y242126D01*
X359056D01*
X354333D02*
X357482D01*
X354333Y245275D01*
Y246062D01*
X355120Y246849D01*
X356695D01*
X357482Y246062D01*
X515550Y218504D02*
X510827D01*
Y221653D01*
Y223227D02*
Y224801D01*
Y224014D01*
X515550D01*
X514762Y223227D01*
X440945Y413187D02*
Y408465D01*
X438583D01*
X437796Y409252D01*
Y412400D01*
X438583Y413187D01*
X440945D01*
X436222Y408465D02*
X434648D01*
X435435D01*
Y413187D01*
X436222Y412400D01*
X429138Y408465D02*
X432286D01*
X429138Y411613D01*
Y412400D01*
X429925Y413187D01*
X431499D01*
X432286Y412400D01*
X587598Y372833D02*
Y368110D01*
X585237D01*
X584450Y368897D01*
Y372046D01*
X585237Y372833D01*
X587598D01*
X582876Y368110D02*
X581301D01*
X582088D01*
Y372833D01*
X582876Y372046D01*
X578940Y368110D02*
X577365D01*
X578153D01*
Y372833D01*
X578940Y372046D01*
X358268Y169093D02*
Y164370D01*
X355906D01*
X355119Y165157D01*
Y168306D01*
X355906Y169093D01*
X358268D01*
X353545Y168306D02*
X352758Y169093D01*
X351183D01*
X350396Y168306D01*
Y167519D01*
X351183Y166732D01*
X350396Y165944D01*
Y165157D01*
X351183Y164370D01*
X352758D01*
X353545Y165157D01*
Y165944D01*
X352758Y166732D01*
X353545Y167519D01*
Y168306D01*
X352758Y166732D02*
X351183D01*
X481299Y169093D02*
Y164370D01*
X478938D01*
X478151Y165157D01*
Y168306D01*
X478938Y169093D01*
X481299D01*
X476576D02*
X473428D01*
Y168306D01*
X476576Y165157D01*
Y164370D01*
X583661Y219290D02*
Y214567D01*
X581300D01*
X580513Y215354D01*
Y218503D01*
X581300Y219290D01*
X583661D01*
X575790D02*
X578938D01*
Y216928D01*
X577364Y217716D01*
X576577D01*
X575790Y216928D01*
Y215354D01*
X576577Y214567D01*
X578151D01*
X578938Y215354D01*
X189765Y272637D02*
X190552Y273424D01*
X192126D01*
X192913Y272637D01*
Y269488D01*
X192126Y268701D01*
X190552D01*
X189765Y269488D01*
X185042Y268701D02*
X188190D01*
X185042Y271849D01*
Y272637D01*
X185829Y273424D01*
X187403D01*
X188190Y272637D01*
X181106Y268701D02*
Y273424D01*
X183468Y271062D01*
X180319D01*
X176383Y268701D02*
Y273424D01*
X178745Y271062D01*
X175596D01*
X188780Y264762D02*
X189568Y265550D01*
X191142D01*
X191929Y264762D01*
Y261614D01*
X191142Y260827D01*
X189568D01*
X188780Y261614D01*
X184058Y260827D02*
X187206D01*
X184058Y263975D01*
Y264762D01*
X184845Y265550D01*
X186419D01*
X187206Y264762D01*
X180122Y260827D02*
Y265550D01*
X182483Y263188D01*
X179335D01*
X177761Y264762D02*
X176973Y265550D01*
X175399D01*
X174612Y264762D01*
Y263975D01*
X175399Y263188D01*
X176186D01*
X175399D01*
X174612Y262401D01*
Y261614D01*
X175399Y260827D01*
X176973D01*
X177761Y261614D01*
X239962Y295274D02*
X240749Y296061D01*
X242323D01*
X243110Y295274D01*
Y292126D01*
X242323Y291339D01*
X240749D01*
X239962Y292126D01*
X235239Y291339D02*
X238387D01*
X235239Y294487D01*
Y295274D01*
X236026Y296061D01*
X237600D01*
X238387Y295274D01*
X231303Y291339D02*
Y296061D01*
X233664Y293700D01*
X230516D01*
X228942Y291339D02*
X227367D01*
X228154D01*
Y296061D01*
X228942Y295274D01*
X226377Y264960D02*
X227164Y264173D01*
Y262598D01*
X226377Y261811D01*
X223228D01*
X222441Y262598D01*
Y264173D01*
X223228Y264960D01*
X222441Y269683D02*
Y266534D01*
X225589Y269683D01*
X226377D01*
X227164Y268895D01*
Y267321D01*
X226377Y266534D01*
X222441Y273618D02*
X227164D01*
X224802Y271257D01*
Y274405D01*
X226377Y275980D02*
X227164Y276767D01*
Y278341D01*
X226377Y279128D01*
X223228D01*
X222441Y278341D01*
Y276767D01*
X223228Y275980D01*
X226377D01*
X186688Y283339D02*
X187475Y284126D01*
X189049D01*
X189836Y283339D01*
Y280190D01*
X189049Y279403D01*
X187475D01*
X186688Y280190D01*
X181965Y279403D02*
X185113D01*
X181965Y282552D01*
Y283339D01*
X182752Y284126D01*
X184326D01*
X185113Y283339D01*
X180391D02*
X179603Y284126D01*
X178029D01*
X177242Y283339D01*
Y282552D01*
X178029Y281765D01*
X178816D01*
X178029D01*
X177242Y280978D01*
Y280190D01*
X178029Y279403D01*
X179603D01*
X180391Y280190D01*
X175668D02*
X174881Y279403D01*
X173306D01*
X172519Y280190D01*
Y283339D01*
X173306Y284126D01*
X174881D01*
X175668Y283339D01*
Y282552D01*
X174881Y281765D01*
X172519D01*
X203739Y307282D02*
X204526Y306495D01*
Y304921D01*
X203739Y304134D01*
X200590D01*
X199803Y304921D01*
Y306495D01*
X200590Y307282D01*
X199803Y312005D02*
Y308857D01*
X202952Y312005D01*
X203739D01*
X204526Y311218D01*
Y309644D01*
X203739Y308857D01*
Y313580D02*
X204526Y314367D01*
Y315941D01*
X203739Y316728D01*
X202952D01*
X202165Y315941D01*
Y315154D01*
Y315941D01*
X201377Y316728D01*
X200590D01*
X199803Y315941D01*
Y314367D01*
X200590Y313580D01*
X203739Y318302D02*
X204526Y319090D01*
Y320664D01*
X203739Y321451D01*
X202952D01*
X202165Y320664D01*
X201377Y321451D01*
X200590D01*
X199803Y320664D01*
Y319090D01*
X200590Y318302D01*
X201377D01*
X202165Y319090D01*
X202952Y318302D01*
X203739D01*
X202165Y319090D02*
Y320664D01*
X217518Y307282D02*
X218306Y306495D01*
Y304921D01*
X217518Y304134D01*
X214370D01*
X213583Y304921D01*
Y306495D01*
X214370Y307282D01*
X213583Y312005D02*
Y308857D01*
X216731Y312005D01*
X217518D01*
X218306Y311218D01*
Y309644D01*
X217518Y308857D01*
Y313580D02*
X218306Y314367D01*
Y315941D01*
X217518Y316728D01*
X216731D01*
X215944Y315941D01*
Y315154D01*
Y315941D01*
X215157Y316728D01*
X214370D01*
X213583Y315941D01*
Y314367D01*
X214370Y313580D01*
X218306Y318302D02*
Y321451D01*
X217518D01*
X214370Y318302D01*
X213583D01*
X316733Y437007D02*
X317520Y437794D01*
X319095D01*
X319882Y437007D01*
Y433858D01*
X319095Y433071D01*
X317520D01*
X316733Y433858D01*
X312010Y433071D02*
X315159D01*
X312010Y436220D01*
Y437007D01*
X312798Y437794D01*
X314372D01*
X315159Y437007D01*
X310436D02*
X309649Y437794D01*
X308075D01*
X307288Y437007D01*
Y436220D01*
X308075Y435432D01*
X308862D01*
X308075D01*
X307288Y434645D01*
Y433858D01*
X308075Y433071D01*
X309649D01*
X310436Y433858D01*
X302565Y437794D02*
X305713D01*
Y435432D01*
X304139Y436220D01*
X303352D01*
X302565Y435432D01*
Y433858D01*
X303352Y433071D01*
X304926D01*
X305713Y433858D01*
X336418Y374014D02*
X337206Y374802D01*
X338780D01*
X339567Y374014D01*
Y370866D01*
X338780Y370079D01*
X337206D01*
X336418Y370866D01*
X331696Y370079D02*
X334844D01*
X331696Y373227D01*
Y374014D01*
X332483Y374802D01*
X334057D01*
X334844Y374014D01*
X330121D02*
X329334Y374802D01*
X327760D01*
X326973Y374014D01*
Y373227D01*
X327760Y372440D01*
X328547D01*
X327760D01*
X326973Y371653D01*
Y370866D01*
X327760Y370079D01*
X329334D01*
X330121Y370866D01*
X323037Y370079D02*
Y374802D01*
X325398Y372440D01*
X322250D01*
X277363Y380904D02*
X278150Y381691D01*
X279725D01*
X280512Y380904D01*
Y377756D01*
X279725Y376969D01*
X278150D01*
X277363Y377756D01*
X272640Y376969D02*
X275789D01*
X272640Y380117D01*
Y380904D01*
X273428Y381691D01*
X275002D01*
X275789Y380904D01*
X271066D02*
X270279Y381691D01*
X268705D01*
X267917Y380904D01*
Y380117D01*
X268705Y379330D01*
X269492D01*
X268705D01*
X267917Y378543D01*
Y377756D01*
X268705Y376969D01*
X270279D01*
X271066Y377756D01*
X263195Y376969D02*
X266343D01*
X263195Y380117D01*
Y380904D01*
X263982Y381691D01*
X265556D01*
X266343Y380904D01*
X277363Y389762D02*
X278150Y390550D01*
X279725D01*
X280512Y389762D01*
Y386614D01*
X279725Y385827D01*
X278150D01*
X277363Y386614D01*
X272640Y385827D02*
X275789D01*
X272640Y388975D01*
Y389762D01*
X273428Y390550D01*
X275002D01*
X275789Y389762D01*
X271066D02*
X270279Y390550D01*
X268705D01*
X267917Y389762D01*
Y388975D01*
X268705Y388188D01*
X269492D01*
X268705D01*
X267917Y387401D01*
Y386614D01*
X268705Y385827D01*
X270279D01*
X271066Y386614D01*
X266343Y385827D02*
X264769D01*
X265556D01*
Y390550D01*
X266343Y389762D01*
X274411Y406495D02*
X275198Y407282D01*
X276772D01*
X277559Y406495D01*
Y403346D01*
X276772Y402559D01*
X275198D01*
X274411Y403346D01*
X269688Y402559D02*
X272836D01*
X269688Y405708D01*
Y406495D01*
X270475Y407282D01*
X272049D01*
X272836Y406495D01*
X268113D02*
X267326Y407282D01*
X265752D01*
X264965Y406495D01*
Y405708D01*
X265752Y404920D01*
X266539D01*
X265752D01*
X264965Y404133D01*
Y403346D01*
X265752Y402559D01*
X267326D01*
X268113Y403346D01*
X263390Y406495D02*
X262603Y407282D01*
X261029D01*
X260242Y406495D01*
Y403346D01*
X261029Y402559D01*
X262603D01*
X263390Y403346D01*
Y406495D01*
X308859Y369093D02*
X309646Y369880D01*
X311221D01*
X312008Y369093D01*
Y365945D01*
X311221Y365158D01*
X309646D01*
X308859Y365945D01*
X304136Y365158D02*
X307285D01*
X304136Y368306D01*
Y369093D01*
X304924Y369880D01*
X306498D01*
X307285Y369093D01*
X299413Y365158D02*
X302562D01*
X299413Y368306D01*
Y369093D01*
X300201Y369880D01*
X301775D01*
X302562Y369093D01*
X297839Y365945D02*
X297052Y365158D01*
X295478D01*
X294691Y365945D01*
Y369093D01*
X295478Y369880D01*
X297052D01*
X297839Y369093D01*
Y368306D01*
X297052Y367519D01*
X294691D01*
X303938Y421259D02*
X304725Y422046D01*
X306299D01*
X307087Y421259D01*
Y418110D01*
X306299Y417323D01*
X304725D01*
X303938Y418110D01*
X299215Y417323D02*
X302364D01*
X299215Y420471D01*
Y421259D01*
X300002Y422046D01*
X301577D01*
X302364Y421259D01*
X294492Y417323D02*
X297641D01*
X294492Y420471D01*
Y421259D01*
X295279Y422046D01*
X296854D01*
X297641Y421259D01*
X292918D02*
X292131Y422046D01*
X290557D01*
X289769Y421259D01*
Y420471D01*
X290557Y419684D01*
X289769Y418897D01*
Y418110D01*
X290557Y417323D01*
X292131D01*
X292918Y418110D01*
Y418897D01*
X292131Y419684D01*
X292918Y420471D01*
Y421259D01*
X292131Y419684D02*
X290557D01*
X580513Y312007D02*
X581300Y312794D01*
X582874D01*
X583661Y312007D01*
Y308858D01*
X582874Y308071D01*
X581300D01*
X580513Y308858D01*
X575790Y308071D02*
X578938D01*
X575790Y311220D01*
Y312007D01*
X576577Y312794D01*
X578151D01*
X578938Y312007D01*
X571067Y308071D02*
X574216D01*
X571067Y311220D01*
Y312007D01*
X571854Y312794D01*
X573428D01*
X574216Y312007D01*
X569493D02*
X568706Y312794D01*
X567131D01*
X566344Y312007D01*
Y311220D01*
X567131Y310432D01*
X567918D01*
X567131D01*
X566344Y309645D01*
Y308858D01*
X567131Y308071D01*
X568706D01*
X569493Y308858D01*
X591340Y323818D02*
X592127Y324605D01*
X593701D01*
X594488Y323818D01*
Y320669D01*
X593701Y319882D01*
X592127D01*
X591340Y320669D01*
X586617Y319882D02*
X589765D01*
X586617Y323030D01*
Y323818D01*
X587404Y324605D01*
X588978D01*
X589765Y323818D01*
X585042Y319882D02*
X583468D01*
X584255D01*
Y324605D01*
X585042Y323818D01*
X581107Y320669D02*
X580319Y319882D01*
X578745D01*
X577958Y320669D01*
Y323818D01*
X578745Y324605D01*
X580319D01*
X581107Y323818D01*
Y323030D01*
X580319Y322243D01*
X577958D01*
X432875Y391731D02*
X433662Y392518D01*
X435237D01*
X436024Y391731D01*
Y388582D01*
X435237Y387795D01*
X433662D01*
X432875Y388582D01*
X428152Y387795D02*
X431301D01*
X428152Y390944D01*
Y391731D01*
X428939Y392518D01*
X430514D01*
X431301Y391731D01*
X426578D02*
X425791Y392518D01*
X424216D01*
X423429Y391731D01*
Y388582D01*
X424216Y387795D01*
X425791D01*
X426578Y388582D01*
Y391731D01*
X418706Y387795D02*
X421855D01*
X418706Y390944D01*
Y391731D01*
X419493Y392518D01*
X421068D01*
X421855Y391731D01*
X606103Y472440D02*
X606890Y473227D01*
X608465D01*
X609252Y472440D01*
Y469291D01*
X608465Y468504D01*
X606890D01*
X606103Y469291D01*
X604529Y468504D02*
X602955D01*
X603742D01*
Y473227D01*
X604529Y472440D01*
X600593Y469291D02*
X599806Y468504D01*
X598232D01*
X597445Y469291D01*
Y472440D01*
X598232Y473227D01*
X599806D01*
X600593Y472440D01*
Y471653D01*
X599806Y470865D01*
X597445D01*
X592722Y473227D02*
X595870D01*
Y470865D01*
X594296Y471653D01*
X593509D01*
X592722Y470865D01*
Y469291D01*
X593509Y468504D01*
X595083D01*
X595870Y469291D01*
X614172Y449015D02*
X614959Y448228D01*
Y446653D01*
X614172Y445866D01*
X611023D01*
X610236Y446653D01*
Y448228D01*
X611023Y449015D01*
X610236Y450589D02*
Y452163D01*
Y451376D01*
X614959D01*
X614172Y450589D01*
X611023Y454525D02*
X610236Y455312D01*
Y456886D01*
X611023Y457673D01*
X614172D01*
X614959Y456886D01*
Y455312D01*
X614172Y454525D01*
X613385D01*
X612598Y455312D01*
Y457673D01*
X610236Y459248D02*
Y460822D01*
Y460035D01*
X614959D01*
X614172Y459248D01*
X591534Y433267D02*
X592321Y432480D01*
Y430905D01*
X591534Y430118D01*
X588386D01*
X587598Y430905D01*
Y432480D01*
X588386Y433267D01*
X587598Y434841D02*
Y436415D01*
Y435628D01*
X592321D01*
X591534Y434841D01*
Y438777D02*
X592321Y439564D01*
Y441138D01*
X591534Y441925D01*
X590747D01*
X589960Y441138D01*
X589173Y441925D01*
X588386D01*
X587598Y441138D01*
Y439564D01*
X588386Y438777D01*
X589173D01*
X589960Y439564D01*
X590747Y438777D01*
X591534D01*
X589960Y439564D02*
Y441138D01*
X588386Y443500D02*
X587598Y444287D01*
Y445861D01*
X588386Y446648D01*
X591534D01*
X592321Y445861D01*
Y444287D01*
X591534Y443500D01*
X590747D01*
X589960Y444287D01*
Y446648D01*
X575786Y433267D02*
X576573Y432480D01*
Y430905D01*
X575786Y430118D01*
X572638D01*
X571850Y430905D01*
Y432480D01*
X572638Y433267D01*
X571850Y434841D02*
Y436415D01*
Y435628D01*
X576573D01*
X575786Y434841D01*
Y438777D02*
X576573Y439564D01*
Y441138D01*
X575786Y441925D01*
X574999D01*
X574212Y441138D01*
X573425Y441925D01*
X572638D01*
X571850Y441138D01*
Y439564D01*
X572638Y438777D01*
X573425D01*
X574212Y439564D01*
X574999Y438777D01*
X575786D01*
X574212Y439564D02*
Y441138D01*
X576573Y446648D02*
X575786Y445074D01*
X574212Y443500D01*
X572638D01*
X571850Y444287D01*
Y445861D01*
X572638Y446648D01*
X573425D01*
X574212Y445861D01*
Y443500D01*
X465550Y435235D02*
X466337Y434448D01*
Y432874D01*
X465550Y432087D01*
X462401D01*
X461614Y432874D01*
Y434448D01*
X462401Y435235D01*
X461614Y436809D02*
Y438384D01*
Y437597D01*
X466337D01*
X465550Y436809D01*
Y440745D02*
X466337Y441532D01*
Y443107D01*
X465550Y443894D01*
X464763D01*
X463976Y443107D01*
X463189Y443894D01*
X462401D01*
X461614Y443107D01*
Y441532D01*
X462401Y440745D01*
X463189D01*
X463976Y441532D01*
X464763Y440745D01*
X465550D01*
X463976Y441532D02*
Y443107D01*
X461614Y447830D02*
X466337D01*
X463976Y445468D01*
Y448617D01*
X563780Y482282D02*
X564568Y483069D01*
X566142D01*
X566929Y482282D01*
Y479134D01*
X566142Y478346D01*
X564568D01*
X563780Y479134D01*
X562206Y478346D02*
X560632D01*
X561419D01*
Y483069D01*
X562206Y482282D01*
X558271D02*
X557483Y483069D01*
X555909D01*
X555122Y482282D01*
Y481495D01*
X555909Y480708D01*
X555122Y479921D01*
Y479134D01*
X555909Y478346D01*
X557483D01*
X558271Y479134D01*
Y479921D01*
X557483Y480708D01*
X558271Y481495D01*
Y482282D01*
X557483Y480708D02*
X555909D01*
X553548Y482282D02*
X552761Y483069D01*
X551186D01*
X550399Y482282D01*
Y481495D01*
X551186Y480708D01*
X551973D01*
X551186D01*
X550399Y479921D01*
Y479134D01*
X551186Y478346D01*
X552761D01*
X553548Y479134D01*
X537206Y482282D02*
X537993Y483069D01*
X539567D01*
X540354Y482282D01*
Y479134D01*
X539567Y478346D01*
X537993D01*
X537206Y479134D01*
X535632Y478346D02*
X534057D01*
X534844D01*
Y483069D01*
X535632Y482282D01*
X531696D02*
X530909Y483069D01*
X529334D01*
X528547Y482282D01*
Y481495D01*
X529334Y480708D01*
X528547Y479921D01*
Y479134D01*
X529334Y478346D01*
X530909D01*
X531696Y479134D01*
Y479921D01*
X530909Y480708D01*
X531696Y481495D01*
Y482282D01*
X530909Y480708D02*
X529334D01*
X523824Y478346D02*
X526973D01*
X523824Y481495D01*
Y482282D01*
X524611Y483069D01*
X526186D01*
X526973Y482282D01*
X319686Y147636D02*
X320473Y148424D01*
X322047D01*
X322835Y147636D01*
Y144488D01*
X322047Y143701D01*
X320473D01*
X319686Y144488D01*
X318112Y143701D02*
X316537D01*
X317325D01*
Y148424D01*
X318112Y147636D01*
X314176Y148424D02*
X311027D01*
Y147636D01*
X314176Y144488D01*
Y143701D01*
X309453Y147636D02*
X308666Y148424D01*
X307092D01*
X306305Y147636D01*
Y146849D01*
X307092Y146062D01*
X306305Y145275D01*
Y144488D01*
X307092Y143701D01*
X308666D01*
X309453Y144488D01*
Y145275D01*
X308666Y146062D01*
X309453Y146849D01*
Y147636D01*
X308666Y146062D02*
X307092D01*
X337403Y170274D02*
X338190Y171062D01*
X339764D01*
X340551Y170274D01*
Y167126D01*
X339764Y166339D01*
X338190D01*
X337403Y167126D01*
X335828Y166339D02*
X334254D01*
X335041D01*
Y171062D01*
X335828Y170274D01*
X331893Y171062D02*
X328744D01*
Y170274D01*
X331893Y167126D01*
Y166339D01*
X327170Y171062D02*
X324021D01*
Y170274D01*
X327170Y167126D01*
Y166339D01*
X357088Y185038D02*
X357875Y185825D01*
X359449D01*
X360236Y185038D01*
Y181889D01*
X359449Y181102D01*
X357875D01*
X357088Y181889D01*
X355513Y181102D02*
X353939D01*
X354726D01*
Y185825D01*
X355513Y185038D01*
X351578Y185825D02*
X348429D01*
Y185038D01*
X351578Y181889D01*
Y181102D01*
X346855Y185038D02*
X346068Y185825D01*
X344493D01*
X343706Y185038D01*
Y181889D01*
X344493Y181102D01*
X346068D01*
X346855Y181889D01*
Y185038D01*
X446655Y147636D02*
X447442Y148424D01*
X449016D01*
X449803Y147636D01*
Y144488D01*
X449016Y143701D01*
X447442D01*
X446655Y144488D01*
X445080Y143701D02*
X443506D01*
X444293D01*
Y148424D01*
X445080Y147636D01*
X437996Y148424D02*
X439570Y147636D01*
X441145Y146062D01*
Y144488D01*
X440357Y143701D01*
X438783D01*
X437996Y144488D01*
Y145275D01*
X438783Y146062D01*
X441145D01*
X433273Y148424D02*
X434847Y147636D01*
X436422Y146062D01*
Y144488D01*
X435635Y143701D01*
X434060D01*
X433273Y144488D01*
Y145275D01*
X434060Y146062D01*
X436422D01*
X208660Y196062D02*
X209447Y195275D01*
Y193701D01*
X208660Y192913D01*
X205512D01*
X204724Y193701D01*
Y195275D01*
X205512Y196062D01*
X204724Y197636D02*
Y199211D01*
Y198423D01*
X209447D01*
X208660Y197636D01*
X209447Y204721D02*
X208660Y203146D01*
X207086Y201572D01*
X205512D01*
X204724Y202359D01*
Y203933D01*
X205512Y204721D01*
X206299D01*
X207086Y203933D01*
Y201572D01*
X209447Y209443D02*
Y206295D01*
X207086D01*
X207873Y207869D01*
Y208656D01*
X207086Y209443D01*
X205512D01*
X204724Y208656D01*
Y207082D01*
X205512Y206295D01*
X217518Y196062D02*
X218306Y195275D01*
Y193701D01*
X217518Y192913D01*
X214370D01*
X213583Y193701D01*
Y195275D01*
X214370Y196062D01*
X213583Y197636D02*
Y199211D01*
Y198423D01*
X218306D01*
X217518Y197636D01*
X218306Y204721D02*
X217518Y203146D01*
X215944Y201572D01*
X214370D01*
X213583Y202359D01*
Y203933D01*
X214370Y204721D01*
X215157D01*
X215944Y203933D01*
Y201572D01*
X213583Y208656D02*
X218306D01*
X215944Y206295D01*
Y209443D01*
X462403Y170274D02*
X463190Y171062D01*
X464764D01*
X465551Y170274D01*
Y167126D01*
X464764Y166339D01*
X463190D01*
X462403Y167126D01*
X460828Y166339D02*
X459254D01*
X460041D01*
Y171062D01*
X460828Y170274D01*
X453744Y171062D02*
X455318Y170274D01*
X456893Y168700D01*
Y167126D01*
X456105Y166339D01*
X454531D01*
X453744Y167126D01*
Y167913D01*
X454531Y168700D01*
X456893D01*
X452170Y166339D02*
X450595D01*
X451382D01*
Y171062D01*
X452170Y170274D01*
X213387Y155510D02*
X214174Y156298D01*
X215748D01*
X216535Y155510D01*
Y152362D01*
X215748Y151575D01*
X214174D01*
X213387Y152362D01*
X211813Y151575D02*
X210238D01*
X211025D01*
Y156298D01*
X211813Y155510D01*
X204728Y156298D02*
X206302Y155510D01*
X207877Y153936D01*
Y152362D01*
X207090Y151575D01*
X205515D01*
X204728Y152362D01*
Y153149D01*
X205515Y153936D01*
X207877D01*
X203154Y155510D02*
X202367Y156298D01*
X200793D01*
X200005Y155510D01*
Y152362D01*
X200793Y151575D01*
X202367D01*
X203154Y152362D01*
Y155510D01*
X250788Y149605D02*
X251576Y150392D01*
X253150D01*
X253937Y149605D01*
Y146456D01*
X253150Y145669D01*
X251576D01*
X250788Y146456D01*
X249214Y145669D02*
X247640D01*
X248427D01*
Y150392D01*
X249214Y149605D01*
X242130Y150392D02*
X245278D01*
Y148031D01*
X243704Y148818D01*
X242917D01*
X242130Y148031D01*
Y146456D01*
X242917Y145669D01*
X244491D01*
X245278Y146456D01*
X240556D02*
X239768Y145669D01*
X238194D01*
X237407Y146456D01*
Y149605D01*
X238194Y150392D01*
X239768D01*
X240556Y149605D01*
Y148818D01*
X239768Y148031D01*
X237407D01*
X249999Y196062D02*
X250786Y195275D01*
Y193701D01*
X249999Y192913D01*
X246850D01*
X246063Y193701D01*
Y195275D01*
X246850Y196062D01*
X246063Y197636D02*
Y199211D01*
Y198423D01*
X250786D01*
X249999Y197636D01*
X250786Y204721D02*
Y201572D01*
X248424D01*
X249212Y203146D01*
Y203933D01*
X248424Y204721D01*
X246850D01*
X246063Y203933D01*
Y202359D01*
X246850Y201572D01*
X249999Y206295D02*
X250786Y207082D01*
Y208656D01*
X249999Y209443D01*
X249212D01*
X248424Y208656D01*
X247637Y209443D01*
X246850D01*
X246063Y208656D01*
Y207082D01*
X246850Y206295D01*
X247637D01*
X248424Y207082D01*
X249212Y206295D01*
X249999D01*
X248424Y207082D02*
Y208656D01*
X258857Y196062D02*
X259644Y195275D01*
Y193701D01*
X258857Y192913D01*
X255708D01*
X254921Y193701D01*
Y195275D01*
X255708Y196062D01*
X254921Y197636D02*
Y199211D01*
Y198423D01*
X259644D01*
X258857Y197636D01*
X259644Y204721D02*
Y201572D01*
X257283D01*
X258070Y203146D01*
Y203933D01*
X257283Y204721D01*
X255708D01*
X254921Y203933D01*
Y202359D01*
X255708Y201572D01*
X259644Y206295D02*
Y209443D01*
X258857D01*
X255708Y206295D01*
X254921D01*
X483072Y185038D02*
X483859Y185825D01*
X485433D01*
X486221Y185038D01*
Y181889D01*
X485433Y181102D01*
X483859D01*
X483072Y181889D01*
X481498Y181102D02*
X479923D01*
X480710D01*
Y185825D01*
X481498Y185038D01*
X474413Y185825D02*
X477562D01*
Y183464D01*
X475988Y184251D01*
X475200D01*
X474413Y183464D01*
Y181889D01*
X475200Y181102D01*
X476775D01*
X477562Y181889D01*
X472839Y181102D02*
X471265D01*
X472052D01*
Y185825D01*
X472839Y185038D01*
X240946Y179133D02*
X241733Y179920D01*
X243307D01*
X244094Y179133D01*
Y175984D01*
X243307Y175197D01*
X241733D01*
X240946Y175984D01*
X239372Y175197D02*
X237797D01*
X238584D01*
Y179920D01*
X239372Y179133D01*
X233074Y175197D02*
Y179920D01*
X235436Y177558D01*
X232287D01*
X227564Y179920D02*
X229139Y179133D01*
X230713Y177558D01*
Y175984D01*
X229926Y175197D01*
X228351D01*
X227564Y175984D01*
Y176771D01*
X228351Y177558D01*
X230713D01*
X235040Y136810D02*
X235827Y137597D01*
X237402D01*
X238189Y136810D01*
Y133661D01*
X237402Y132874D01*
X235827D01*
X235040Y133661D01*
X233466Y132874D02*
X231892D01*
X232679D01*
Y137597D01*
X233466Y136810D01*
X227169Y132874D02*
Y137597D01*
X229530Y135236D01*
X226382D01*
X221659Y137597D02*
X224808D01*
Y135236D01*
X223233Y136023D01*
X222446D01*
X221659Y135236D01*
Y133661D01*
X222446Y132874D01*
X224020D01*
X224808Y133661D01*
X504920Y264960D02*
X505707Y264173D01*
Y262598D01*
X504920Y261811D01*
X501771D01*
X500984Y262598D01*
Y264173D01*
X501771Y264960D01*
X500984Y266534D02*
Y268108D01*
Y267321D01*
X505707D01*
X504920Y266534D01*
X500984Y270470D02*
Y272044D01*
Y271257D01*
X505707D01*
X504920Y270470D01*
X501771Y274405D02*
X500984Y275192D01*
Y276767D01*
X501771Y277554D01*
X504920D01*
X505707Y276767D01*
Y275192D01*
X504920Y274405D01*
X504133D01*
X503346Y275192D01*
Y277554D01*
X318896Y202952D02*
X319684Y202165D01*
Y200590D01*
X318896Y199803D01*
X315748D01*
X314961Y200590D01*
Y202165D01*
X315748Y202952D01*
X314961Y206888D02*
X319684D01*
X317322Y204526D01*
Y207675D01*
X318896Y209249D02*
X319684Y210036D01*
Y211610D01*
X318896Y212398D01*
X318109D01*
X317322Y211610D01*
Y210823D01*
Y211610D01*
X316535Y212398D01*
X315748D01*
X314961Y211610D01*
Y210036D01*
X315748Y209249D01*
X369093Y199015D02*
X369880Y198228D01*
Y196653D01*
X369093Y195866D01*
X365945D01*
X365158Y196653D01*
Y198228D01*
X365945Y199015D01*
X365158Y202951D02*
X369880D01*
X367519Y200589D01*
Y203738D01*
X365158Y205312D02*
Y206886D01*
Y206099D01*
X369880D01*
X369093Y205312D01*
X360235Y197046D02*
X361022Y196259D01*
Y194685D01*
X360235Y193898D01*
X357086D01*
X356299Y194685D01*
Y196259D01*
X357086Y197046D01*
X356299Y200982D02*
X361022D01*
X358661Y198620D01*
Y201769D01*
X360235Y203343D02*
X361022Y204131D01*
Y205705D01*
X360235Y206492D01*
X357086D01*
X356299Y205705D01*
Y204131D01*
X357086Y203343D01*
X360235D01*
X351377Y197046D02*
X352164Y196259D01*
Y194685D01*
X351377Y193898D01*
X348228D01*
X347441Y194685D01*
Y196259D01*
X348228Y197046D01*
X351377Y198620D02*
X352164Y199408D01*
Y200982D01*
X351377Y201769D01*
X350589D01*
X349802Y200982D01*
Y200195D01*
Y200982D01*
X349015Y201769D01*
X348228D01*
X347441Y200982D01*
Y199408D01*
X348228Y198620D01*
Y203343D02*
X347441Y204131D01*
Y205705D01*
X348228Y206492D01*
X351377D01*
X352164Y205705D01*
Y204131D01*
X351377Y203343D01*
X350589D01*
X349802Y204131D01*
Y206492D01*
X522637Y217716D02*
X523424Y216928D01*
Y215354D01*
X522637Y214567D01*
X519488D01*
X518701Y215354D01*
Y216928D01*
X519488Y217716D01*
X518701Y222438D02*
Y219290D01*
X521849Y222438D01*
X522637D01*
X523424Y221651D01*
Y220077D01*
X522637Y219290D01*
Y224013D02*
X523424Y224800D01*
Y226374D01*
X522637Y227161D01*
X519488D01*
X518701Y226374D01*
Y224800D01*
X519488Y224013D01*
X522637D01*
X373030Y230511D02*
X373817Y229724D01*
Y228149D01*
X373030Y227362D01*
X369882D01*
X369094Y228149D01*
Y229724D01*
X369882Y230511D01*
X369094Y232085D02*
Y233659D01*
Y232872D01*
X373817D01*
X373030Y232085D01*
Y236021D02*
X373817Y236808D01*
Y238382D01*
X373030Y239169D01*
X372243D01*
X371456Y238382D01*
X370669Y239169D01*
X369882D01*
X369094Y238382D01*
Y236808D01*
X369882Y236021D01*
X370669D01*
X371456Y236808D01*
X372243Y236021D01*
X373030D01*
X371456Y236808D02*
Y238382D01*
X284253Y251967D02*
X285040Y252754D01*
X286614D01*
X287402Y251967D01*
Y248819D01*
X286614Y248031D01*
X285040D01*
X284253Y248819D01*
X282679Y248031D02*
X281104D01*
X281891D01*
Y252754D01*
X282679Y251967D01*
X278743Y252754D02*
X275594D01*
Y251967D01*
X278743Y248819D01*
Y248031D01*
X589371Y251967D02*
X590158Y252754D01*
X591733D01*
X592520Y251967D01*
Y248819D01*
X591733Y248031D01*
X590158D01*
X589371Y248819D01*
X587797Y248031D02*
X586223D01*
X587010D01*
Y252754D01*
X587797Y251967D01*
X580713Y252754D02*
X582287Y251967D01*
X583861Y250393D01*
Y248819D01*
X583074Y248031D01*
X581500D01*
X580713Y248819D01*
Y249606D01*
X581500Y250393D01*
X583861D01*
X504920Y218700D02*
X505707Y217913D01*
Y216338D01*
X504920Y215551D01*
X501771D01*
X500984Y216338D01*
Y217913D01*
X501771Y218700D01*
X500984Y220274D02*
Y221848D01*
Y221061D01*
X505707D01*
X504920Y220274D01*
X505707Y227358D02*
Y224210D01*
X503346D01*
X504133Y225784D01*
Y226571D01*
X503346Y227358D01*
X501771D01*
X500984Y226571D01*
Y224997D01*
X501771Y224210D01*
X504920Y251180D02*
X505707Y250393D01*
Y248819D01*
X504920Y248031D01*
X501771D01*
X500984Y248819D01*
Y250393D01*
X501771Y251180D01*
X500984Y252754D02*
Y254329D01*
Y253541D01*
X505707D01*
X504920Y252754D01*
Y256690D02*
X505707Y257477D01*
Y259052D01*
X504920Y259839D01*
X504133D01*
X503346Y259052D01*
Y258264D01*
Y259052D01*
X502559Y259839D01*
X501771D01*
X500984Y259052D01*
Y257477D01*
X501771Y256690D01*
X510631Y286416D02*
X511418Y287203D01*
X512992D01*
X513779Y286416D01*
Y283267D01*
X512992Y282480D01*
X511418D01*
X510631Y283267D01*
X509057Y282480D02*
X507482D01*
X508270D01*
Y287203D01*
X509057Y286416D01*
X505121Y282480D02*
X503547D01*
X504334D01*
Y287203D01*
X505121Y286416D01*
X535237Y226377D02*
X536024Y227164D01*
X537599D01*
X538386Y226377D01*
Y223228D01*
X537599Y222441D01*
X536024D01*
X535237Y223228D01*
X533663D02*
X532876Y222441D01*
X531301D01*
X530514Y223228D01*
Y226377D01*
X531301Y227164D01*
X532876D01*
X533663Y226377D01*
Y225589D01*
X532876Y224802D01*
X530514D01*
X313780Y230314D02*
X314568Y231101D01*
X316142D01*
X316929Y230314D01*
Y227165D01*
X316142Y226378D01*
X314568D01*
X313780Y227165D01*
X312206Y230314D02*
X311419Y231101D01*
X309845D01*
X309058Y230314D01*
Y229526D01*
X309845Y228739D01*
X309058Y227952D01*
Y227165D01*
X309845Y226378D01*
X311419D01*
X312206Y227165D01*
Y227952D01*
X311419Y228739D01*
X312206Y229526D01*
Y230314D01*
X311419Y228739D02*
X309845D01*
X553938Y226377D02*
X554725Y227164D01*
X556299D01*
X557087Y226377D01*
Y223228D01*
X556299Y222441D01*
X554725D01*
X553938Y223228D01*
X552364Y227164D02*
X549215D01*
Y226377D01*
X552364Y223228D01*
Y222441D01*
X284253Y262794D02*
X285040Y263581D01*
X286614D01*
X287402Y262794D01*
Y259645D01*
X286614Y258858D01*
X285040D01*
X284253Y259645D01*
X279530Y263581D02*
X281104Y262794D01*
X282679Y261220D01*
Y259645D01*
X281891Y258858D01*
X280317D01*
X279530Y259645D01*
Y260433D01*
X280317Y261220D01*
X282679D01*
X585434Y261810D02*
X586221Y262597D01*
X587795D01*
X588583Y261810D01*
Y258661D01*
X587795Y257874D01*
X586221D01*
X585434Y258661D01*
X580711Y262597D02*
X583860D01*
Y260236D01*
X582285Y261023D01*
X581498D01*
X580711Y260236D01*
Y258661D01*
X581498Y257874D01*
X583073D01*
X583860Y258661D01*
X284253Y269684D02*
X285040Y270471D01*
X286614D01*
X287402Y269684D01*
Y266535D01*
X286614Y265748D01*
X285040D01*
X284253Y266535D01*
X280317Y265748D02*
Y270471D01*
X282679Y268109D01*
X279530D01*
X585434Y270668D02*
X586221Y271455D01*
X587795D01*
X588583Y270668D01*
Y267519D01*
X587795Y266732D01*
X586221D01*
X585434Y267519D01*
X583860Y270668D02*
X583073Y271455D01*
X581498D01*
X580711Y270668D01*
Y269881D01*
X581498Y269094D01*
X582285D01*
X581498D01*
X580711Y268307D01*
Y267519D01*
X581498Y266732D01*
X583073D01*
X583860Y267519D01*
X284253Y278542D02*
X285040Y279329D01*
X286614D01*
X287402Y278542D01*
Y275393D01*
X286614Y274606D01*
X285040D01*
X284253Y275393D01*
X279530Y274606D02*
X282679D01*
X279530Y277755D01*
Y278542D01*
X280317Y279329D01*
X281891D01*
X282679Y278542D01*
X583466D02*
X584253Y279329D01*
X585827D01*
X586614Y278542D01*
Y275393D01*
X585827Y274606D01*
X584253D01*
X583466Y275393D01*
X581891Y274606D02*
X580317D01*
X581104D01*
Y279329D01*
X581891Y278542D01*
X521654Y269685D02*
X526376D01*
Y272046D01*
X525589Y272834D01*
X524015D01*
X523228Y272046D01*
Y269685D01*
Y271259D02*
X521654Y272834D01*
Y276769D02*
X526376D01*
X524015Y274408D01*
Y277556D01*
X570866Y244094D02*
Y248817D01*
X568505D01*
X567718Y248030D01*
Y246456D01*
X568505Y245669D01*
X570866D01*
X569292D02*
X567718Y244094D01*
X562995Y248817D02*
X564569Y248030D01*
X566143Y246456D01*
Y244882D01*
X565356Y244094D01*
X563782D01*
X562995Y244882D01*
Y245669D01*
X563782Y246456D01*
X566143D01*
X497047Y424213D02*
X501770D01*
Y426574D01*
X500983Y427361D01*
X499409D01*
X498622Y426574D01*
Y424213D01*
Y425787D02*
X497047Y427361D01*
X501770Y432084D02*
X500983Y430510D01*
X499409Y428935D01*
X497834D01*
X497047Y429723D01*
Y431297D01*
X497834Y432084D01*
X498622D01*
X499409Y431297D01*
Y428935D01*
X501770Y436807D02*
X500983Y435233D01*
X499409Y433658D01*
X497834D01*
X497047Y434445D01*
Y436020D01*
X497834Y436807D01*
X498622D01*
X499409Y436020D01*
Y433658D01*
X554134Y376969D02*
Y381691D01*
X551772D01*
X550985Y380904D01*
Y379330D01*
X551772Y378543D01*
X554134D01*
X552560D02*
X550985Y376969D01*
X546262Y381691D02*
X547837Y380904D01*
X549411Y379330D01*
Y377756D01*
X548624Y376969D01*
X547050D01*
X546262Y377756D01*
Y378543D01*
X547050Y379330D01*
X549411D01*
X544688Y381691D02*
X541539D01*
Y380904D01*
X544688Y377756D01*
Y376969D01*
X450787Y456693D02*
X455510D01*
Y459054D01*
X454723Y459841D01*
X453149D01*
X452362Y459054D01*
Y456693D01*
Y458267D02*
X450787Y459841D01*
X454723Y461416D02*
X455510Y462203D01*
Y463777D01*
X454723Y464564D01*
X453936D01*
X453149Y463777D01*
X452362Y464564D01*
X451575D01*
X450787Y463777D01*
Y462203D01*
X451575Y461416D01*
X452362D01*
X453149Y462203D01*
X453936Y461416D01*
X454723D01*
X453149Y462203D02*
Y463777D01*
X454723Y466139D02*
X455510Y466926D01*
Y468500D01*
X454723Y469287D01*
X451575D01*
X450787Y468500D01*
Y466926D01*
X451575Y466139D01*
X454723D01*
X405512Y415156D02*
Y410433D01*
X402363D01*
X397640D02*
X400789D01*
X397640Y413582D01*
Y414369D01*
X398428Y415156D01*
X400002D01*
X400789Y414369D01*
X392917Y415156D02*
X396066D01*
Y412794D01*
X394492Y413582D01*
X393705D01*
X392917Y412794D01*
Y411220D01*
X393705Y410433D01*
X395279D01*
X396066Y411220D01*
D57*
X341339Y226968D02*
G03*
X341339Y226968I-197J0D01*
G01*
X361909Y148474D02*
G03*
X361909Y148474I-197J0D01*
G01*
X487894Y148474D02*
G03*
X487894Y148474I-197J0D01*
G01*
D73*
X584842Y391732D02*
G03*
X584842Y391732I-787J0D01*
G01*
D97*
X405512Y401667D02*
Y395669D01*
X401513D01*
X395515D02*
X399514D01*
X395515Y399668D01*
Y400668D01*
X396515Y401667D01*
X398514D01*
X399514Y400668D01*
X389517Y401667D02*
X391516Y400668D01*
X393516Y398668D01*
Y396669D01*
X392516Y395669D01*
X390517D01*
X389517Y396669D01*
Y397669D01*
X390517Y398668D01*
X393516D01*
M02*
