M48
;Layer_Color=9474304
;FILE_FORMAT=4:4
METRIC,LZ
;TYPE=PLATED
T1F00S00C0.2000
T2F00S00C0.2500
T3F00S00C0.3000
T4F00S00C0.4000
T5F00S00C0.8000
T6F00S00C0.9000
T7F00S00C1.0000
T8F00S00C1.5000
T9F00S00C1.7000
T10F00S00C2.0000
T11F00S00C3.3000
%
T01
X00582Y003915
X00593
X00888499Y00389999
X00894999Y00383499
X00901499Y00389999
X00894999Y00396499
X012085Y0039
X012215
X01215Y003965
Y003835
X01335Y00435
X013375Y004525
X01347001Y00583
X01395Y00583
X014275Y005975
Y006075
X014325Y006125
Y006025
X014375Y006075
X014425Y006125
X014475Y006075
X014425Y006025
X014375Y005975
X014475
Y006175
X014375
X014275
X01424001Y00638
Y00646
Y00654
Y00663
Y00678
Y00686
Y00695
Y00703
X01413Y00704
Y00712
X01403Y00716
X01395
Y00708
X01387
X01385Y00714
Y00725
X01381001Y00732
X01378Y0074
X01367Y00744
X01363001Y00756
X01347001
X01339001
X01339001Y0074
Y00732
X01337Y00719
Y00713
X01347001Y007
Y00692
X01355001
Y007
X01367Y00702
X01363001Y00708
Y00716
X01371001Y00722
X01355001Y00724
X01355Y00732
X01355001Y0074
X01387Y00748
X01395001Y00748
X01411001Y00748
Y00756
Y00764
X01397Y00767
X01385
X01381001Y0076
X01395Y00732
X01403Y00732
X01411001Y00732
Y0074
Y00724
X01395
Y00692
X01395Y00684
X01395Y00676
X01411001
Y0066
Y00652
Y00644
X01403Y00644
Y00652
X01395Y0066
X01384001Y00663
X01382Y00656
Y0067
Y0068
X01372Y00679
X01368Y00672
X01363001Y00668
X01368Y00657
X01368066Y00647066
X01363001Y00644
X01347001Y00636
X01339001
X01332Y00635
X01339001Y00652
X01347001
X01355Y0066
X01355Y00676
X01347001Y00676
X01339001
Y00692
X01363001Y00684
X01387Y00692
X01403Y00684
X01411001Y00692
X01403Y00668
X0144Y00671
Y00683
X01465Y006725
X01473Y00662
X01473Y00686001
X01473Y00698
X014735Y006375
X01411001Y00636
X01395
X01382Y00636
X01387Y00644
X01338Y00659
X01329001Y00661502
X0129Y00645001
X01293Y00705
X01286Y00705
X01258Y00704873
Y00694873
Y00789
X01283Y0058
X0146Y005
X014725Y00505
X00882Y00569
X00876
X00852Y00565999
X00842
Y00555999
X00852
X008425Y00585
X0082Y00567
X00812
X00804
X00807Y00636
X00799Y00636
X00797Y00656
X00807Y00652
X00815Y00652
Y00644
X00823Y00636
X00829Y00648
X00824Y00656
X00815Y0066
X00807Y00668
X00799
X00807Y00684
X00807Y00692
X00815
X00824Y00688
X00829Y0068
X00824Y00672
X00815Y00676
X00834Y00664
X00846
X00841Y00656
X00855Y00652
X00847Y00644
X00847Y00636
X00855
X00863Y00644
X00878Y00644
X00871Y00636
Y00652
Y00668
X00863Y00668
X00863Y00676
X00871Y00676
Y007
X00863Y00692
X00855
X00846Y00693
X00841Y00688
X00846Y0068
X00855Y00668
X00902Y00669
X00917Y00668
X0092Y0069
X00935Y006375
X0095Y00735
X009525Y00755
X00945Y0078
X00871Y00764
Y00756
X00863Y00748
X00855Y00748
X00846Y00752
Y00744
X00846Y00736
X00847Y00724
X00847Y00716
X0084Y00716
X00831
X00828Y00723
X00825Y0073
Y00736
X00825Y00744
X00825Y00752
X00815Y00748
X00815Y00756
X00807
X00799
X00797Y00744
Y00736
Y00728
Y0072
Y00712
X00795Y00704
X00815Y00708
X00815Y00716
X00807Y00716
Y00732
X00815Y00732
X00815Y00764
X00823
X00847Y00764
X00855Y00764
X00863Y00732
X00873Y00728
X00871Y00716
X00855Y00716
X00855Y00724
X00881Y00734
X00829Y00696
X00735Y006975
X00735001Y00685
X00735Y006625
X00735Y006375
X0076Y0062
Y0061
X00765Y00605
Y00615
X0077Y0061
X00775Y00605
X0078Y0061
X00775Y00615
X0078Y0062
X0077
Y006
X0078
X0076
X00753Y00548
X00742
Y00537
X00753
X0071Y005675
X00705Y005725
X0071Y005775
X007
Y005675
X005925Y006325
X00585
Y0064
Y00625
X005775Y006325
X00552Y00699
Y0071
X00541
X0053
Y00699
X00541
X00519
X00508
Y0071
X00519
Y00721
X00508
Y00732
X00519
Y00743
X00508
X0053
X00541
Y00732
X0053
Y00721
X00541
X00552
Y00732
Y00743
X00582Y004135
X00593
Y004025
X00582
X006325Y009025
X006435Y00967
X00639Y009925
X00642Y01007
X00642Y0102
X00592Y01035
X00737Y01033
X00748
X00759
X0077
X00781
X00792
Y01022
X00781
X0077
X00759
X00748
X00737
Y01011
Y01
X00748
Y01011
X00759
Y01
X0077
Y01011
X00781
Y01
X00792
Y01011
Y00989
Y00978
X00781
Y00989
X0077
Y00978
X00759
Y00989
X00748
Y00978
X00737
Y00989
Y00967
X00748
X00759
X0077
X00781
X00792
X0076Y0094
X007525Y009375
X00718Y00956
X00711
X00741Y01053
X00749
X007775Y0106
X00781743Y01064243
X00812Y01051
X00821Y01042
X00803Y01033
Y01022
Y01011
Y01
Y00989
Y00978
Y00967
X00823Y00986
Y00994
Y01006
Y01014
X00833Y0100325
Y0099725
X00823Y00876
X008478Y00876
X008825Y008725
X008738Y00854
Y008032
X00823
X00797Y008252
Y00854
X0093Y008725
X010995Y010745
X011105
Y010855
X010995
X012248Y01127
X012468Y01153
Y011778
X01196
X01277751Y011465
X01270751Y011385
X01277751Y011305
X01270751Y011225
X0127775Y01106499
X0127075Y010985
X0127775Y010905
X0127075Y010825
X0127775Y010665
X0127075Y010585
X0127775Y010505
X0127075Y010425
X01277751Y010265
X01270751Y010185
X01277751Y010105
X01270751Y010025
X0131225Y010025
X0131925Y010105
X0131375Y010185
X0131925Y010265
X0131225Y010425
X0131925Y010505
X0131425Y010585
X0131925Y010665
X0131225Y010825
X0131925Y010905
X0131675Y011
X0132125Y0110425
X0134129Y0110046
Y0109246
Y0108446
Y0107646
Y0106846
Y0106046
Y0105246
X0134329Y0103246
X0136329Y0103046
X0137129
X0137929
X0138729
X0138329Y0104846
X0137529
Y0105646
X0136729
Y0106446
X0135929
Y0105646
Y0104846
X0136729
X0138329Y0105646
Y0106446
X0137529Y0106446
Y0107246
X0136729
X0135929
X0135929Y0108846
X0136729
Y0109646
X0135929
Y0110446
X0136729
X0137529
Y0109646
Y0108846
X0138329Y0108846
X0138329Y0109646
X0139129Y0109646
X0140729Y0109646
Y0108846
X0141529
X0142329
Y0109646
Y0110446
X0141529
X0140729
Y0111246
X0139929
X0140729Y0112046
X0142329
Y0111246
X0143129
Y0112046
X014125Y011325
X0142Y011525
X01385Y01135
X0138729Y0112246
X0137929
X0137129
X0134329Y0112046
X0134129Y0110846
X0135129Y0110446
Y0109646
X0138329Y0108046
X0138329Y0107246
X0139929Y0107246
X0139929Y0106446
Y0105646
X0139929Y0104846
X0140729
Y0104046
X0139929
X0141529Y0104846
Y0105646
Y0106446
X0142329
X0143129
Y0105646
X0142329
Y0104846
Y0104046
X0141529Y0103246
X01411Y01016
X01412Y01
X014025Y0100225
X013945Y0100925
X013865Y0100225
X013785Y0100925
X013625Y0100225
X013545Y0100925
X013465Y0100225
X013385Y0100925
X013385Y00967751
X013465Y00960751
X013545Y00967751
X013625Y00960751
X013785Y0096775
X013865Y00960751
X013945Y0096775
X014025Y00960751
X0141Y0094
X014125Y00925
X014175Y0092
X014225Y009925
X0143Y009875
X01433Y01017
X0147Y010225
X01465Y01035
X014825Y0104
X0149Y01025
X014975Y010625
X014675Y01065
Y010575
X0142329Y0107246
X0141529
X0143329Y0108846
X0131925Y011305
X0131425Y0113825
X0131925Y011465
X013225Y011625
X013105Y011225
X0131Y00815
X0128Y0081
X01174Y012038
T02
X01195Y00579999
Y00589999
X01205
X01215
X01225
Y00599999
Y0061
X01205
Y006
Y00579999
X01215
X01225
X01235
Y00589999
Y006
X01255Y0061
Y0063
X01245Y0064
Y0065
X01255
X01254892Y00660108
X01255Y0067
X01235
X01225
Y0068
X01215
X01205
X01195Y0068
X01215Y0069
X01224997Y00689999
X012345Y0069
X01235Y007
X01225
X01215
Y0071
Y0072
X01205
Y0071
X01225
Y0072
X01235
Y0071
X01258Y00715
X01255Y0074
Y00749999
X01245Y0075
X01235
Y00759999
X01225Y0076
X01225Y0075
Y0074
X01235
X01245
Y0077
X01255
X012625Y00775
X01245Y0079
X01225Y0078
X01205Y0077
Y0075
X01195
Y0074
X01205
X01215Y00739999
X01195Y00779999
X01195Y0079
X01205Y00789999
X01205Y0066
Y0065
X01225
X01225Y0066
X01215
X01235
X01245
X01235Y0068
X01235Y0063
X01205
X01195
Y0064
Y0062
X01205
X01215
X01255Y00589999
X01185
X01175
X01165001
X01155001
X01145001
X01135001
X01125001
X01115001
Y00579999
X01125001
X01135001
X01145001
X01155001
X01165001
X01175
X01185
Y006
Y0061
Y0062
X01175
X01165001
Y0063
X01155001
X01145001
X01135001
Y0064
Y0065
X01135Y0066
X01145001Y0066
X01155001
Y0065
X01155001Y0064
X01165Y0064
X01175
X01185Y0064
Y0065
Y0067
Y0068
X01175
X01165001Y0069
X01165001Y00709999
X01155001Y0071
Y007
Y0072
Y0074
Y0075
X01165001
Y0076
Y0077
X01155001
Y0076
X01135Y00759999
Y00749999
Y00739999
Y0073
Y0072
X01125
X01115
X01105
X01095
Y0071
X01085
Y007
X01095
X01105
Y0071
X01115
X01125
X01135
Y007
X01125
X01115
X01115001Y0069
X01125001Y0067
X01115001Y0065
X01105001Y0065
X01105Y0064
X01095001Y0064
X01095Y0065
X01085
X01085Y0066
X01095
X01105Y0066
X01085Y0068
X01065001Y0067
X01065Y0066
Y0065
X01055
X01055Y0064
X01055Y0063
X01065
X01075
Y0062
X01065
X01055
X01045
X01045Y0063
X01035Y0063
Y0065
X01025
Y0064
X01015Y0063
X00995
X00995Y0062
X00985
X01005
Y0064
X00985Y0065
X00975Y0065
X00975Y0064
Y0063
X00965Y0062
X00975Y0061
Y006
Y00589999
Y00579999
X00985
Y00589999
X01005
Y00579999
X01025
Y00589999
X01045
X01055
X01065
X01075
Y00579999
X01065
X01055
X01045
X01035Y006
Y0061
X01025Y0062
X01015Y0061
Y006
X01005
X00995Y0061
X00965Y00589999
Y00579999
Y0065
Y0066
Y0067
Y0068
Y0069
X00955
X0095Y00685
X0095Y00655
X0095375Y00645
X00985Y0066
X00985Y0067
X00995Y0067
X01005Y0067
Y0068
Y0069
X01015Y0069
X01025
X01035
X01055Y0069
X01045Y0068
X01045Y0066
Y0065
X01015Y0066
Y0068
X01025
X01015Y007
X01015Y0071
X01025Y0071
X01035Y0072
X01035Y0073
X01025Y0073
X01015Y0073
X01015Y0074
X01005Y00739999
Y00749999
X00995Y0075
X00995Y00739999
Y0073
Y0072
X00985
Y0071
X00995Y0071
X00975
X00975Y007
X00985
Y0069
Y0068
X00975
Y0067
X00975Y0072
X00975Y0073
X00975Y0074
X00985Y0074
X00985Y0076
X00995Y0077
Y0078
X01005
Y0079
X01015
Y0077
Y0076
X01025
Y00769999
X01025Y0078
X01035
X01045Y0078
X01045Y0077
X01045Y0075
X01055Y0075
Y0074
X01045Y0074
X01035Y0074
X01055Y0073
X01075Y0073
X01075Y0074
Y00749999
X01085Y0075
Y0074
X01095
Y0075
Y0076
X01085
Y0077
X01075
X01075Y0076
X01065
Y00769999
X01095001Y0077
X01105001
X01115001
X01125001
X01135001
X01135Y0078
X01125
X01115
X01105
Y0076
X01115
X01125Y0076
X01125Y0075
Y0074
X01115
X01105
Y0075
X01115
X01095001Y0073
X01085Y0073
X01085001Y0072
X01075Y0072
Y0071
X01065Y0071
X01075Y007
X01045Y0071
X01005Y0072
X00965
X00965Y0073
X009525Y00745
X00955Y0078
X00975
X00985Y0079
X01085
X01145001
X01155Y0079
X01165001Y0079
X01175Y0078
X01185
X01185Y00789999
X01185Y0076
Y0075
X01165001Y0074
X01175Y0073
X01175Y0072
X01185
X01185Y007
Y0069
X01165Y0067
X01145001Y0068
X01125001Y0064
Y0063
X01115001
Y0062
X01125001
X01135001
X01145001
X01155001
X01155Y0061
X01145001
Y006
X01155
X01115
Y0061
X01105001Y0062
X01095Y0063
X01085
Y0062
Y0061
X01095
Y006
X01085001
X01085Y00589999
Y00579999
X01095
X01105001Y00589999
X01055Y006
Y0061
X01075Y0064
X01075Y008
X01075Y0081
X01085
Y0082
X01095
X01085001Y00839999
X01075Y00839999
X01065Y0084
X01065Y00849999
Y0086
X01055
X01045
X01035
X01025
Y0085
X01035Y0084
Y0083
X01045
Y00839999
X01055Y0084
Y0085
X01045
Y0087
X01055
X01075Y0087
X01075Y0086
X01085Y00859999
X01105001Y0086
X01115Y0086
X01115001Y0085
X01125001
Y0084
Y0083
Y0082
X01135001Y00819999
Y0081
X01145001
X01165
X01165001Y008
X01175
X01185
Y0081
X01185Y0082
X01185Y0083
X01175
X01165001
Y0084
Y0085
X01155001
X01145001
Y0084
Y0083
X01155001
Y0082
X01175Y0082
X01175Y0084
X01185
Y0085
Y0086
X01185Y0087
X0117Y00882
X01155001Y0087
X01165001Y0086
X01135001
Y0085
Y00829999
X01115001
X01115Y0084
X01115001Y0087
X01125
X0112Y00882
X0111Y008825
X01075Y0088
X010375Y008875
X0102Y00882
X01015Y0086
X01005
X00995Y0085
X00985
Y0084
X00975
Y0086
X00985
Y0087
X00995
X0097Y00882
X00965Y0085
X00955
Y0084
Y0082
Y0081
Y008
X00965
X00975
Y0081
X00975Y00819999
X00995Y0082
X00995Y0081
X01005Y0081
Y008
X00995Y008
X01025Y008
X01035Y008
X01045Y00799999
X01055Y008
X01045Y00809999
X01045Y0082
X01055Y00819999
X01055Y00829999
X01065Y0083
X01065Y0082
X01015
Y0083
X01005Y00839999
X0091Y008675
X009
X00905Y008725
X009Y008775
X0091
X01115001Y00809999
Y008
X01155001Y00799999
Y0084
X01195
X01195Y0083
X01195Y0082
X01205Y0082
X01205Y0081
X01195Y00809999
Y00799999
X01225Y0081
Y0083
X01215
X01205Y0083
X01205Y0084
X01215
X01215Y0085
X01215Y0086
X01225Y0086
X01205
X01205Y0087
X0122Y00882
X01225Y0084
X01235
X01245Y0082
X01257Y00815
X01245Y008
X01257Y00855
Y00865001
X01195Y0085
T03
X004195Y00396001
X00535Y003725
X00545Y003775
Y00365
X00735001Y00355
X0075
X0079Y003875
X00882499Y00362499
X00889999
Y00354999
X00882499
X00904999
X00912499
Y00362499
X00904999
X009275Y00355
X009425
X009775
Y00395
X0096Y003825
X00945Y00395
X00935
X00925
X010525Y00355
X010675
X0111Y003875
X012025Y003625
X0121
Y00355
X012025
X01225
Y003625
X012325
Y00355
X012475
X01262499
X01295
Y00395
X0128Y003825
X01265Y00395
X01255
X01245
X0135Y003525
X0136
X013025Y004377
X012875
X012625
X01247501
X012475Y004223
X01262499
X01235Y0043
X0121Y0052
X013225Y005775
X013125Y006125
X01475Y00594999
X014825Y00585
X01475Y00575
X01495Y0058
X015025Y00575
X0151Y005675
X01495Y0046
X0149Y00425
X0148Y00415
X0145Y0046
Y00714
X014975Y0078
X015075
X0119Y0052
X0117
X0115
X0113
X0111
X0109
X011175Y004475
X01145Y0043
X011525
X0116
X011675
X01135Y0041
X010675Y004223
X010525
X010525Y004377
X010675
X010275
X010125
X00985Y004352
X0097
X00942499
X009425Y004223
X009275
X009275Y004352
X00886Y00419
X00847499Y00429999
X00839999
X00832499
X00824999
X00815Y0041
X007975Y00445
X008Y0049
X008115Y00516
X008335Y00516
X0087Y0049
X009175
X009525
X0096
X00945Y00535
X009325Y00525
X0091Y00525
X008875
X0089Y005825
X00871Y00577
X0093Y005825
X007325Y00600001
X00725001Y0061
X007325Y0062
X00689999Y005975
X0068Y00605
X0067Y005975
X0066
X0065Y00605
X00640001Y005975
X005575Y006475
X005425
X0055Y006775
X0053Y006725
X005225Y006675
X0051Y006775
X004975
X0049Y006825
X00485Y0069
X00482184Y00709684
X00485Y00725
X004875Y00735
Y0075
X005Y00765
X00525
X00535
X0056
X00574Y00751
Y00736
X00585Y0074
X00595Y00745
Y0076
X0061
Y00745
X0062Y0074
Y0072
X00585
X00575Y007125
X005825Y00705
X005775Y006975
X00575Y006875
X0049Y006675
X004725Y0062
X005225Y0062
X005205Y00519999
X00527999Y0051
X005205Y005
X00515Y0048
X0054Y004275
X00545Y004175
Y004025
X006275
Y00415
X006375Y0041
X00635Y004275
X006925Y004377
X007075
X00735
X0075
X0075Y004223
X00735001
X00725Y0049
X007175
X0076
X00665Y0048
X004195Y00416
X00412Y00406
X00425Y00585
Y006075
X004175Y00665
X003975
X004375Y007175
X004375Y0074
X004616Y008215
X00465Y0094
X004616Y010985
X005516Y0111
X006525Y01085
X006625Y0109
X006725Y01085
X006825Y010925
X006925Y01095
X007025Y010925
Y010575
X006925Y01055
X006825Y010575
X00672499Y01065
X00662499Y0106
X00652499Y01065
X007125Y010275
X00715Y00975
X007725Y00945
Y01055
X0079Y010675
Y010925
X00795Y0106
X0081Y009475
X008225Y0096
X008475
X0109Y009975
X011275Y010575
X01135Y01065
Y01075
X011425Y0108
Y0107
X01145Y011
X01155Y010975
X01165Y011
Y01135001
X01155Y01137501
X01145Y01135001
X011375Y0111
X010725Y01125
X014Y011725
X014375Y01175
X014575
X014775
X014975Y01175
X015175Y01175
X015375Y01175
X014425Y01
Y009
X013875Y00885
X0138Y008775
X013725Y0087
X01365Y008625
X014975Y00795
X01467Y01197
X014375Y012025
X013325Y012025
T04
X006375Y0032
X006625
X0063Y003725
X013575Y0032
X013825
X0158Y003575
Y003825
X016005Y00601
Y00651
X016005Y00676
X016005Y00726
X015605Y00726
X015243
X01484301Y00726
X01484301Y00676
Y00651
X015243Y00651
X015243Y00676
X01560501Y00676
X01560501Y00651
X015605Y00601
X015243
X014843Y00601
X01355Y00525
X008125Y0058
X006025Y00445
X0055525Y0045025
X004Y004625
Y004375
X004Y011375
Y011625
X0107Y010125
X0108Y010125
X014175Y0097
X014825Y00974425
Y0098385
X014775Y00892499
Y008575
X01522501
Y00892499
X0158Y009675
Y009925
X013025Y012
X012775
X006625Y012
X006375
T05
X013606Y01185
X014094
X015329Y011227
Y011052
Y010802
Y010552
Y010377
T06
X0139Y004134
Y004388
X014154
Y004642
X0139
Y004896
Y00515
X014154Y00515
X014154Y004896
Y004134
X0155Y004134
Y004388
X015754
Y004642
X0155
Y004896
Y00515
X015754Y00515
X015754Y004896
Y004134
X0158Y007846
Y0081
Y008354
T07
X0036Y0033
Y0037
X0041Y0033
Y0028
X0045
X0049
X0053
X0057
X0061
X0065
X0069
X0073
X0077
X0081
X0085
X0089
X0093
X0097
X0101
X0105
X0109
X0113
X0117
X0121
X0125
X0129
X0133
X0137
X0141
X0145
X0149
X0153
X0157
Y0033
X0162
Y0037
Y0041
Y0045
Y0049
Y0053
Y0057
Y0061
Y0065
Y0069
Y0073
Y0077
X0036
Y0073
Y0069
Y0065
Y0061
Y0057
Y0045
Y0041
Y0091
Y0095
Y0099
Y0115
Y0119
X0041
X0157
X015779Y010927
X015579
Y010677
X015779
X0162Y0098
Y0085
Y0081
Y0119
X0157Y0124
X0153
X0149
X0145
X0141
X0137
X0133
X0129
X0125
X0121
X0117
X0113
X0109
X0105
X0101
X0097
X0093
X0089
X0085
X0081
X0077
X0073
X0069
X0065
X0061
X0057
X0053
X0049
X0045
X0041
T08
X003954Y005046
Y008546
Y010646
X015846Y009146
T09
X004208Y004792
X004208Y0053
X0037
Y004792
Y008292
Y0088
Y010392
Y0109
X004208
X004208Y010392
Y0088
X004208Y008292
X015592Y008892
Y0094
X0161
Y008892
T10
X016Y0102
Y011404
T11
X0037Y0029
X0161
Y0123
X0037
M30
