%FSLAX25Y25*%
%MOIN*%
G70*
G01*
G75*
G04 Layer_Color=8388736*
%ADD10C,0.00591*%
%ADD11C,0.00591*%
%ADD12C,0.00492*%
%ADD13R,0.03347X0.05118*%
%ADD14R,0.04528X0.05709*%
%ADD15R,0.12598X0.16929*%
%ADD16R,0.03150X0.01575*%
%ADD17R,0.01575X0.03150*%
%ADD18R,0.05709X0.04528*%
%ADD19R,0.03543X0.02756*%
G04:AMPARAMS|DCode=20|XSize=23.62mil|YSize=23.62mil|CornerRadius=2.95mil|HoleSize=0mil|Usage=FLASHONLY|Rotation=90.000|XOffset=0mil|YOffset=0mil|HoleType=Round|Shape=RoundedRectangle|*
%AMROUNDEDRECTD20*
21,1,0.02362,0.01772,0,0,90.0*
21,1,0.01772,0.02362,0,0,90.0*
1,1,0.00591,0.00886,0.00886*
1,1,0.00591,0.00886,-0.00886*
1,1,0.00591,-0.00886,-0.00886*
1,1,0.00591,-0.00886,0.00886*
%
%ADD20ROUNDEDRECTD20*%
%ADD21R,0.02756X0.03543*%
G04:AMPARAMS|DCode=22|XSize=23.62mil|YSize=23.62mil|CornerRadius=2.95mil|HoleSize=0mil|Usage=FLASHONLY|Rotation=180.000|XOffset=0mil|YOffset=0mil|HoleType=Round|Shape=RoundedRectangle|*
%AMROUNDEDRECTD22*
21,1,0.02362,0.01772,0,0,180.0*
21,1,0.01772,0.02362,0,0,180.0*
1,1,0.00591,-0.00886,0.00886*
1,1,0.00591,0.00886,0.00886*
1,1,0.00591,0.00886,-0.00886*
1,1,0.00591,-0.00886,-0.00886*
%
%ADD22ROUNDEDRECTD22*%
%ADD23R,0.05118X0.03347*%
%ADD24R,0.11000X0.08500*%
%ADD25R,0.23622X0.19685*%
%ADD26O,0.06102X0.01378*%
%ADD27R,0.10787X0.12795*%
%ADD28O,0.04134X0.01181*%
%ADD29O,0.01181X0.04134*%
%ADD30R,0.08268X0.08268*%
%ADD31R,0.05906X0.09449*%
%ADD32C,0.03937*%
%ADD33R,0.05512X0.02992*%
%ADD34R,0.12520X0.05000*%
%ADD35R,0.02992X0.05512*%
%ADD36R,0.05000X0.12520*%
%ADD37O,0.00984X0.03150*%
%ADD38O,0.03150X0.00984*%
%ADD39R,0.21654X0.21654*%
%ADD40O,0.00984X0.05709*%
%ADD41R,0.29528X0.29528*%
%ADD42O,0.00984X0.03543*%
%ADD43O,0.03543X0.00984*%
%ADD44C,0.01772*%
%ADD45C,0.01575*%
%ADD46C,0.01969*%
%ADD47R,0.07087X0.08661*%
%ADD48R,0.08661X0.07087*%
%ADD49R,0.14961X0.11024*%
%ADD50R,0.03543X0.03740*%
%ADD51C,0.05906*%
%ADD52C,0.01181*%
%ADD53C,0.00984*%
%ADD54C,0.03937*%
%ADD55C,0.00787*%
%ADD56C,0.00551*%
%ADD57C,0.00394*%
%ADD58P,0.05966X8X22.5*%
%ADD59C,0.05512*%
%ADD60C,0.05906*%
%ADD61C,0.07874*%
%ADD62C,0.09843*%
%ADD63C,0.15748*%
%ADD64C,0.04724*%
%ADD65R,0.07874X0.07874*%
%ADD66R,0.07874X0.07874*%
G04:AMPARAMS|DCode=67|XSize=62.99mil|YSize=62.99mil|CornerRadius=15.75mil|HoleSize=0mil|Usage=FLASHONLY|Rotation=90.000|XOffset=0mil|YOffset=0mil|HoleType=Round|Shape=RoundedRectangle|*
%AMROUNDEDRECTD67*
21,1,0.06299,0.03150,0,0,90.0*
21,1,0.03150,0.06299,0,0,90.0*
1,1,0.03150,0.01575,0.01575*
1,1,0.03150,0.01575,-0.01575*
1,1,0.03150,-0.01575,-0.01575*
1,1,0.03150,-0.01575,0.01575*
%
%ADD67ROUNDEDRECTD67*%
%ADD68C,0.06299*%
%ADD69C,0.02559*%
%ADD70C,0.02953*%
%ADD71C,0.02362*%
%ADD72C,0.02756*%
%ADD73C,0.01575*%
%ADD74C,0.01969*%
%ADD75C,0.08661*%
%ADD76C,0.06693*%
%ADD77C,0.03937*%
%ADD78C,0.03740*%
%ADD79C,0.03543*%
%ADD80C,0.03150*%
%ADD81C,0.04331*%
%ADD82C,0.03347*%
%ADD83C,0.00512*%
%ADD84C,0.00494*%
%ADD85C,0.02756*%
%ADD86C,0.02362*%
%ADD87C,0.09449*%
%ADD88C,0.10630*%
%ADD89R,0.03347X0.01102*%
%ADD90R,0.06496X0.09449*%
%ADD91O,0.08661X0.02362*%
%ADD92O,0.03347X0.01102*%
%ADD93O,0.01102X0.03347*%
%ADD94R,0.08071X0.08071*%
%ADD95O,0.02756X0.09843*%
%ADD96C,0.07874*%
%ADD97C,0.01000*%
%ADD98C,0.00984*%
%ADD99R,0.03740X0.05512*%
%ADD100R,0.04921X0.06102*%
%ADD101R,0.12992X0.17323*%
%ADD102R,0.03543X0.01969*%
%ADD103R,0.01969X0.03543*%
%ADD104R,0.06102X0.04921*%
%ADD105R,0.03937X0.03150*%
G04:AMPARAMS|DCode=106|XSize=27.56mil|YSize=27.56mil|CornerRadius=4.92mil|HoleSize=0mil|Usage=FLASHONLY|Rotation=90.000|XOffset=0mil|YOffset=0mil|HoleType=Round|Shape=RoundedRectangle|*
%AMROUNDEDRECTD106*
21,1,0.02756,0.01772,0,0,90.0*
21,1,0.01772,0.02756,0,0,90.0*
1,1,0.00984,0.00886,0.00886*
1,1,0.00984,0.00886,-0.00886*
1,1,0.00984,-0.00886,-0.00886*
1,1,0.00984,-0.00886,0.00886*
%
%ADD106ROUNDEDRECTD106*%
%ADD107R,0.03150X0.03937*%
G04:AMPARAMS|DCode=108|XSize=27.56mil|YSize=27.56mil|CornerRadius=4.92mil|HoleSize=0mil|Usage=FLASHONLY|Rotation=180.000|XOffset=0mil|YOffset=0mil|HoleType=Round|Shape=RoundedRectangle|*
%AMROUNDEDRECTD108*
21,1,0.02756,0.01772,0,0,180.0*
21,1,0.01772,0.02756,0,0,180.0*
1,1,0.00984,-0.00886,0.00886*
1,1,0.00984,0.00886,0.00886*
1,1,0.00984,0.00886,-0.00886*
1,1,0.00984,-0.00886,-0.00886*
%
%ADD108ROUNDEDRECTD108*%
%ADD109R,0.05512X0.03740*%
%ADD110R,0.11394X0.08894*%
%ADD111R,0.24016X0.20079*%
%ADD112O,0.06496X0.01772*%
%ADD113R,0.11181X0.13189*%
%ADD114O,0.04528X0.01575*%
%ADD115O,0.01575X0.04528*%
%ADD116R,0.08661X0.08661*%
%ADD117R,0.06299X0.09843*%
%ADD118C,0.07874*%
%ADD119R,0.05906X0.03386*%
%ADD120R,0.12913X0.05394*%
%ADD121R,0.03386X0.05906*%
%ADD122R,0.05394X0.12913*%
%ADD123O,0.01378X0.03543*%
%ADD124O,0.03543X0.01378*%
%ADD125R,0.22047X0.22047*%
%ADD126O,0.01378X0.06102*%
%ADD127R,0.29921X0.29921*%
%ADD128O,0.01378X0.03937*%
%ADD129O,0.03937X0.01378*%
%ADD130C,0.02165*%
%ADD131R,0.07480X0.09055*%
%ADD132R,0.09055X0.07480*%
%ADD133R,0.15354X0.11417*%
%ADD134R,0.03937X0.04134*%
%ADD135P,0.06392X8X22.5*%
%ADD136C,0.08268*%
%ADD137C,0.10236*%
%ADD138C,0.16142*%
%ADD139C,0.05118*%
%ADD140C,0.15748*%
%ADD141R,0.08268X0.08268*%
G04:AMPARAMS|DCode=142|XSize=66.93mil|YSize=66.93mil|CornerRadius=17.72mil|HoleSize=0mil|Usage=FLASHONLY|Rotation=90.000|XOffset=0mil|YOffset=0mil|HoleType=Round|Shape=RoundedRectangle|*
%AMROUNDEDRECTD142*
21,1,0.06693,0.03150,0,0,90.0*
21,1,0.03150,0.06693,0,0,90.0*
1,1,0.03543,0.01575,0.01575*
1,1,0.03543,0.01575,-0.01575*
1,1,0.03543,-0.01575,-0.01575*
1,1,0.03543,-0.01575,0.01575*
%
%ADD142ROUNDEDRECTD142*%
%ADD143C,0.01772*%
%ADD144C,0.02165*%
%ADD145C,0.01181*%
D30*
X602362Y110236D02*
D03*
X586614D02*
D03*
X555118D02*
D03*
X570866D02*
D03*
X539370D02*
D03*
X523622D02*
D03*
X492126D02*
D03*
X507874D02*
D03*
X476378D02*
D03*
X460630D02*
D03*
X429134D02*
D03*
X444882D02*
D03*
X413386D02*
D03*
X397638D02*
D03*
X366142D02*
D03*
X381890D02*
D03*
X350394D02*
D03*
X334646D02*
D03*
X303150D02*
D03*
X318898D02*
D03*
X287402D02*
D03*
X271654D02*
D03*
X240157D02*
D03*
X255906D02*
D03*
X224409D02*
D03*
X208661D02*
D03*
X177165D02*
D03*
X192913D02*
D03*
X161417D02*
D03*
X637795Y129921D02*
D03*
Y145669D02*
D03*
Y161417D02*
D03*
Y177165D02*
D03*
X141732Y129921D02*
D03*
X161417D02*
D03*
X141732Y145669D02*
D03*
Y161417D02*
D03*
Y177165D02*
D03*
Y224409D02*
D03*
Y240157D02*
D03*
Y255906D02*
D03*
Y271654D02*
D03*
Y287402D02*
D03*
Y303150D02*
D03*
Y358268D02*
D03*
Y374016D02*
D03*
Y389764D02*
D03*
Y468504D02*
D03*
X161417D02*
D03*
Y488189D02*
D03*
X141732Y452756D02*
D03*
D45*
X553937Y296063D02*
D03*
Y299213D02*
D03*
Y289764D02*
D03*
Y292913D02*
D03*
X550788Y296063D02*
D03*
Y299213D02*
D03*
Y289764D02*
D03*
Y292913D02*
D03*
X553937Y283465D02*
D03*
Y286614D02*
D03*
Y274016D02*
D03*
Y280315D02*
D03*
X550788D02*
D03*
Y286614D02*
D03*
X553937Y277165D02*
D03*
X547638Y296063D02*
D03*
Y299213D02*
D03*
Y289764D02*
D03*
Y292913D02*
D03*
Y286614D02*
D03*
X535040Y292913D02*
D03*
Y283465D02*
D03*
X550788D02*
D03*
X547638D02*
D03*
X550788Y277165D02*
D03*
X547638Y280315D02*
D03*
Y277165D02*
D03*
X553937Y267717D02*
D03*
X550788Y270866D02*
D03*
Y274016D02*
D03*
X553937Y270866D02*
D03*
Y261417D02*
D03*
Y264567D02*
D03*
Y251969D02*
D03*
Y258268D02*
D03*
X550788Y264567D02*
D03*
Y267717D02*
D03*
X553937Y255118D02*
D03*
X547638Y270866D02*
D03*
Y274016D02*
D03*
X550788Y261417D02*
D03*
X547638Y267717D02*
D03*
Y264567D02*
D03*
X535040D02*
D03*
X547638Y261417D02*
D03*
X550788Y258268D02*
D03*
X547638D02*
D03*
X550788Y251969D02*
D03*
Y255118D02*
D03*
X547638D02*
D03*
X535040D02*
D03*
X547638Y251969D02*
D03*
X535040Y296063D02*
D03*
Y299213D02*
D03*
Y289764D02*
D03*
X531890Y292913D02*
D03*
Y296063D02*
D03*
X535040Y280315D02*
D03*
Y286614D02*
D03*
Y277165D02*
D03*
X531890Y274016D02*
D03*
Y280315D02*
D03*
Y289764D02*
D03*
Y277165D02*
D03*
Y299213D02*
D03*
X528740D02*
D03*
Y292913D02*
D03*
Y296063D02*
D03*
Y286614D02*
D03*
Y289764D02*
D03*
X531890Y283465D02*
D03*
Y286614D02*
D03*
X528740Y280315D02*
D03*
Y283465D02*
D03*
Y277165D02*
D03*
X535040Y270866D02*
D03*
Y274016D02*
D03*
Y261417D02*
D03*
Y267717D02*
D03*
X531890Y264567D02*
D03*
Y267717D02*
D03*
X535040Y258268D02*
D03*
X531890Y261417D02*
D03*
X535040Y251969D02*
D03*
X531890Y258268D02*
D03*
Y270866D02*
D03*
X528740Y274016D02*
D03*
Y267717D02*
D03*
Y270866D02*
D03*
Y261417D02*
D03*
Y264567D02*
D03*
X531890Y251969D02*
D03*
Y255118D02*
D03*
X528740D02*
D03*
Y258268D02*
D03*
Y251969D02*
D03*
X316142D02*
D03*
Y258268D02*
D03*
Y255118D02*
D03*
X319291D02*
D03*
Y251969D02*
D03*
X316142Y264567D02*
D03*
Y261417D02*
D03*
Y270866D02*
D03*
Y267717D02*
D03*
Y274016D02*
D03*
X319291Y270866D02*
D03*
Y258268D02*
D03*
X322441Y251969D02*
D03*
X319291Y261417D02*
D03*
X322441Y258268D02*
D03*
X319291Y267717D02*
D03*
Y264567D02*
D03*
X322441Y267717D02*
D03*
Y261417D02*
D03*
Y274016D02*
D03*
Y270866D02*
D03*
X316142Y277165D02*
D03*
Y283465D02*
D03*
Y280315D02*
D03*
X319291Y286614D02*
D03*
Y283465D02*
D03*
X316142Y289764D02*
D03*
Y286614D02*
D03*
Y296063D02*
D03*
Y292913D02*
D03*
Y299213D02*
D03*
X319291D02*
D03*
Y277165D02*
D03*
Y289764D02*
D03*
Y280315D02*
D03*
Y274016D02*
D03*
X322441Y277165D02*
D03*
Y286614D02*
D03*
Y280315D02*
D03*
X319291Y296063D02*
D03*
Y292913D02*
D03*
X322441Y289764D02*
D03*
Y299213D02*
D03*
Y296063D02*
D03*
X335039Y251969D02*
D03*
X322441Y255118D02*
D03*
X335039D02*
D03*
X338189D02*
D03*
Y251969D02*
D03*
X335039Y258268D02*
D03*
X338189D02*
D03*
X335039Y261417D02*
D03*
X322441Y264567D02*
D03*
X335039D02*
D03*
Y267717D02*
D03*
X338189Y261417D02*
D03*
X335039Y274016D02*
D03*
Y270866D02*
D03*
X341339Y255118D02*
D03*
X338189Y267717D02*
D03*
Y264567D02*
D03*
X341339Y258268D02*
D03*
Y251969D02*
D03*
Y264567D02*
D03*
Y261417D02*
D03*
Y270866D02*
D03*
X338189Y274016D02*
D03*
Y270866D02*
D03*
X341339Y267717D02*
D03*
X335039Y277165D02*
D03*
Y280315D02*
D03*
X338189Y277165D02*
D03*
X335039Y283465D02*
D03*
X338189D02*
D03*
X322441D02*
D03*
Y292913D02*
D03*
X335039Y286614D02*
D03*
Y292913D02*
D03*
Y289764D02*
D03*
Y299213D02*
D03*
Y296063D02*
D03*
X341339Y277165D02*
D03*
X338189Y286614D02*
D03*
Y280315D02*
D03*
X341339D02*
D03*
Y274016D02*
D03*
Y286614D02*
D03*
Y283465D02*
D03*
X338189Y292913D02*
D03*
Y289764D02*
D03*
Y299213D02*
D03*
Y296063D02*
D03*
X341339Y292913D02*
D03*
Y289764D02*
D03*
Y299213D02*
D03*
Y296063D02*
D03*
X276575Y430118D02*
D03*
X268701D02*
D03*
X272638Y431102D02*
D03*
X183071Y370079D02*
D03*
X181732Y323425D02*
D03*
X217165Y437008D02*
D03*
X181732Y432480D02*
D03*
X240158Y299213D02*
D03*
Y293307D02*
D03*
X234252Y299213D02*
D03*
Y293307D02*
D03*
X429134Y392717D02*
D03*
D60*
X554882Y466535D02*
D03*
D68*
X622047Y328898D02*
D03*
Y308898D02*
D03*
Y318898D02*
D03*
X621220Y430197D02*
D03*
X613346D02*
D03*
Y420354D02*
D03*
X621220D02*
D03*
D71*
X492126Y340551D02*
D03*
Y336614D02*
D03*
Y332677D02*
D03*
Y328740D02*
D03*
Y324803D02*
D03*
Y320866D02*
D03*
Y316929D02*
D03*
Y312992D02*
D03*
Y309055D02*
D03*
Y305118D02*
D03*
Y301181D02*
D03*
Y297244D02*
D03*
Y293307D02*
D03*
Y289370D02*
D03*
Y285433D02*
D03*
Y281496D02*
D03*
Y277559D02*
D03*
Y273622D02*
D03*
Y269685D02*
D03*
Y265748D02*
D03*
Y261811D02*
D03*
Y257874D02*
D03*
Y253937D02*
D03*
Y250000D02*
D03*
Y246063D02*
D03*
Y242126D02*
D03*
Y238189D02*
D03*
Y234252D02*
D03*
X488189Y344488D02*
D03*
Y340551D02*
D03*
Y336614D02*
D03*
Y332677D02*
D03*
Y328740D02*
D03*
Y324803D02*
D03*
Y320866D02*
D03*
Y316929D02*
D03*
Y312992D02*
D03*
Y309055D02*
D03*
Y305118D02*
D03*
Y301181D02*
D03*
Y297244D02*
D03*
Y293307D02*
D03*
Y289370D02*
D03*
Y285433D02*
D03*
Y281496D02*
D03*
Y277559D02*
D03*
Y273622D02*
D03*
Y269685D02*
D03*
Y265748D02*
D03*
Y261811D02*
D03*
Y257874D02*
D03*
Y253937D02*
D03*
Y250000D02*
D03*
Y246063D02*
D03*
Y242126D02*
D03*
Y238189D02*
D03*
Y234252D02*
D03*
Y230315D02*
D03*
X484252Y344488D02*
D03*
Y340551D02*
D03*
Y336614D02*
D03*
Y332677D02*
D03*
Y328740D02*
D03*
Y324803D02*
D03*
Y320866D02*
D03*
Y316929D02*
D03*
Y312992D02*
D03*
Y309055D02*
D03*
Y305118D02*
D03*
Y301181D02*
D03*
Y297244D02*
D03*
Y293307D02*
D03*
Y289370D02*
D03*
Y285433D02*
D03*
Y281496D02*
D03*
Y277559D02*
D03*
Y273622D02*
D03*
Y269685D02*
D03*
Y265748D02*
D03*
Y261811D02*
D03*
Y257874D02*
D03*
Y253937D02*
D03*
Y250000D02*
D03*
Y246063D02*
D03*
Y242126D02*
D03*
Y238189D02*
D03*
Y234252D02*
D03*
Y230315D02*
D03*
X480315Y344488D02*
D03*
Y340551D02*
D03*
Y336614D02*
D03*
Y332677D02*
D03*
Y328740D02*
D03*
Y324803D02*
D03*
Y320866D02*
D03*
Y316929D02*
D03*
Y312992D02*
D03*
Y309055D02*
D03*
Y305118D02*
D03*
Y301181D02*
D03*
Y297244D02*
D03*
Y293307D02*
D03*
Y289370D02*
D03*
Y285433D02*
D03*
Y281496D02*
D03*
Y277559D02*
D03*
Y273622D02*
D03*
Y269685D02*
D03*
Y265748D02*
D03*
Y261811D02*
D03*
Y257874D02*
D03*
Y253937D02*
D03*
Y250000D02*
D03*
Y246063D02*
D03*
Y242126D02*
D03*
Y238189D02*
D03*
Y234252D02*
D03*
Y230315D02*
D03*
X476378Y344488D02*
D03*
Y340551D02*
D03*
Y336614D02*
D03*
Y332677D02*
D03*
Y328740D02*
D03*
Y324803D02*
D03*
Y320866D02*
D03*
Y316929D02*
D03*
Y312992D02*
D03*
Y309055D02*
D03*
Y305118D02*
D03*
Y301181D02*
D03*
Y297244D02*
D03*
Y293307D02*
D03*
Y289370D02*
D03*
Y285433D02*
D03*
Y281496D02*
D03*
Y277559D02*
D03*
Y273622D02*
D03*
Y269685D02*
D03*
Y265748D02*
D03*
Y261811D02*
D03*
Y257874D02*
D03*
Y253937D02*
D03*
Y250000D02*
D03*
Y246063D02*
D03*
Y242126D02*
D03*
Y238189D02*
D03*
Y234252D02*
D03*
Y230315D02*
D03*
X472441Y344488D02*
D03*
Y340551D02*
D03*
Y336614D02*
D03*
Y332677D02*
D03*
Y328740D02*
D03*
Y324803D02*
D03*
Y320866D02*
D03*
Y316929D02*
D03*
Y312992D02*
D03*
Y309055D02*
D03*
Y305118D02*
D03*
Y301181D02*
D03*
Y297244D02*
D03*
Y293307D02*
D03*
Y289370D02*
D03*
Y285433D02*
D03*
Y281496D02*
D03*
Y277559D02*
D03*
Y273622D02*
D03*
Y269685D02*
D03*
Y265748D02*
D03*
Y261811D02*
D03*
Y257874D02*
D03*
Y253937D02*
D03*
Y250000D02*
D03*
Y246063D02*
D03*
Y242126D02*
D03*
Y238189D02*
D03*
Y234252D02*
D03*
Y230315D02*
D03*
X468504Y344488D02*
D03*
Y340551D02*
D03*
Y336614D02*
D03*
Y332677D02*
D03*
Y328740D02*
D03*
Y324803D02*
D03*
Y320866D02*
D03*
Y316929D02*
D03*
Y312992D02*
D03*
Y309055D02*
D03*
Y305118D02*
D03*
Y301181D02*
D03*
Y297244D02*
D03*
Y293307D02*
D03*
Y289370D02*
D03*
Y285433D02*
D03*
Y281496D02*
D03*
Y277559D02*
D03*
Y273622D02*
D03*
Y269685D02*
D03*
Y265748D02*
D03*
Y261811D02*
D03*
Y257874D02*
D03*
Y253937D02*
D03*
Y250000D02*
D03*
Y246063D02*
D03*
Y242126D02*
D03*
Y238189D02*
D03*
Y234252D02*
D03*
Y230315D02*
D03*
X464567Y344488D02*
D03*
Y340551D02*
D03*
Y336614D02*
D03*
Y332677D02*
D03*
Y328740D02*
D03*
Y324803D02*
D03*
Y320866D02*
D03*
Y316929D02*
D03*
Y312992D02*
D03*
Y309055D02*
D03*
Y305118D02*
D03*
Y301181D02*
D03*
Y297244D02*
D03*
Y293307D02*
D03*
Y289370D02*
D03*
Y285433D02*
D03*
Y281496D02*
D03*
Y277559D02*
D03*
Y273622D02*
D03*
Y269685D02*
D03*
Y265748D02*
D03*
Y261811D02*
D03*
Y257874D02*
D03*
Y253937D02*
D03*
Y250000D02*
D03*
Y246063D02*
D03*
Y242126D02*
D03*
Y238189D02*
D03*
Y234252D02*
D03*
Y230315D02*
D03*
X460630Y344488D02*
D03*
Y340551D02*
D03*
Y336614D02*
D03*
Y332677D02*
D03*
Y328740D02*
D03*
Y324803D02*
D03*
Y320866D02*
D03*
Y316929D02*
D03*
Y312992D02*
D03*
Y309055D02*
D03*
Y305118D02*
D03*
Y301181D02*
D03*
Y297244D02*
D03*
Y293307D02*
D03*
Y289370D02*
D03*
Y285433D02*
D03*
Y281496D02*
D03*
Y277559D02*
D03*
Y273622D02*
D03*
Y269685D02*
D03*
Y265748D02*
D03*
Y261811D02*
D03*
Y257874D02*
D03*
Y253937D02*
D03*
Y250000D02*
D03*
Y246063D02*
D03*
Y242126D02*
D03*
Y238189D02*
D03*
Y234252D02*
D03*
Y230315D02*
D03*
X456693Y344488D02*
D03*
Y340551D02*
D03*
Y336614D02*
D03*
Y332677D02*
D03*
Y328740D02*
D03*
Y324803D02*
D03*
Y320866D02*
D03*
Y316929D02*
D03*
Y312992D02*
D03*
Y309055D02*
D03*
Y305118D02*
D03*
Y301181D02*
D03*
Y297244D02*
D03*
Y293307D02*
D03*
Y289370D02*
D03*
Y285433D02*
D03*
Y281496D02*
D03*
Y277559D02*
D03*
Y273622D02*
D03*
Y269685D02*
D03*
Y265748D02*
D03*
Y261811D02*
D03*
Y257874D02*
D03*
Y253937D02*
D03*
Y250000D02*
D03*
Y246063D02*
D03*
Y242126D02*
D03*
Y238189D02*
D03*
Y234252D02*
D03*
Y230315D02*
D03*
X452756Y344488D02*
D03*
Y340551D02*
D03*
Y336614D02*
D03*
Y332677D02*
D03*
Y328740D02*
D03*
Y324803D02*
D03*
Y320866D02*
D03*
Y316929D02*
D03*
Y312992D02*
D03*
Y309055D02*
D03*
Y305118D02*
D03*
Y301181D02*
D03*
Y297244D02*
D03*
Y293307D02*
D03*
Y289370D02*
D03*
Y285433D02*
D03*
Y281496D02*
D03*
Y277559D02*
D03*
Y273622D02*
D03*
Y269685D02*
D03*
Y265748D02*
D03*
Y261811D02*
D03*
Y257874D02*
D03*
Y253937D02*
D03*
Y250000D02*
D03*
Y246063D02*
D03*
Y242126D02*
D03*
Y238189D02*
D03*
Y234252D02*
D03*
Y230315D02*
D03*
X448819Y344488D02*
D03*
Y340551D02*
D03*
Y336614D02*
D03*
Y332677D02*
D03*
Y328740D02*
D03*
Y324803D02*
D03*
Y320866D02*
D03*
Y316929D02*
D03*
Y312992D02*
D03*
Y309055D02*
D03*
Y305118D02*
D03*
Y301181D02*
D03*
Y297244D02*
D03*
Y293307D02*
D03*
Y289370D02*
D03*
Y285433D02*
D03*
Y281496D02*
D03*
Y277559D02*
D03*
Y273622D02*
D03*
Y269685D02*
D03*
Y265748D02*
D03*
Y261811D02*
D03*
Y257874D02*
D03*
Y253937D02*
D03*
Y250000D02*
D03*
Y246063D02*
D03*
Y242126D02*
D03*
Y238189D02*
D03*
Y234252D02*
D03*
Y230315D02*
D03*
X444882Y344488D02*
D03*
Y340551D02*
D03*
Y336614D02*
D03*
Y332677D02*
D03*
Y328740D02*
D03*
Y324803D02*
D03*
Y320866D02*
D03*
Y316929D02*
D03*
Y312992D02*
D03*
Y309055D02*
D03*
Y305118D02*
D03*
Y301181D02*
D03*
Y297244D02*
D03*
Y293307D02*
D03*
Y289370D02*
D03*
Y285433D02*
D03*
Y281496D02*
D03*
Y277559D02*
D03*
Y273622D02*
D03*
Y269685D02*
D03*
Y265748D02*
D03*
Y261811D02*
D03*
Y257874D02*
D03*
Y253937D02*
D03*
Y250000D02*
D03*
Y246063D02*
D03*
Y242126D02*
D03*
Y238189D02*
D03*
Y234252D02*
D03*
Y230315D02*
D03*
X440945Y344488D02*
D03*
Y340551D02*
D03*
Y336614D02*
D03*
Y332677D02*
D03*
Y328740D02*
D03*
Y324803D02*
D03*
Y320866D02*
D03*
Y316929D02*
D03*
Y312992D02*
D03*
Y309055D02*
D03*
Y305118D02*
D03*
Y301181D02*
D03*
Y297244D02*
D03*
Y293307D02*
D03*
Y289370D02*
D03*
Y285433D02*
D03*
Y281496D02*
D03*
Y277559D02*
D03*
Y273622D02*
D03*
Y269685D02*
D03*
Y265748D02*
D03*
Y261811D02*
D03*
Y257874D02*
D03*
Y253937D02*
D03*
Y250000D02*
D03*
Y246063D02*
D03*
Y242126D02*
D03*
Y238189D02*
D03*
Y234252D02*
D03*
Y230315D02*
D03*
X437008Y344488D02*
D03*
Y340551D02*
D03*
Y336614D02*
D03*
Y332677D02*
D03*
Y328740D02*
D03*
Y324803D02*
D03*
Y320866D02*
D03*
Y316929D02*
D03*
Y312992D02*
D03*
Y309055D02*
D03*
Y305118D02*
D03*
Y301181D02*
D03*
Y297244D02*
D03*
Y293307D02*
D03*
Y289370D02*
D03*
Y285433D02*
D03*
Y281496D02*
D03*
Y277559D02*
D03*
Y273622D02*
D03*
Y269685D02*
D03*
Y265748D02*
D03*
Y261811D02*
D03*
Y257874D02*
D03*
Y253937D02*
D03*
Y250000D02*
D03*
Y246063D02*
D03*
Y242126D02*
D03*
Y238189D02*
D03*
Y234252D02*
D03*
Y230315D02*
D03*
X433071Y344488D02*
D03*
Y340551D02*
D03*
Y336614D02*
D03*
Y332677D02*
D03*
Y328740D02*
D03*
Y324803D02*
D03*
Y320866D02*
D03*
Y316929D02*
D03*
Y312992D02*
D03*
Y309055D02*
D03*
Y305118D02*
D03*
Y301181D02*
D03*
Y297244D02*
D03*
Y293307D02*
D03*
Y289370D02*
D03*
Y285433D02*
D03*
Y281496D02*
D03*
Y277559D02*
D03*
Y273622D02*
D03*
Y269685D02*
D03*
Y265748D02*
D03*
Y261811D02*
D03*
Y257874D02*
D03*
Y253937D02*
D03*
Y250000D02*
D03*
Y246063D02*
D03*
Y242126D02*
D03*
Y238189D02*
D03*
Y234252D02*
D03*
Y230315D02*
D03*
X429134Y344488D02*
D03*
Y340551D02*
D03*
Y336614D02*
D03*
Y332677D02*
D03*
Y328740D02*
D03*
Y324803D02*
D03*
Y320866D02*
D03*
Y316929D02*
D03*
Y312992D02*
D03*
Y309055D02*
D03*
Y305118D02*
D03*
Y301181D02*
D03*
Y297244D02*
D03*
Y293307D02*
D03*
Y289370D02*
D03*
Y285433D02*
D03*
Y281496D02*
D03*
Y277559D02*
D03*
Y273622D02*
D03*
Y269685D02*
D03*
Y265748D02*
D03*
Y261811D02*
D03*
Y257874D02*
D03*
Y253937D02*
D03*
Y250000D02*
D03*
Y246063D02*
D03*
Y242126D02*
D03*
Y238189D02*
D03*
Y234252D02*
D03*
Y230315D02*
D03*
X425197Y344488D02*
D03*
Y340551D02*
D03*
Y336614D02*
D03*
Y332677D02*
D03*
Y328740D02*
D03*
Y324803D02*
D03*
X425197Y320866D02*
D03*
X425197Y316929D02*
D03*
Y312992D02*
D03*
Y309055D02*
D03*
Y305118D02*
D03*
Y301181D02*
D03*
Y297244D02*
D03*
Y293307D02*
D03*
Y289370D02*
D03*
Y285433D02*
D03*
X425197Y281496D02*
D03*
X425197Y277559D02*
D03*
Y273622D02*
D03*
Y269685D02*
D03*
Y265748D02*
D03*
Y261811D02*
D03*
Y257874D02*
D03*
Y253937D02*
D03*
Y250000D02*
D03*
Y246063D02*
D03*
Y242126D02*
D03*
X425197Y238189D02*
D03*
X425197Y234252D02*
D03*
Y230315D02*
D03*
X421260Y344488D02*
D03*
Y340551D02*
D03*
X421260Y336614D02*
D03*
X421260Y332677D02*
D03*
Y328740D02*
D03*
Y324803D02*
D03*
X421260Y320866D02*
D03*
X421260Y316929D02*
D03*
Y312992D02*
D03*
Y309055D02*
D03*
Y305118D02*
D03*
Y301181D02*
D03*
Y297244D02*
D03*
X421260Y293307D02*
D03*
X421260Y289370D02*
D03*
Y285433D02*
D03*
X421260Y281496D02*
D03*
X421260Y277559D02*
D03*
Y273622D02*
D03*
Y269685D02*
D03*
X421260Y265748D02*
D03*
X421260Y261811D02*
D03*
Y257874D02*
D03*
Y253937D02*
D03*
Y250000D02*
D03*
Y246063D02*
D03*
X421260Y242126D02*
D03*
Y238189D02*
D03*
X421260Y234252D02*
D03*
Y230315D02*
D03*
X417323Y344488D02*
D03*
Y340551D02*
D03*
Y336614D02*
D03*
Y332677D02*
D03*
Y328740D02*
D03*
Y324803D02*
D03*
Y320866D02*
D03*
Y316929D02*
D03*
Y312992D02*
D03*
Y309055D02*
D03*
Y305118D02*
D03*
Y301181D02*
D03*
Y297244D02*
D03*
Y293307D02*
D03*
Y289370D02*
D03*
Y285433D02*
D03*
Y281496D02*
D03*
Y277559D02*
D03*
Y273622D02*
D03*
Y269685D02*
D03*
Y265748D02*
D03*
Y261811D02*
D03*
Y257874D02*
D03*
Y253937D02*
D03*
Y250000D02*
D03*
Y246063D02*
D03*
Y242126D02*
D03*
Y238189D02*
D03*
Y234252D02*
D03*
Y230315D02*
D03*
X413386Y344488D02*
D03*
Y340551D02*
D03*
Y336614D02*
D03*
Y332677D02*
D03*
Y328740D02*
D03*
Y324803D02*
D03*
Y320866D02*
D03*
Y316929D02*
D03*
Y312992D02*
D03*
Y309055D02*
D03*
Y305118D02*
D03*
Y301181D02*
D03*
Y297244D02*
D03*
Y293307D02*
D03*
Y289370D02*
D03*
Y285433D02*
D03*
Y281496D02*
D03*
Y277559D02*
D03*
Y273622D02*
D03*
Y269685D02*
D03*
Y265748D02*
D03*
Y261811D02*
D03*
Y257874D02*
D03*
Y253937D02*
D03*
Y250000D02*
D03*
Y246063D02*
D03*
Y242126D02*
D03*
Y238189D02*
D03*
Y234252D02*
D03*
Y230315D02*
D03*
X409449Y344488D02*
D03*
Y340551D02*
D03*
Y336614D02*
D03*
Y332677D02*
D03*
Y328740D02*
D03*
Y324803D02*
D03*
Y320866D02*
D03*
Y316929D02*
D03*
Y312992D02*
D03*
Y309055D02*
D03*
Y305118D02*
D03*
Y301181D02*
D03*
Y297244D02*
D03*
Y293307D02*
D03*
Y289370D02*
D03*
Y285433D02*
D03*
Y281496D02*
D03*
Y277559D02*
D03*
Y273622D02*
D03*
Y269685D02*
D03*
Y265748D02*
D03*
Y261811D02*
D03*
Y257874D02*
D03*
Y253937D02*
D03*
Y250000D02*
D03*
Y246063D02*
D03*
Y242126D02*
D03*
Y238189D02*
D03*
Y234252D02*
D03*
Y230315D02*
D03*
X405512Y344488D02*
D03*
Y340551D02*
D03*
Y336614D02*
D03*
Y332677D02*
D03*
Y328740D02*
D03*
Y324803D02*
D03*
Y320866D02*
D03*
Y316929D02*
D03*
Y312992D02*
D03*
Y309055D02*
D03*
Y305118D02*
D03*
Y301181D02*
D03*
Y297244D02*
D03*
Y293307D02*
D03*
Y289370D02*
D03*
Y285433D02*
D03*
Y281496D02*
D03*
Y277559D02*
D03*
Y273622D02*
D03*
Y269685D02*
D03*
Y265748D02*
D03*
Y261811D02*
D03*
Y257874D02*
D03*
Y253937D02*
D03*
Y250000D02*
D03*
Y246063D02*
D03*
Y242126D02*
D03*
Y238189D02*
D03*
Y234252D02*
D03*
Y230315D02*
D03*
X401575Y344488D02*
D03*
Y340551D02*
D03*
Y336614D02*
D03*
Y332677D02*
D03*
Y328740D02*
D03*
Y324803D02*
D03*
Y320866D02*
D03*
Y316929D02*
D03*
Y312992D02*
D03*
Y309055D02*
D03*
Y305118D02*
D03*
Y301181D02*
D03*
Y297244D02*
D03*
Y293307D02*
D03*
Y289370D02*
D03*
Y285433D02*
D03*
Y281496D02*
D03*
Y277559D02*
D03*
Y273622D02*
D03*
Y269685D02*
D03*
Y265748D02*
D03*
Y261811D02*
D03*
Y257874D02*
D03*
Y253937D02*
D03*
Y250000D02*
D03*
Y246063D02*
D03*
Y242126D02*
D03*
Y238189D02*
D03*
Y234252D02*
D03*
Y230315D02*
D03*
X397638Y344488D02*
D03*
Y340551D02*
D03*
Y336614D02*
D03*
Y332677D02*
D03*
Y328740D02*
D03*
Y324803D02*
D03*
Y320866D02*
D03*
Y316929D02*
D03*
Y312992D02*
D03*
Y309055D02*
D03*
Y305118D02*
D03*
Y301181D02*
D03*
Y297244D02*
D03*
Y293307D02*
D03*
Y289370D02*
D03*
Y285433D02*
D03*
Y281496D02*
D03*
Y277559D02*
D03*
Y273622D02*
D03*
Y269685D02*
D03*
Y265748D02*
D03*
Y261811D02*
D03*
Y257874D02*
D03*
Y253937D02*
D03*
Y250000D02*
D03*
Y246063D02*
D03*
Y242126D02*
D03*
Y238189D02*
D03*
Y234252D02*
D03*
Y230315D02*
D03*
X393701Y344488D02*
D03*
Y340551D02*
D03*
Y336614D02*
D03*
Y332677D02*
D03*
Y328740D02*
D03*
Y324803D02*
D03*
Y320866D02*
D03*
Y316929D02*
D03*
Y312992D02*
D03*
Y309055D02*
D03*
Y305118D02*
D03*
Y301181D02*
D03*
Y297244D02*
D03*
Y293307D02*
D03*
Y289370D02*
D03*
Y285433D02*
D03*
Y281496D02*
D03*
Y277559D02*
D03*
Y273622D02*
D03*
Y269685D02*
D03*
Y265748D02*
D03*
Y261811D02*
D03*
Y257874D02*
D03*
Y253937D02*
D03*
Y250000D02*
D03*
Y246063D02*
D03*
Y242126D02*
D03*
Y238189D02*
D03*
Y234252D02*
D03*
Y230315D02*
D03*
X389764Y344488D02*
D03*
Y340551D02*
D03*
Y336614D02*
D03*
Y332677D02*
D03*
Y328740D02*
D03*
Y324803D02*
D03*
Y320866D02*
D03*
Y316929D02*
D03*
Y312992D02*
D03*
Y309055D02*
D03*
Y305118D02*
D03*
Y301181D02*
D03*
Y297244D02*
D03*
Y293307D02*
D03*
Y289370D02*
D03*
Y285433D02*
D03*
Y281496D02*
D03*
Y277559D02*
D03*
Y273622D02*
D03*
Y269685D02*
D03*
Y265748D02*
D03*
Y261811D02*
D03*
Y257874D02*
D03*
Y253937D02*
D03*
Y250000D02*
D03*
Y246063D02*
D03*
Y242126D02*
D03*
Y238189D02*
D03*
Y234252D02*
D03*
Y230315D02*
D03*
X385827Y344488D02*
D03*
Y340551D02*
D03*
Y336614D02*
D03*
Y332677D02*
D03*
Y328740D02*
D03*
Y324803D02*
D03*
Y320866D02*
D03*
Y316929D02*
D03*
Y312992D02*
D03*
Y309055D02*
D03*
Y305118D02*
D03*
Y301181D02*
D03*
Y297244D02*
D03*
Y293307D02*
D03*
Y289370D02*
D03*
Y285433D02*
D03*
Y281496D02*
D03*
Y277559D02*
D03*
Y273622D02*
D03*
Y269685D02*
D03*
Y265748D02*
D03*
Y261811D02*
D03*
Y257874D02*
D03*
Y253937D02*
D03*
Y250000D02*
D03*
Y246063D02*
D03*
Y242126D02*
D03*
Y238189D02*
D03*
Y234252D02*
D03*
Y230315D02*
D03*
X381890Y344488D02*
D03*
Y340551D02*
D03*
Y336614D02*
D03*
Y332677D02*
D03*
Y328740D02*
D03*
Y324803D02*
D03*
Y320866D02*
D03*
Y316929D02*
D03*
Y312992D02*
D03*
Y309055D02*
D03*
Y305118D02*
D03*
Y301181D02*
D03*
Y297244D02*
D03*
Y293307D02*
D03*
Y289370D02*
D03*
Y285433D02*
D03*
Y281496D02*
D03*
Y277559D02*
D03*
Y273622D02*
D03*
Y269685D02*
D03*
Y265748D02*
D03*
Y261811D02*
D03*
Y257874D02*
D03*
Y253937D02*
D03*
Y250000D02*
D03*
Y246063D02*
D03*
Y242126D02*
D03*
Y238189D02*
D03*
Y234252D02*
D03*
Y230315D02*
D03*
X377953Y340551D02*
D03*
Y336614D02*
D03*
Y332677D02*
D03*
Y328740D02*
D03*
Y324803D02*
D03*
Y320866D02*
D03*
Y316929D02*
D03*
Y312992D02*
D03*
Y309055D02*
D03*
Y305118D02*
D03*
Y301181D02*
D03*
Y297244D02*
D03*
Y293307D02*
D03*
Y289370D02*
D03*
Y285433D02*
D03*
Y281496D02*
D03*
Y277559D02*
D03*
Y273622D02*
D03*
Y269685D02*
D03*
Y265748D02*
D03*
Y261811D02*
D03*
Y257874D02*
D03*
Y253937D02*
D03*
Y250000D02*
D03*
Y246063D02*
D03*
Y242126D02*
D03*
Y238189D02*
D03*
Y234252D02*
D03*
D76*
X557244Y202756D02*
D03*
X557244Y162756D02*
D03*
X557244Y172756D02*
D03*
Y182756D02*
D03*
X557244Y192756D02*
D03*
X547244D02*
D03*
Y182756D02*
D03*
Y172756D02*
D03*
Y162756D02*
D03*
X620236Y202756D02*
D03*
X620236Y162756D02*
D03*
X620236Y172756D02*
D03*
Y182756D02*
D03*
X620236Y192756D02*
D03*
X610236D02*
D03*
Y182756D02*
D03*
Y172756D02*
D03*
Y162756D02*
D03*
D99*
X215945Y183071D02*
D03*
X209252D02*
D03*
X209252Y190945D02*
D03*
X215945D02*
D03*
X244882Y417323D02*
D03*
X238189D02*
D03*
X233071D02*
D03*
X226378D02*
D03*
X244882Y397638D02*
D03*
X238189D02*
D03*
X233071D02*
D03*
X226378D02*
D03*
X262795Y380709D02*
D03*
X256102D02*
D03*
X260788Y365197D02*
D03*
X254095D02*
D03*
X248976D02*
D03*
X242283D02*
D03*
X260787Y345512D02*
D03*
X254094D02*
D03*
X248976D02*
D03*
X242283D02*
D03*
X292717Y358268D02*
D03*
X286023D02*
D03*
X578346Y397638D02*
D03*
X585039D02*
D03*
X577362Y202756D02*
D03*
X584055D02*
D03*
X577362Y192913D02*
D03*
X584055D02*
D03*
X303740Y198819D02*
D03*
X310433D02*
D03*
X245473Y190945D02*
D03*
X238780D02*
D03*
X245473Y183071D02*
D03*
X238780D02*
D03*
X163780Y239173D02*
D03*
X157087D02*
D03*
X157087Y230315D02*
D03*
X163779D02*
D03*
X182480Y282480D02*
D03*
X175787D02*
D03*
X182480Y291339D02*
D03*
X175787D02*
D03*
D100*
X197441Y200787D02*
D03*
X204528D02*
D03*
X573228Y230315D02*
D03*
X580315D02*
D03*
X339961Y232283D02*
D03*
X347047D02*
D03*
X308465Y230315D02*
D03*
X315551D02*
D03*
X295866Y240158D02*
D03*
X288779D02*
D03*
X172638Y159843D02*
D03*
X165551D02*
D03*
X240748Y287402D02*
D03*
X233662D02*
D03*
D101*
X622244Y275984D02*
D03*
X592244D02*
D03*
Y246457D02*
D03*
X622244D02*
D03*
D102*
X506693Y412795D02*
D03*
Y415945D02*
D03*
Y419095D02*
D03*
Y422244D02*
D03*
X512992D02*
D03*
Y419095D02*
D03*
Y415945D02*
D03*
Y412795D02*
D03*
X506693Y428543D02*
D03*
Y431693D02*
D03*
Y434842D02*
D03*
Y437992D02*
D03*
X512992D02*
D03*
Y434842D02*
D03*
Y431693D02*
D03*
Y428543D02*
D03*
Y397047D02*
D03*
Y400197D02*
D03*
Y403346D02*
D03*
Y406496D02*
D03*
X506693D02*
D03*
Y403346D02*
D03*
Y400197D02*
D03*
Y397047D02*
D03*
Y444291D02*
D03*
Y447441D02*
D03*
Y450591D02*
D03*
Y453740D02*
D03*
X512992D02*
D03*
Y450591D02*
D03*
Y447441D02*
D03*
Y444291D02*
D03*
D103*
X534055Y390945D02*
D03*
X530905D02*
D03*
X527756D02*
D03*
X524606D02*
D03*
Y384646D02*
D03*
X527756D02*
D03*
X530905D02*
D03*
X534055D02*
D03*
X549803Y390945D02*
D03*
X546654D02*
D03*
X543504D02*
D03*
X540354D02*
D03*
Y384646D02*
D03*
X543504D02*
D03*
X546654D02*
D03*
X549803D02*
D03*
D104*
X246063Y411024D02*
D03*
Y403937D02*
D03*
X272638Y426772D02*
D03*
Y419685D02*
D03*
X238189Y411024D02*
D03*
Y403937D02*
D03*
X253937Y351969D02*
D03*
Y359055D02*
D03*
X261969Y351811D02*
D03*
Y358897D02*
D03*
X509842Y151181D02*
D03*
Y144094D02*
D03*
X384842Y151181D02*
D03*
Y144094D02*
D03*
X327756Y213976D02*
D03*
Y221063D02*
D03*
X339567Y213976D02*
D03*
Y221063D02*
D03*
X267717Y227756D02*
D03*
Y234843D02*
D03*
X255906Y227756D02*
D03*
Y234843D02*
D03*
X205709Y255512D02*
D03*
Y248425D02*
D03*
X186024Y255512D02*
D03*
Y248425D02*
D03*
D105*
X265354Y390748D02*
D03*
Y396260D02*
D03*
X260827Y425984D02*
D03*
Y420472D02*
D03*
X567913Y384646D02*
D03*
Y379134D02*
D03*
X562008Y384646D02*
D03*
Y379134D02*
D03*
X577559Y452756D02*
D03*
Y458268D02*
D03*
X453543Y461417D02*
D03*
Y455906D02*
D03*
D106*
X226378Y407480D02*
D03*
X230315D02*
D03*
X246063Y355512D02*
D03*
X242126D02*
D03*
X574803Y425591D02*
D03*
X570866D02*
D03*
Y422047D02*
D03*
X574803D02*
D03*
X353346Y343504D02*
D03*
X349410D02*
D03*
X364173D02*
D03*
X360236D02*
D03*
X573819Y264764D02*
D03*
X569882D02*
D03*
X179134Y336614D02*
D03*
X175197D02*
D03*
X179134Y419291D02*
D03*
X175197D02*
D03*
X255512Y401575D02*
D03*
X259449D02*
D03*
X259449Y396457D02*
D03*
X255512D02*
D03*
D107*
X254331Y390748D02*
D03*
X259842D02*
D03*
X331496Y353543D02*
D03*
X325984D02*
D03*
X507087Y318898D02*
D03*
X512599D02*
D03*
X278346Y202756D02*
D03*
X272835D02*
D03*
X234449Y296260D02*
D03*
X239961D02*
D03*
D108*
X291732Y364173D02*
D03*
Y368110D02*
D03*
X286811Y364173D02*
D03*
Y368110D02*
D03*
X558268Y393701D02*
D03*
Y397638D02*
D03*
X571654Y453543D02*
D03*
Y457480D02*
D03*
X213583Y261811D02*
D03*
Y257874D02*
D03*
X219488D02*
D03*
Y261811D02*
D03*
X156496Y218504D02*
D03*
Y222441D02*
D03*
D109*
X566929Y271850D02*
D03*
Y278543D02*
D03*
X332677Y226969D02*
D03*
Y233661D02*
D03*
X324803Y233661D02*
D03*
Y226969D02*
D03*
X312992Y206299D02*
D03*
Y212992D02*
D03*
X195866Y255315D02*
D03*
Y248622D02*
D03*
X177165Y323425D02*
D03*
Y330118D02*
D03*
Y432480D02*
D03*
Y425787D02*
D03*
D110*
X494094Y145512D02*
D03*
Y160512D02*
D03*
X509842Y193071D02*
D03*
Y178071D02*
D03*
X494095Y193071D02*
D03*
Y178071D02*
D03*
X417323Y145512D02*
D03*
Y160512D02*
D03*
X368110Y145512D02*
D03*
Y160512D02*
D03*
X417323Y193071D02*
D03*
Y178071D02*
D03*
X401575Y193071D02*
D03*
Y178071D02*
D03*
X384842Y192087D02*
D03*
Y177087D02*
D03*
X368110Y192087D02*
D03*
Y177087D02*
D03*
X292323Y193071D02*
D03*
Y178071D02*
D03*
X275590Y193071D02*
D03*
Y178071D02*
D03*
X292323Y145512D02*
D03*
Y160512D02*
D03*
D111*
X454724Y141732D02*
D03*
Y188976D02*
D03*
X328740Y141732D02*
D03*
Y188976D02*
D03*
D112*
X219980Y172539D02*
D03*
Y169980D02*
D03*
Y167421D02*
D03*
Y164862D02*
D03*
Y162303D02*
D03*
Y159744D02*
D03*
Y157185D02*
D03*
Y154626D02*
D03*
Y152067D02*
D03*
Y149508D02*
D03*
Y146949D02*
D03*
Y144390D02*
D03*
X242618Y172539D02*
D03*
Y169980D02*
D03*
Y167421D02*
D03*
Y164862D02*
D03*
Y162303D02*
D03*
Y159744D02*
D03*
Y157185D02*
D03*
Y154626D02*
D03*
Y152067D02*
D03*
Y149508D02*
D03*
Y146949D02*
D03*
Y144390D02*
D03*
D113*
X231299Y158464D02*
D03*
D114*
X286909Y217421D02*
D03*
Y214862D02*
D03*
Y212303D02*
D03*
Y209744D02*
D03*
X301673D02*
D03*
Y212303D02*
D03*
Y214862D02*
D03*
Y217421D02*
D03*
D115*
X290453Y206201D02*
D03*
X293012D02*
D03*
X295571D02*
D03*
X298130D02*
D03*
Y220965D02*
D03*
X295571D02*
D03*
X293012D02*
D03*
X290453D02*
D03*
D116*
X294291Y213583D02*
D03*
D117*
X246178Y219639D02*
D03*
Y203891D02*
D03*
X189092Y153695D02*
D03*
Y169443D02*
D03*
D118*
X172244Y457677D02*
D03*
X606299Y141732D02*
D03*
X171260Y140748D02*
D03*
D119*
X202913Y355354D02*
D03*
X215413Y360354D02*
D03*
Y355354D02*
D03*
Y350354D02*
D03*
X202913Y360354D02*
D03*
Y350354D02*
D03*
D120*
X182913Y345354D02*
D03*
Y355354D02*
D03*
Y365354D02*
D03*
X232913Y345354D02*
D03*
Y355354D02*
D03*
Y365354D02*
D03*
D121*
X202598Y417008D02*
D03*
X207598Y404508D02*
D03*
X202598D02*
D03*
X197598D02*
D03*
X207598Y417008D02*
D03*
X197598D02*
D03*
D122*
X192598Y437008D02*
D03*
X202598D02*
D03*
X212598D02*
D03*
X192598Y387008D02*
D03*
X202598D02*
D03*
X212598D02*
D03*
D123*
X197835Y270473D02*
D03*
X199803D02*
D03*
X201772D02*
D03*
X203740D02*
D03*
X205709D02*
D03*
X207677D02*
D03*
X209646D02*
D03*
X211614D02*
D03*
X213583D02*
D03*
X215551D02*
D03*
X217520D02*
D03*
X219488D02*
D03*
Y297244D02*
D03*
X217520D02*
D03*
X215551D02*
D03*
X213583D02*
D03*
X211614D02*
D03*
X209646D02*
D03*
X207677D02*
D03*
X205709D02*
D03*
X203740D02*
D03*
X201772D02*
D03*
X199803D02*
D03*
X197835D02*
D03*
D124*
X222047Y273032D02*
D03*
Y275000D02*
D03*
Y276969D02*
D03*
Y278937D02*
D03*
Y280906D02*
D03*
Y282874D02*
D03*
Y284843D02*
D03*
Y286811D02*
D03*
Y288780D02*
D03*
Y290748D02*
D03*
Y292717D02*
D03*
Y294685D02*
D03*
X195276D02*
D03*
Y292717D02*
D03*
Y290748D02*
D03*
Y288780D02*
D03*
Y286811D02*
D03*
Y284843D02*
D03*
Y282874D02*
D03*
Y280906D02*
D03*
Y278937D02*
D03*
Y276969D02*
D03*
Y275000D02*
D03*
Y273032D02*
D03*
D125*
X208661Y283858D02*
D03*
D126*
X596457Y318012D02*
D03*
X594488D02*
D03*
X592520D02*
D03*
X590551D02*
D03*
X588583D02*
D03*
X596457Y302067D02*
D03*
X594488D02*
D03*
X592520D02*
D03*
X590551D02*
D03*
X588583D02*
D03*
D127*
X303150Y393701D02*
D03*
D128*
X317913Y376181D02*
D03*
X315945D02*
D03*
X313976D02*
D03*
X312008D02*
D03*
X310039D02*
D03*
X308071D02*
D03*
X306102D02*
D03*
X304134D02*
D03*
X302165D02*
D03*
X300197D02*
D03*
X298228D02*
D03*
X296260D02*
D03*
X294291D02*
D03*
X292323D02*
D03*
X290354D02*
D03*
X288386D02*
D03*
Y411220D02*
D03*
X290354D02*
D03*
X292323D02*
D03*
X294291D02*
D03*
X296260D02*
D03*
X298228D02*
D03*
X300197D02*
D03*
X302165D02*
D03*
X304134D02*
D03*
X306102D02*
D03*
X308071D02*
D03*
X310039D02*
D03*
X312008D02*
D03*
X313976D02*
D03*
X315945D02*
D03*
X317913D02*
D03*
D129*
X285630Y378937D02*
D03*
Y380906D02*
D03*
Y382874D02*
D03*
Y384843D02*
D03*
Y386811D02*
D03*
Y388780D02*
D03*
Y390748D02*
D03*
Y392717D02*
D03*
Y394685D02*
D03*
Y396654D02*
D03*
Y398622D02*
D03*
Y400591D02*
D03*
Y402559D02*
D03*
Y404528D02*
D03*
Y406496D02*
D03*
Y408465D02*
D03*
X320669D02*
D03*
Y406496D02*
D03*
Y404528D02*
D03*
Y402559D02*
D03*
Y400591D02*
D03*
Y398622D02*
D03*
Y396654D02*
D03*
Y394685D02*
D03*
Y392717D02*
D03*
Y390748D02*
D03*
Y388780D02*
D03*
Y386811D02*
D03*
Y384843D02*
D03*
Y382874D02*
D03*
Y380906D02*
D03*
Y378937D02*
D03*
D130*
X561925Y439551D02*
D03*
Y436402D02*
D03*
Y433252D02*
D03*
Y430102D02*
D03*
Y426953D02*
D03*
Y423803D02*
D03*
Y420653D02*
D03*
Y417504D02*
D03*
Y414354D02*
D03*
Y411205D02*
D03*
Y408055D02*
D03*
X558776Y439551D02*
D03*
Y436402D02*
D03*
Y433252D02*
D03*
Y430102D02*
D03*
Y426953D02*
D03*
Y423803D02*
D03*
Y420653D02*
D03*
Y417504D02*
D03*
Y414354D02*
D03*
Y411205D02*
D03*
Y408055D02*
D03*
X555626Y439551D02*
D03*
Y436402D02*
D03*
Y433252D02*
D03*
Y430102D02*
D03*
Y426953D02*
D03*
Y423803D02*
D03*
Y420653D02*
D03*
Y417504D02*
D03*
Y414354D02*
D03*
Y411205D02*
D03*
Y408055D02*
D03*
X552476Y439551D02*
D03*
Y436402D02*
D03*
Y433252D02*
D03*
Y430102D02*
D03*
Y426953D02*
D03*
Y423803D02*
D03*
Y420653D02*
D03*
Y417504D02*
D03*
Y414354D02*
D03*
Y411205D02*
D03*
Y408055D02*
D03*
X549327Y439551D02*
D03*
Y436402D02*
D03*
Y433252D02*
D03*
Y430102D02*
D03*
Y426953D02*
D03*
Y423803D02*
D03*
Y420653D02*
D03*
Y417504D02*
D03*
Y414354D02*
D03*
Y411205D02*
D03*
Y408055D02*
D03*
X546177Y439551D02*
D03*
Y436402D02*
D03*
Y433252D02*
D03*
Y430102D02*
D03*
Y426953D02*
D03*
Y423803D02*
D03*
Y420653D02*
D03*
Y417504D02*
D03*
Y414354D02*
D03*
Y411205D02*
D03*
Y408055D02*
D03*
X543028Y439551D02*
D03*
Y436402D02*
D03*
Y433252D02*
D03*
Y430102D02*
D03*
Y426953D02*
D03*
Y423803D02*
D03*
Y420653D02*
D03*
Y417504D02*
D03*
Y414354D02*
D03*
Y411205D02*
D03*
Y408055D02*
D03*
X539878Y439551D02*
D03*
Y436402D02*
D03*
Y433252D02*
D03*
Y430102D02*
D03*
Y426953D02*
D03*
Y423803D02*
D03*
Y420653D02*
D03*
Y417504D02*
D03*
Y414354D02*
D03*
Y411205D02*
D03*
Y408055D02*
D03*
X536728Y439551D02*
D03*
Y436402D02*
D03*
Y433252D02*
D03*
Y430102D02*
D03*
Y426953D02*
D03*
Y423803D02*
D03*
Y420653D02*
D03*
Y417504D02*
D03*
Y414354D02*
D03*
Y411205D02*
D03*
Y408055D02*
D03*
X533579Y439551D02*
D03*
Y436402D02*
D03*
Y433252D02*
D03*
Y430102D02*
D03*
Y426953D02*
D03*
Y423803D02*
D03*
Y420653D02*
D03*
Y417504D02*
D03*
Y414354D02*
D03*
Y411205D02*
D03*
Y408055D02*
D03*
X530429Y439551D02*
D03*
Y436402D02*
D03*
Y433252D02*
D03*
Y430102D02*
D03*
Y426953D02*
D03*
Y423803D02*
D03*
Y420653D02*
D03*
Y417504D02*
D03*
Y414354D02*
D03*
Y411205D02*
D03*
Y408055D02*
D03*
D131*
X466536Y468819D02*
D03*
X486536D02*
D03*
Y448819D02*
D03*
X466536D02*
D03*
D132*
X318898Y340551D02*
D03*
Y320551D02*
D03*
X338898D02*
D03*
Y340551D02*
D03*
D133*
X590551Y344488D02*
D03*
Y374016D02*
D03*
D134*
X156693Y257283D02*
D03*
X164173D02*
D03*
X160433Y248031D02*
D03*
D135*
X535669Y466535D02*
D03*
D136*
X155669Y198661D02*
D03*
Y336457D02*
D03*
Y419134D02*
D03*
X623858Y360079D02*
D03*
D137*
X145669Y208661D02*
D03*
X165669D02*
D03*
X145669Y188661D02*
D03*
X165669D02*
D03*
X145669Y346457D02*
D03*
X165669Y346457D02*
D03*
X145669Y326457D02*
D03*
X165669D02*
D03*
X145669Y429134D02*
D03*
X165669D02*
D03*
X145669Y409134D02*
D03*
X165669D02*
D03*
X633858Y350079D02*
D03*
X613858D02*
D03*
X633858Y370079D02*
D03*
X613858D02*
D03*
D138*
X629921Y448976D02*
D03*
Y401575D02*
D03*
D139*
X603504Y442008D02*
D03*
Y435118D02*
D03*
Y408543D02*
D03*
Y415433D02*
D03*
Y425276D02*
D03*
D140*
X633858Y484252D02*
D03*
Y114173D02*
D03*
X145669D02*
D03*
Y484252D02*
D03*
D141*
X224409Y488189D02*
D03*
X208661D02*
D03*
X240157D02*
D03*
X192913D02*
D03*
X177165D02*
D03*
X618110D02*
D03*
Y468504D02*
D03*
X637795D02*
D03*
Y385827D02*
D03*
Y334646D02*
D03*
Y318898D02*
D03*
Y287402D02*
D03*
Y303150D02*
D03*
Y255906D02*
D03*
Y271654D02*
D03*
Y224409D02*
D03*
Y240157D02*
D03*
Y192913D02*
D03*
Y208661D02*
D03*
X618110Y129921D02*
D03*
Y110236D02*
D03*
X570866Y488189D02*
D03*
X555118D02*
D03*
X602362D02*
D03*
X586614D02*
D03*
X507874D02*
D03*
X492126D02*
D03*
X539370D02*
D03*
X523622D02*
D03*
X444882D02*
D03*
X429134D02*
D03*
X476378D02*
D03*
X460630D02*
D03*
X381890D02*
D03*
X366142D02*
D03*
X413386D02*
D03*
X397638D02*
D03*
X334646D02*
D03*
X350394D02*
D03*
X303150D02*
D03*
X318898D02*
D03*
X271654D02*
D03*
X287402D02*
D03*
X255906D02*
D03*
D142*
X547244Y202756D02*
D03*
X610236D02*
D03*
D143*
X498032Y155512D02*
D03*
X494095D02*
D03*
X490158D02*
D03*
X486221Y169291D02*
D03*
X372047Y155512D02*
D03*
X368110D02*
D03*
X364173D02*
D03*
X204921Y196850D02*
D03*
Y204724D02*
D03*
X207874Y200787D02*
D03*
X328150Y203150D02*
D03*
X551181Y461614D02*
D03*
X454724Y447835D02*
D03*
X450787Y446851D02*
D03*
X458661D02*
D03*
X450787Y433071D02*
D03*
X458661D02*
D03*
X454724Y432087D02*
D03*
X422244Y442913D02*
D03*
X447835Y437008D02*
D03*
X443898Y416339D02*
D03*
X446850Y419291D02*
D03*
Y423228D02*
D03*
X449803Y421260D02*
D03*
Y425197D02*
D03*
X565945Y462598D02*
D03*
X581693D02*
D03*
X597441Y462598D02*
D03*
X524606Y473425D02*
D03*
X565945Y473425D02*
D03*
X573819Y462598D02*
D03*
X589567Y462599D02*
D03*
X605315Y462598D02*
D03*
X567913Y393701D02*
D03*
X304134Y415354D02*
D03*
X260827Y417323D02*
D03*
X256890Y419291D02*
D03*
X264764D02*
D03*
X256890Y427165D02*
D03*
X264764D02*
D03*
X260827Y429134D02*
D03*
X268701Y416339D02*
D03*
X276575D02*
D03*
X272638Y415354D02*
D03*
X311024Y430118D02*
D03*
X333661Y377953D02*
D03*
X281496Y383858D02*
D03*
X280512Y404528D02*
D03*
X304134Y372047D02*
D03*
X311024Y420276D02*
D03*
X312992Y417323D02*
D03*
X318898Y373031D02*
D03*
X323819Y377953D02*
D03*
X384842Y139764D02*
D03*
Y155512D02*
D03*
X165157Y163779D02*
D03*
Y155906D02*
D03*
X162205Y159843D02*
D03*
X202756Y188976D02*
D03*
X261811Y188976D02*
D03*
X212598Y168307D02*
D03*
X250000D02*
D03*
X214567Y164370D02*
D03*
Y158465D02*
D03*
Y143701D02*
D03*
X210630Y146653D02*
D03*
X214567Y148622D02*
D03*
X247047Y163386D02*
D03*
X250984Y161417D02*
D03*
X247047Y158465D02*
D03*
X267717Y238189D02*
D03*
X263780Y235236D02*
D03*
X271653D02*
D03*
X255906Y238189D02*
D03*
X251969Y235236D02*
D03*
X259842D02*
D03*
X583661Y230315D02*
D03*
X580709Y234252D02*
D03*
Y226378D02*
D03*
X288386Y244094D02*
D03*
Y236221D02*
D03*
X285433Y240158D02*
D03*
X594488Y223425D02*
D03*
X588583Y228346D02*
D03*
X591535Y226378D02*
D03*
X537402Y339567D02*
D03*
X546260Y348425D02*
D03*
X570866Y281102D02*
D03*
X516732Y241142D02*
D03*
X350394Y229331D02*
D03*
X342913Y227165D02*
D03*
X319488Y203150D02*
D03*
X367126Y206693D02*
D03*
X358268Y206693D02*
D03*
X349410D02*
D03*
X372047Y210630D02*
D03*
X520669Y227362D02*
D03*
X540354Y342520D02*
D03*
X543307Y345472D02*
D03*
X593504Y307087D02*
D03*
X589567D02*
D03*
Y312992D02*
D03*
X225984Y289764D02*
D03*
Y295669D02*
D03*
X220473Y301181D02*
D03*
X210630D02*
D03*
X206693D02*
D03*
X196850D02*
D03*
X191929Y289370D02*
D03*
Y295276D02*
D03*
X190945Y285433D02*
D03*
X189836Y279403D02*
D03*
X172244Y282480D02*
D03*
X172244Y291339D02*
D03*
X192913Y268701D02*
D03*
Y262795D02*
D03*
X200787Y266732D02*
D03*
X186024Y244094D02*
D03*
X205709Y244094D02*
D03*
X205709Y262795D02*
D03*
X213583Y254921D02*
D03*
X219488D02*
D03*
X216535Y266732D02*
D03*
X230315Y291339D02*
D03*
Y283465D02*
D03*
X244094Y291339D02*
D03*
Y283465D02*
D03*
X156496Y261811D02*
D03*
X164370D02*
D03*
X167323Y239173D02*
D03*
Y230315D02*
D03*
X195866Y266732D02*
D03*
X208661Y264764D02*
D03*
X190945Y271654D02*
D03*
X226378Y270669D02*
D03*
Y280512D02*
D03*
X227362Y274606D02*
D03*
X229331Y277559D02*
D03*
X476378Y204724D02*
D03*
X468504D02*
D03*
X460630D02*
D03*
X452756D02*
D03*
X444882D02*
D03*
X437008D02*
D03*
X429134D02*
D03*
X482283Y142717D02*
D03*
Y139764D02*
D03*
X485236D02*
D03*
Y142717D02*
D03*
X476378D02*
D03*
Y139764D02*
D03*
X473425D02*
D03*
Y142717D02*
D03*
X450787Y169291D02*
D03*
X453740D02*
D03*
X456693D02*
D03*
X459646D02*
D03*
X491142Y139764D02*
D03*
X497047D02*
D03*
X491142Y166260D02*
D03*
X497047D02*
D03*
X512795Y172323D02*
D03*
X506890D02*
D03*
X404527Y172323D02*
D03*
X398622D02*
D03*
X420275D02*
D03*
X414370D02*
D03*
X420275Y139764D02*
D03*
X414370D02*
D03*
Y166260D02*
D03*
X420275D02*
D03*
X497047Y172323D02*
D03*
X491142D02*
D03*
X509842Y155512D02*
D03*
Y139764D02*
D03*
X503937Y150591D02*
D03*
X446850Y161417D02*
D03*
X439961Y176181D02*
D03*
X347441Y142716D02*
D03*
Y139763D02*
D03*
X350393D02*
D03*
Y142716D02*
D03*
X359252D02*
D03*
Y139763D02*
D03*
X356299D02*
D03*
Y142716D02*
D03*
X333661Y169291D02*
D03*
X330708D02*
D03*
X327755D02*
D03*
X324803D02*
D03*
X365158Y139764D02*
D03*
X371063D02*
D03*
X365158Y171338D02*
D03*
X371063D02*
D03*
X381890D02*
D03*
X387795D02*
D03*
X371063Y166260D02*
D03*
X365158D02*
D03*
X289370Y139764D02*
D03*
X295276D02*
D03*
X289370Y172323D02*
D03*
X295275D02*
D03*
X272638D02*
D03*
X278543D02*
D03*
X295276Y166260D02*
D03*
X289370D02*
D03*
X377953Y192913D02*
D03*
X375000D02*
D03*
X361221D02*
D03*
X342520D02*
D03*
X314961D02*
D03*
X299213D02*
D03*
X285433D02*
D03*
X282480D02*
D03*
X377953Y150591D02*
D03*
X320866Y161417D02*
D03*
X311024Y152559D02*
D03*
X437008D02*
D03*
X313976Y175197D02*
D03*
X348819Y164961D02*
D03*
X582677Y163386D02*
D03*
X586614Y167323D02*
D03*
X570866Y181102D02*
D03*
X588583D02*
D03*
X567913Y354331D02*
D03*
X366142Y229331D02*
D03*
X577559Y471260D02*
D03*
X531496Y138779D02*
D03*
X535433D02*
D03*
D144*
X218602Y177264D02*
D03*
X558071Y381890D02*
D03*
X583661Y387343D02*
D03*
Y383632D02*
D03*
X319882Y228346D02*
D03*
X248031Y146653D02*
D03*
X237205Y175197D02*
D03*
X533465Y206693D02*
D03*
X584370Y266142D02*
D03*
X600118Y285827D02*
D03*
Y266142D02*
D03*
X584371Y285827D02*
D03*
X581693Y337598D02*
D03*
X599410D02*
D03*
X581693Y351378D02*
D03*
X599410D02*
D03*
X630118Y285827D02*
D03*
X630118Y266142D02*
D03*
X614370Y285827D02*
D03*
X614370Y266142D02*
D03*
X614370Y236614D02*
D03*
X630118Y256299D02*
D03*
Y236614D02*
D03*
X614370Y256299D02*
D03*
X584370Y256299D02*
D03*
X600118Y236614D02*
D03*
Y256299D02*
D03*
X584370Y236614D02*
D03*
X622047Y380906D02*
D03*
Y390748D02*
D03*
X512795Y472441D02*
D03*
X502953D02*
D03*
X260827Y472441D02*
D03*
X250984D02*
D03*
X157480Y457677D02*
D03*
Y447835D02*
D03*
X157480Y182087D02*
D03*
Y172244D02*
D03*
X250984Y125984D02*
D03*
X260827D02*
D03*
X534449Y125984D02*
D03*
X544291D02*
D03*
X622047Y150591D02*
D03*
Y140748D02*
D03*
X421260Y398622D02*
D03*
X425197Y398622D02*
D03*
D145*
X335433Y222834D02*
D03*
X331496D02*
D03*
X335433Y218897D02*
D03*
X331496D02*
D03*
X478347Y283464D02*
D03*
X474410D02*
D03*
X408465Y349410D02*
D03*
X437008Y347441D02*
D03*
X427165Y338582D02*
D03*
X407480Y338583D02*
D03*
X395669Y330708D02*
D03*
X470473Y330709D02*
D03*
X462598Y322835D02*
D03*
X454725Y251968D02*
D03*
X446850Y259843D02*
D03*
X358268Y341535D02*
D03*
X354331D02*
D03*
X358268Y345472D02*
D03*
X356299Y343504D02*
D03*
X354331Y345472D02*
D03*
X466535Y314961D02*
D03*
Y318898D02*
D03*
X470473Y314960D02*
D03*
X427166Y330708D02*
D03*
X458661Y318898D02*
D03*
X454725Y279528D02*
D03*
X458662Y279527D02*
D03*
X383858Y228346D02*
D03*
X470473Y318897D02*
D03*
X478346Y244094D02*
D03*
X411417Y255906D02*
D03*
X415354Y255905D02*
D03*
X387795Y244094D02*
D03*
X391732Y248032D02*
D03*
X454725Y314960D02*
D03*
X446851Y322834D02*
D03*
X438977Y318897D02*
D03*
X446851Y326771D02*
D03*
X442914Y330709D02*
D03*
X466535Y283464D02*
D03*
X411417Y307087D02*
D03*
X403543Y314961D02*
D03*
X407480Y314961D02*
D03*
X391732Y322835D02*
D03*
X391732Y318898D02*
D03*
X391732Y314961D02*
D03*
X399606Y279528D02*
D03*
X419291Y334645D02*
D03*
X423228Y330708D02*
D03*
X419291Y338583D02*
D03*
X415354D02*
D03*
Y342520D02*
D03*
X415354Y322834D02*
D03*
X411417Y326772D02*
D03*
X415354Y326771D02*
D03*
X415354Y330709D02*
D03*
X411417Y330708D02*
D03*
X411417Y334646D02*
D03*
X407480Y326772D02*
D03*
X423228Y346457D02*
D03*
X435040Y338583D02*
D03*
X383858Y291339D02*
D03*
X383858Y287402D02*
D03*
X379921Y287402D02*
D03*
X383858Y283465D02*
D03*
X383858Y279527D02*
D03*
X383858Y275590D02*
D03*
X387795Y283464D02*
D03*
X379921Y267716D02*
D03*
Y271653D02*
D03*
X387795Y279528D02*
D03*
X375000Y293307D02*
D03*
X411417Y295276D02*
D03*
X411417Y291338D02*
D03*
X379921Y244094D02*
D03*
X375492Y253937D02*
D03*
X379921Y283464D02*
D03*
X375984Y314961D02*
D03*
X494095Y303150D02*
D03*
X490158Y291339D02*
D03*
X490157Y295276D02*
D03*
X494095Y240157D02*
D03*
Y295275D02*
D03*
Y263779D02*
D03*
X482282Y271653D02*
D03*
X454725Y275591D02*
D03*
X486023Y271654D02*
D03*
X486220Y248031D02*
D03*
X490158Y251968D02*
D03*
Y255905D02*
D03*
X486221Y259842D02*
D03*
X482283Y255905D02*
D03*
X431102Y283464D02*
D03*
Y291339D02*
D03*
X427165D02*
D03*
X431102Y295276D02*
D03*
X427165Y279527D02*
D03*
Y295276D02*
D03*
X431102Y275590D02*
D03*
Y299213D02*
D03*
X427165Y275590D02*
D03*
Y299213D02*
D03*
X423228Y295275D02*
D03*
X438977Y271653D02*
D03*
Y303150D02*
D03*
X423228Y275590D02*
D03*
Y299213D02*
D03*
X419291Y279527D02*
D03*
X442914Y303150D02*
D03*
X446851D02*
D03*
X419291Y299213D02*
D03*
X427165Y267716D02*
D03*
X415354Y295276D02*
D03*
X427165Y311024D02*
D03*
X442914Y263779D02*
D03*
X450788Y267716D02*
D03*
X415354Y271653D02*
D03*
X454725Y303150D02*
D03*
X411417Y279527D02*
D03*
X458662Y295276D02*
D03*
Y299213D02*
D03*
X419292Y263780D02*
D03*
X431102Y259842D02*
D03*
X438977Y314961D02*
D03*
X450788Y311024D02*
D03*
X458662Y271653D02*
D03*
X411417Y303150D02*
D03*
X458662D02*
D03*
X407480Y283464D02*
D03*
X462599D02*
D03*
X407480Y291339D02*
D03*
X427165Y259842D02*
D03*
X450788D02*
D03*
X427165Y318898D02*
D03*
X466536Y295276D02*
D03*
X458662Y311024D02*
D03*
X446851Y255905D02*
D03*
X423228Y318898D02*
D03*
X446851D02*
D03*
X454725Y259842D02*
D03*
X415354Y314961D02*
D03*
X462599Y267716D02*
D03*
X466536Y275590D02*
D03*
X407480Y307087D02*
D03*
X462599D02*
D03*
X403543Y299213D02*
D03*
X466536D02*
D03*
X450788Y318898D02*
D03*
X466536Y271653D02*
D03*
X431102Y322835D02*
D03*
X411417Y259842D02*
D03*
X458662Y314961D02*
D03*
X399606Y291339D02*
D03*
X470473D02*
D03*
X427165Y322835D02*
D03*
X442914Y251968D02*
D03*
Y322835D02*
D03*
X470473Y295276D02*
D03*
X454725Y255905D02*
D03*
X466536Y267716D02*
D03*
Y307087D02*
D03*
X446851Y251968D02*
D03*
X399606Y299213D02*
D03*
X419291Y322835D02*
D03*
X462599Y314961D02*
D03*
X399606Y303150D02*
D03*
X466536Y263779D02*
D03*
X431102Y248031D02*
D03*
X438977D02*
D03*
X395669Y283464D02*
D03*
X474410Y291339D02*
D03*
X427165Y248031D02*
D03*
X442914D02*
D03*
Y326772D02*
D03*
X454725Y322835D02*
D03*
X474410Y279527D02*
D03*
Y295276D02*
D03*
X423228Y248031D02*
D03*
X446851D02*
D03*
X407480Y255905D02*
D03*
X419291Y248031D02*
D03*
X450788D02*
D03*
X419291Y326772D02*
D03*
X450788D02*
D03*
X411417Y322835D02*
D03*
X474410Y303150D02*
D03*
X399606Y311024D02*
D03*
X470473D02*
D03*
X438977Y244094D02*
D03*
X415354Y248031D02*
D03*
X454725D02*
D03*
X474410Y267716D02*
D03*
X391732Y283464D02*
D03*
Y287401D02*
D03*
X395669Y307087D02*
D03*
X427165Y244094D02*
D03*
X442914D02*
D03*
X403543Y255905D02*
D03*
X466536D02*
D03*
X391732Y279527D02*
D03*
X478347D02*
D03*
X423228Y244094D02*
D03*
X446851D02*
D03*
X478347Y275590D02*
D03*
X458662Y248031D02*
D03*
X395669Y311024D02*
D03*
X450788Y244094D02*
D03*
X419291Y330709D02*
D03*
X450788D02*
D03*
X478347Y271653D02*
D03*
X391732Y303150D02*
D03*
X466536Y251968D02*
D03*
X415354Y244094D02*
D03*
X454725D02*
D03*
X478347Y267716D02*
D03*
X391732Y307087D02*
D03*
X431102Y240157D02*
D03*
X438977Y334646D02*
D03*
X407480Y248031D02*
D03*
X462599Y326772D02*
D03*
X474410Y259842D02*
D03*
X395669Y314961D02*
D03*
X482284Y283464D02*
D03*
X387795Y291339D02*
D03*
X482284D02*
D03*
Y279527D02*
D03*
Y295276D02*
D03*
X387795Y275590D02*
D03*
X482284D02*
D03*
X458662Y244094D02*
D03*
X391732Y263779D02*
D03*
X450788Y240157D02*
D03*
X470473Y251968D02*
D03*
X399606Y322835D02*
D03*
X387795Y271653D02*
D03*
X474410Y255905D02*
D03*
X466536Y326772D02*
D03*
X395669Y318898D02*
D03*
X462599Y244094D02*
D03*
X415354Y334646D02*
D03*
X407480Y330709D02*
D03*
X478347Y259842D02*
D03*
X387795Y267716D02*
D03*
X482284D02*
D03*
Y307087D02*
D03*
X415354Y240157D02*
D03*
X431102Y236220D02*
D03*
X486221Y283464D02*
D03*
Y291339D02*
D03*
Y279527D02*
D03*
Y295276D02*
D03*
X446851Y338583D02*
D03*
X458662Y334646D02*
D03*
X470473Y248031D02*
D03*
X395669Y251968D02*
D03*
X399606Y326772D02*
D03*
X482284Y263779D02*
D03*
X387795Y311024D02*
D03*
X403543Y244094D02*
D03*
X466536D02*
D03*
X450788Y236220D02*
D03*
X407480Y240157D02*
D03*
X387795Y259842D02*
D03*
X482284D02*
D03*
X415354Y236221D02*
D03*
X383858Y267716D02*
D03*
X486221D02*
D03*
X474410Y248031D02*
D03*
X470473Y244094D02*
D03*
X438977Y232283D02*
D03*
X427165D02*
D03*
X442914D02*
D03*
X383858Y263779D02*
D03*
X486221D02*
D03*
X466536Y240157D02*
D03*
X423228Y232283D02*
D03*
X446851D02*
D03*
X419291D02*
D03*
X450788D02*
D03*
X407480Y236220D02*
D03*
X383858Y314961D02*
D03*
X395669Y244094D02*
D03*
X415354Y232283D02*
D03*
X454725D02*
D03*
X399606Y240157D02*
D03*
X431102Y228346D02*
D03*
X438977D02*
D03*
X466536Y236220D02*
D03*
Y338583D02*
D03*
X379921Y263779D02*
D03*
X383858Y318898D02*
D03*
X490158Y311024D02*
D03*
X427165Y228346D02*
D03*
X442914D02*
D03*
X411417Y232283D02*
D03*
X458662D02*
D03*
X423228Y228346D02*
D03*
X446851D02*
D03*
X391732Y244094D02*
D03*
X474410Y240157D02*
D03*
X375984Y271653D02*
D03*
X419291Y228346D02*
D03*
X450788D02*
D03*
X490158Y259842D02*
D03*
Y314961D02*
D03*
X462599Y232283D02*
D03*
X399606Y236220D02*
D03*
X383858Y251968D02*
D03*
X375984Y307087D02*
D03*
X415354Y228346D02*
D03*
X454725D02*
D03*
X403543Y232283D02*
D03*
X466536D02*
D03*
X411417Y228346D02*
D03*
X458662D02*
D03*
X391732Y240157D02*
D03*
X387795Y330709D02*
D03*
X482284D02*
D03*
X478347Y334646D02*
D03*
X474410Y236220D02*
D03*
X383858Y248031D02*
D03*
X462599Y228346D02*
D03*
X490158Y322835D02*
D03*
X470473Y232283D02*
D03*
X482284Y240157D02*
D03*
X383858Y330709D02*
D03*
X375984Y318898D02*
D03*
X403543Y228346D02*
D03*
X466536D02*
D03*
X395669Y232283D02*
D03*
X474410D02*
D03*
Y342520D02*
D03*
X375984Y322835D02*
D03*
X470473Y228346D02*
D03*
X383858Y240157D02*
D03*
X482284Y236220D02*
D03*
X478347Y232283D02*
D03*
X391732Y342520D02*
D03*
X494095Y248031D02*
D03*
X395669Y228346D02*
D03*
X474410D02*
D03*
X383858Y236220D02*
D03*
X486221D02*
D03*
X383858Y338583D02*
D03*
X379921Y334646D02*
D03*
X387795Y232283D02*
D03*
X482284D02*
D03*
X375984Y330709D02*
D03*
X478347Y228346D02*
D03*
X383858Y232283D02*
D03*
X486221D02*
D03*
X375984Y334646D02*
D03*
X387795Y228346D02*
D03*
X482284D02*
D03*
X379921Y232283D02*
D03*
X494882Y336614D02*
D03*
X486221Y228346D02*
D03*
X494095Y232283D02*
D03*
X379921Y228346D02*
D03*
X482283Y299213D02*
D03*
X494095Y291339D02*
D03*
X490158Y303150D02*
D03*
X497047Y305118D02*
D03*
X486221Y299212D02*
D03*
X454725Y295276D02*
D03*
Y299213D02*
D03*
X387795D02*
D03*
X395669Y291338D02*
D03*
Y295275D02*
D03*
X391732Y291338D02*
D03*
X391732Y295276D02*
D03*
X399606Y271654D02*
D03*
X403543D02*
D03*
X407480D02*
D03*
X387795Y263780D02*
D03*
X374016Y269685D02*
D03*
X374016Y257874D02*
D03*
X403543Y267717D02*
D03*
X399606D02*
D03*
Y259842D02*
D03*
X395669Y263780D02*
D03*
X399606Y275591D02*
D03*
X395669Y271653D02*
D03*
Y267716D02*
D03*
X399606Y287401D02*
D03*
X407480D02*
D03*
X403543Y287402D02*
D03*
X379921Y259842D02*
D03*
X387795Y255905D02*
D03*
X383858Y255905D02*
D03*
X379921Y255906D02*
D03*
X419291Y259842D02*
D03*
Y255905D02*
D03*
X454725Y342520D02*
D03*
X482283Y318898D02*
D03*
X470472Y307086D02*
D03*
X474409Y311023D02*
D03*
X494882Y320866D02*
D03*
X480315Y347244D02*
D03*
X460630D02*
D03*
X440945D02*
D03*
X494882Y340551D02*
D03*
X478346Y326772D02*
D03*
X482283D02*
D03*
X486220Y330709D02*
D03*
X482283Y338583D02*
D03*
X466536Y322835D02*
D03*
X470473Y326772D02*
D03*
X474410D02*
D03*
X470472Y322835D02*
D03*
X474409Y322835D02*
D03*
X478347Y330709D02*
D03*
X474410D02*
D03*
X478346Y338583D02*
D03*
X438977Y342520D02*
D03*
X442914Y334646D02*
D03*
X446851D02*
D03*
X450788D02*
D03*
X454725Y330709D02*
D03*
X458662Y326772D02*
D03*
Y330709D02*
D03*
X462599D02*
D03*
X466536D02*
D03*
X454725Y334646D02*
D03*
X458662Y338583D02*
D03*
X466536Y334646D02*
D03*
X470473D02*
D03*
X474409Y338583D02*
D03*
X442913Y342520D02*
D03*
X466535D02*
D03*
X431102Y279527D02*
D03*
X431103Y287402D02*
D03*
X427166Y283465D02*
D03*
X423228Y279528D02*
D03*
X427165Y287401D02*
D03*
X423228Y291339D02*
D03*
X435040Y303150D02*
D03*
X431103D02*
D03*
X427165D02*
D03*
X423228D02*
D03*
X435039Y299213D02*
D03*
X438976D02*
D03*
X442913Y299213D02*
D03*
X435039Y291339D02*
D03*
X438976D02*
D03*
X442913D02*
D03*
X435039Y283464D02*
D03*
X438976D02*
D03*
X442913D02*
D03*
X446850D02*
D03*
X435039Y279527D02*
D03*
X438976D02*
D03*
X442913D02*
D03*
X446850D02*
D03*
X435039Y275590D02*
D03*
X438976D02*
D03*
X442913D02*
D03*
X446850D02*
D03*
X454725Y283465D02*
D03*
X435039Y295276D02*
D03*
X438976D02*
D03*
X442913D02*
D03*
X435039Y307087D02*
D03*
X438976D02*
D03*
X442913D02*
D03*
X446850D02*
D03*
Y299212D02*
D03*
Y295275D02*
D03*
Y291338D02*
D03*
Y287401D02*
D03*
X470473Y267717D02*
D03*
X403543Y251969D02*
D03*
X399606Y248032D02*
D03*
X435040Y255905D02*
D03*
X431103Y255905D02*
D03*
X427165D02*
D03*
X435040Y251968D02*
D03*
X431103Y251968D02*
D03*
X423228D02*
D03*
X458661Y263779D02*
D03*
X474409Y244094D02*
D03*
X395669Y236220D02*
D03*
X462598Y287402D02*
D03*
X466535Y311023D02*
D03*
X454724Y311024D02*
D03*
X411417Y314960D02*
D03*
X411417Y318897D02*
D03*
X438976Y330709D02*
D03*
Y338583D02*
D03*
X435039Y259843D02*
D03*
X438977Y255906D02*
D03*
X458661Y251969D02*
D03*
X415354D02*
D03*
X438977Y326771D02*
D03*
X435040Y244094D02*
D03*
X423228Y287402D02*
D03*
X423228Y283464D02*
D03*
X419291Y303149D02*
D03*
X454725Y326772D02*
D03*
X423228Y314961D02*
D03*
X419291Y244094D02*
D03*
X411417D02*
D03*
X411417Y248032D02*
D03*
X438976Y240157D02*
D03*
Y236220D02*
D03*
X435040Y232283D02*
D03*
X427166Y236220D02*
D03*
X427165Y240157D02*
D03*
X462598Y251969D02*
D03*
X454724Y240157D02*
D03*
Y236220D02*
D03*
X478347Y291338D02*
D03*
X383858Y307087D02*
D03*
X403543D02*
D03*
X403543Y303149D02*
D03*
X379921Y314961D02*
D03*
X474409Y318898D02*
D03*
X383858Y322834D02*
D03*
X411417Y267716D02*
D03*
X403543Y279528D02*
D03*
X403543Y334646D02*
D03*
Y338583D02*
D03*
X395669D02*
D03*
X399606D02*
D03*
X391732Y334646D02*
D03*
X387795D02*
D03*
Y342520D02*
D03*
Y338583D02*
D03*
X411417Y342520D02*
D03*
Y338583D02*
D03*
X423228Y342520D02*
D03*
X423228Y338583D02*
D03*
X381890Y347244D02*
D03*
X401575D02*
D03*
X458662Y291339D02*
D03*
X454725D02*
D03*
X415354Y287401D02*
D03*
X415354Y291339D02*
D03*
X494052Y259885D02*
D03*
X495276Y281496D02*
D03*
X486221Y275590D02*
D03*
X494095Y255905D02*
D03*
M02*
