%FSLAX25Y25*%
%MOIN*%
G70*
G01*
G75*
G04 Layer_Physical_Order=5*
G04 Layer_Color=128*
%ADD10C,0.00591*%
%ADD11C,0.00591*%
%ADD12C,0.00492*%
%ADD13R,0.03347X0.05118*%
%ADD14R,0.04528X0.05709*%
%ADD15R,0.12598X0.16929*%
%ADD16R,0.03150X0.01575*%
%ADD17R,0.01575X0.03150*%
%ADD18R,0.05709X0.04528*%
%ADD19R,0.03543X0.02756*%
G04:AMPARAMS|DCode=20|XSize=23.62mil|YSize=23.62mil|CornerRadius=2.95mil|HoleSize=0mil|Usage=FLASHONLY|Rotation=90.000|XOffset=0mil|YOffset=0mil|HoleType=Round|Shape=RoundedRectangle|*
%AMROUNDEDRECTD20*
21,1,0.02362,0.01772,0,0,90.0*
21,1,0.01772,0.02362,0,0,90.0*
1,1,0.00591,0.00886,0.00886*
1,1,0.00591,0.00886,-0.00886*
1,1,0.00591,-0.00886,-0.00886*
1,1,0.00591,-0.00886,0.00886*
%
%ADD20ROUNDEDRECTD20*%
%ADD21R,0.02756X0.03543*%
G04:AMPARAMS|DCode=22|XSize=23.62mil|YSize=23.62mil|CornerRadius=2.95mil|HoleSize=0mil|Usage=FLASHONLY|Rotation=180.000|XOffset=0mil|YOffset=0mil|HoleType=Round|Shape=RoundedRectangle|*
%AMROUNDEDRECTD22*
21,1,0.02362,0.01772,0,0,180.0*
21,1,0.01772,0.02362,0,0,180.0*
1,1,0.00591,-0.00886,0.00886*
1,1,0.00591,0.00886,0.00886*
1,1,0.00591,0.00886,-0.00886*
1,1,0.00591,-0.00886,-0.00886*
%
%ADD22ROUNDEDRECTD22*%
%ADD23R,0.05118X0.03347*%
%ADD24R,0.11000X0.08500*%
%ADD25R,0.23622X0.19685*%
%ADD26O,0.06102X0.01378*%
%ADD27R,0.10787X0.12795*%
%ADD28O,0.04134X0.01181*%
%ADD29O,0.01181X0.04134*%
%ADD30R,0.08268X0.08268*%
%ADD31R,0.05906X0.09449*%
%ADD32C,0.03937*%
%ADD33R,0.05512X0.02992*%
%ADD34R,0.12520X0.05000*%
%ADD35R,0.02992X0.05512*%
%ADD36R,0.05000X0.12520*%
%ADD37O,0.00984X0.03150*%
%ADD38O,0.03150X0.00984*%
%ADD39R,0.21654X0.21654*%
%ADD40O,0.00984X0.05709*%
%ADD41R,0.29528X0.29528*%
%ADD42O,0.00984X0.03543*%
%ADD43O,0.03543X0.00984*%
%ADD44C,0.01772*%
%ADD45C,0.01575*%
%ADD46C,0.01969*%
%ADD47R,0.07087X0.08661*%
%ADD48R,0.08661X0.07087*%
%ADD49R,0.14961X0.11024*%
%ADD50R,0.03543X0.03740*%
%ADD51C,0.05906*%
%ADD52C,0.01181*%
%ADD53C,0.00984*%
%ADD54C,0.03937*%
%ADD55C,0.00787*%
%ADD56C,0.00551*%
%ADD57C,0.00394*%
%ADD58P,0.05966X8X22.5*%
%ADD59C,0.05512*%
%ADD60C,0.05906*%
%ADD61C,0.07874*%
%ADD62C,0.09843*%
%ADD63C,0.15748*%
%ADD64C,0.04724*%
%ADD65R,0.07874X0.07874*%
%ADD66R,0.07874X0.07874*%
G04:AMPARAMS|DCode=67|XSize=62.99mil|YSize=62.99mil|CornerRadius=15.75mil|HoleSize=0mil|Usage=FLASHONLY|Rotation=90.000|XOffset=0mil|YOffset=0mil|HoleType=Round|Shape=RoundedRectangle|*
%AMROUNDEDRECTD67*
21,1,0.06299,0.03150,0,0,90.0*
21,1,0.03150,0.06299,0,0,90.0*
1,1,0.03150,0.01575,0.01575*
1,1,0.03150,0.01575,-0.01575*
1,1,0.03150,-0.01575,-0.01575*
1,1,0.03150,-0.01575,0.01575*
%
%ADD67ROUNDEDRECTD67*%
%ADD68C,0.06299*%
%ADD69C,0.02559*%
%ADD70C,0.02953*%
%ADD71C,0.02362*%
%ADD72C,0.02756*%
%ADD73C,0.01575*%
%ADD74C,0.01969*%
%ADD75C,0.08661*%
%ADD76C,0.06693*%
%ADD77C,0.03937*%
%ADD78C,0.03740*%
%ADD79C,0.03543*%
%ADD80C,0.03150*%
%ADD81C,0.04331*%
%ADD82C,0.03347*%
%ADD83C,0.00512*%
%ADD84C,0.00494*%
%ADD85C,0.02756*%
%ADD86C,0.02362*%
%ADD87C,0.09449*%
%ADD88C,0.10630*%
D60*
X535669Y466535D02*
D03*
X554882D02*
D03*
X603504Y442008D02*
D03*
Y435118D02*
D03*
Y408543D02*
D03*
Y415433D02*
D03*
Y425276D02*
D03*
D63*
X633858Y484252D02*
D03*
Y114173D02*
D03*
X145669D02*
D03*
Y484252D02*
D03*
D68*
X622047Y328898D02*
D03*
Y308898D02*
D03*
Y318898D02*
D03*
X547244Y202756D02*
D03*
X557244Y202756D02*
D03*
X557244Y162756D02*
D03*
X557244Y172756D02*
D03*
Y182756D02*
D03*
X557244Y192756D02*
D03*
X547244D02*
D03*
Y182756D02*
D03*
Y172756D02*
D03*
Y162756D02*
D03*
X610236Y202756D02*
D03*
X620236Y202756D02*
D03*
X620236Y162756D02*
D03*
X620236Y172756D02*
D03*
Y182756D02*
D03*
X620236Y192756D02*
D03*
X610236D02*
D03*
Y182756D02*
D03*
Y172756D02*
D03*
Y162756D02*
D03*
D73*
X296949Y235531D02*
X298228Y234252D01*
X484252Y332677D02*
X486221D01*
X484252Y328740D02*
Y332677D01*
X480315Y328740D02*
X484252D01*
X480315Y324803D02*
Y328740D01*
X472441Y316929D02*
X480315Y324803D01*
X468504Y316929D02*
X472441D01*
X468504Y312992D02*
Y316929D01*
X460630Y309055D02*
X464567D01*
X458661Y307087D02*
X460630Y309055D01*
X450788Y307087D02*
X458661D01*
X450788Y307087D02*
X450788Y307087D01*
X464567Y312992D02*
X468504D01*
X464567Y309055D02*
Y312992D01*
X388233Y234252D02*
X389764Y235783D01*
X298228Y234252D02*
X387672D01*
D74*
X440945Y435039D02*
X445866Y439961D01*
X440945Y411417D02*
X445866Y406496D01*
X440945Y411417D02*
Y435039D01*
X445866Y439961D02*
X518701D01*
X525591Y446850D01*
X541339D01*
X562992Y468504D01*
X598425D01*
X547358Y402937D02*
X561138D01*
X568898Y410697D01*
Y427165D01*
X445866Y406496D02*
X522638D01*
X526197Y402937D01*
X547358D01*
X568898Y427165D02*
X602362Y460630D01*
Y464567D01*
X598425Y468504D02*
X602362Y464567D01*
X598425Y468504D02*
Y468504D01*
X133858Y438976D02*
X171260D01*
X179134Y446850D01*
X230315D01*
X253937Y423228D01*
X275590D01*
X287402Y411417D01*
X318898D01*
X320866Y409449D01*
Y377953D02*
Y409449D01*
X318898Y375984D02*
X320866Y377953D01*
X287402Y375984D02*
X318898D01*
X283465Y379921D02*
X287402Y375984D01*
X279528Y379921D02*
X283465D01*
X275590Y375984D02*
X279528Y379921D01*
X275590Y350394D02*
Y375984D01*
X259842Y334646D02*
X275590Y350394D01*
X206693Y334646D02*
X259842D01*
X188976Y316929D02*
X206693Y334646D01*
X133858Y316929D02*
X188976D01*
X367126Y329724D02*
X372047Y324803D01*
X354331Y329724D02*
X367126D01*
X349410Y334646D02*
X354331Y329724D01*
X349410Y334646D02*
Y349410D01*
X354331Y354331D01*
X482283D01*
X487205Y349410D01*
Y332677D02*
Y349410D01*
X231299Y269685D02*
Y276575D01*
X237205Y282480D01*
Y302165D01*
X192913Y305118D02*
X234252D01*
X222441Y260827D02*
X231299Y269685D01*
X190945Y260827D02*
X222441D01*
X187008Y264764D02*
X190945Y260827D01*
X187008Y264764D02*
Y299213D01*
X192913Y305118D01*
X372047Y324803D02*
X384646D01*
X401181Y324803D01*
X296949Y235531D02*
Y290256D01*
X320866Y314173D01*
X361417D01*
X372047Y324803D01*
X572835Y235236D02*
Y275590D01*
X560236Y288189D02*
X572835Y275590D01*
X560236Y288189D02*
Y301968D01*
X544291Y317913D02*
X560236Y301968D01*
X569783Y232185D02*
X572835Y235236D01*
X498130Y232185D02*
X569783D01*
X486221Y332677D02*
X500000D01*
X514764Y317913D01*
X544291D01*
X590551Y358268D02*
X602362D01*
X606299Y354331D01*
Y338583D02*
Y354331D01*
Y338583D02*
X614173Y330709D01*
X519685Y147638D02*
X574803D01*
X592520Y165354D01*
Y212598D01*
X608268Y228346D01*
Y303150D01*
X588583Y322835D02*
X608268Y303150D01*
X576772Y334646D02*
X588583Y322835D01*
X576772Y334646D02*
Y354331D01*
X580709Y358268D01*
X590551D01*
X614173Y330709D02*
X620079Y324803D01*
X645669D01*
X476378Y147638D02*
X519685D01*
X275590D02*
X476378D01*
X263779Y102362D02*
Y135827D01*
X450788Y300197D02*
Y307087D01*
X421260Y263779D02*
X423228Y261811D01*
Y255512D02*
Y261811D01*
X419737Y252021D02*
X423228Y255512D01*
X408109Y252418D02*
X419737Y252021D01*
X421260Y301181D02*
Y304331D01*
Y263779D02*
Y301181D01*
X450787Y275098D02*
X450788Y300197D01*
X448819Y309055D02*
X450788Y307087D01*
X432677Y309055D02*
X448819D01*
X425555D02*
X432677D01*
X416929D02*
X425555D01*
X421242D02*
X421260Y304724D01*
X401181Y324803D02*
X416929Y309055D01*
X450787Y275098D02*
X498130Y232185D01*
X498032Y220472D02*
X498130Y232185D01*
X478346Y200787D02*
X498032Y220472D01*
X385827D02*
X405512Y200787D01*
X478346D01*
X263779Y135827D02*
X275590Y147638D01*
X385827Y220472D02*
Y233661D01*
X387672Y234252D02*
X408109Y252418D01*
X234252Y305118D02*
X237205Y302165D01*
D75*
X155669Y198661D02*
D03*
Y336457D02*
D03*
Y419134D02*
D03*
X623858Y360079D02*
D03*
D76*
X621220Y430197D02*
D03*
X613346D02*
D03*
Y420354D02*
D03*
X621220D02*
D03*
X224409Y488189D02*
D03*
X208661D02*
D03*
X240157D02*
D03*
X192913D02*
D03*
X177165D02*
D03*
X618110D02*
D03*
Y468504D02*
D03*
X637795D02*
D03*
Y385827D02*
D03*
Y334646D02*
D03*
Y318898D02*
D03*
Y287402D02*
D03*
Y303150D02*
D03*
Y255906D02*
D03*
Y271654D02*
D03*
Y224409D02*
D03*
Y240157D02*
D03*
Y192913D02*
D03*
Y208661D02*
D03*
X618110Y129921D02*
D03*
Y110236D02*
D03*
X602362D02*
D03*
X586614D02*
D03*
X555118D02*
D03*
X570866D02*
D03*
X539370D02*
D03*
X523622D02*
D03*
X492126D02*
D03*
X507874D02*
D03*
X476378D02*
D03*
X460630D02*
D03*
X429134D02*
D03*
X444882D02*
D03*
X413386D02*
D03*
X397638D02*
D03*
X366142D02*
D03*
X381890D02*
D03*
X350394D02*
D03*
X334646D02*
D03*
X303150D02*
D03*
X318898D02*
D03*
X287402D02*
D03*
X271654D02*
D03*
X240157D02*
D03*
X255906D02*
D03*
X224409D02*
D03*
X208661D02*
D03*
X177165D02*
D03*
X192913D02*
D03*
X161417D02*
D03*
X637795Y129921D02*
D03*
Y145669D02*
D03*
Y161417D02*
D03*
Y177165D02*
D03*
X141732Y129921D02*
D03*
X161417D02*
D03*
X141732Y145669D02*
D03*
Y161417D02*
D03*
Y177165D02*
D03*
Y224409D02*
D03*
Y240157D02*
D03*
Y255906D02*
D03*
Y271654D02*
D03*
Y287402D02*
D03*
Y303150D02*
D03*
Y358268D02*
D03*
Y374016D02*
D03*
Y389764D02*
D03*
Y468504D02*
D03*
X161417D02*
D03*
Y488189D02*
D03*
X141732Y452756D02*
D03*
X570866Y488189D02*
D03*
X555118D02*
D03*
X602362D02*
D03*
X586614D02*
D03*
X507874D02*
D03*
X492126D02*
D03*
X539370D02*
D03*
X523622D02*
D03*
X444882D02*
D03*
X429134D02*
D03*
X476378D02*
D03*
X460630D02*
D03*
X381890D02*
D03*
X366142D02*
D03*
X413386D02*
D03*
X397638D02*
D03*
X334646D02*
D03*
X350394D02*
D03*
X303150D02*
D03*
X318898D02*
D03*
X271654D02*
D03*
X287402D02*
D03*
X255906D02*
D03*
D77*
X498032Y155512D02*
D03*
X494095D02*
D03*
X490158D02*
D03*
X486221Y169291D02*
D03*
X372047Y155512D02*
D03*
X368110D02*
D03*
X364173D02*
D03*
X204921Y196850D02*
D03*
Y204724D02*
D03*
X207874Y200787D02*
D03*
X328150Y203150D02*
D03*
X551181Y461614D02*
D03*
X454724Y447835D02*
D03*
X450787Y446851D02*
D03*
X458661D02*
D03*
X422244Y442913D02*
D03*
X524606Y473425D02*
D03*
X565945Y473425D02*
D03*
X573819Y462598D02*
D03*
X589567Y462599D02*
D03*
X605315Y462598D02*
D03*
X276575Y430118D02*
D03*
X304134Y415354D02*
D03*
X260827Y417323D02*
D03*
X256890Y419291D02*
D03*
X264764D02*
D03*
X256890Y427165D02*
D03*
X264764D02*
D03*
X260827Y429134D02*
D03*
X268701Y430118D02*
D03*
X272638Y431102D02*
D03*
X311024Y430118D02*
D03*
X333661Y377953D02*
D03*
X304134Y372047D02*
D03*
X311024Y420276D02*
D03*
X312992Y417323D02*
D03*
X318898Y373031D02*
D03*
X323819Y377953D02*
D03*
X384842Y155512D02*
D03*
X165157Y163779D02*
D03*
Y155906D02*
D03*
X162205Y159843D02*
D03*
X202756Y188976D02*
D03*
X261811Y188976D02*
D03*
X212598Y168307D02*
D03*
X250000D02*
D03*
X267717Y238189D02*
D03*
X263780Y235236D02*
D03*
X271653D02*
D03*
X255906Y238189D02*
D03*
X251969Y235236D02*
D03*
X259842D02*
D03*
X583661Y230315D02*
D03*
X580709Y234252D02*
D03*
Y226378D02*
D03*
X288386Y244094D02*
D03*
Y236221D02*
D03*
X285433Y240158D02*
D03*
X594488Y223425D02*
D03*
X588583Y228346D02*
D03*
X591535Y226378D02*
D03*
X537402Y339567D02*
D03*
X546260Y348425D02*
D03*
X570866Y281102D02*
D03*
X350394Y229331D02*
D03*
X342913Y227165D02*
D03*
X319488Y203150D02*
D03*
X367126Y206693D02*
D03*
X358268Y206693D02*
D03*
X349410D02*
D03*
X372047Y210630D02*
D03*
X520669Y227362D02*
D03*
X540354Y342520D02*
D03*
X543307Y345472D02*
D03*
X593504Y307087D02*
D03*
X589567Y312992D02*
D03*
X172244Y282480D02*
D03*
X172244Y291339D02*
D03*
X192913Y268701D02*
D03*
Y262795D02*
D03*
X200787Y266732D02*
D03*
X186024Y244094D02*
D03*
X205709Y244094D02*
D03*
X205709Y262795D02*
D03*
X213583Y254921D02*
D03*
X219488D02*
D03*
X164370Y261811D02*
D03*
X167323Y239173D02*
D03*
X195866Y266732D02*
D03*
X208661Y264764D02*
D03*
X190945Y271654D02*
D03*
X226378Y270669D02*
D03*
Y280512D02*
D03*
X227362Y274606D02*
D03*
X229331Y277559D02*
D03*
X183071Y370079D02*
D03*
X181732Y323425D02*
D03*
X217165Y437008D02*
D03*
X181732Y432480D02*
D03*
X482283Y142717D02*
D03*
Y139764D02*
D03*
X485236D02*
D03*
Y142717D02*
D03*
X450787Y169291D02*
D03*
X453740D02*
D03*
X456693D02*
D03*
X459646D02*
D03*
X491142Y166260D02*
D03*
X497047D02*
D03*
X512795Y172323D02*
D03*
X506890D02*
D03*
X404527Y172323D02*
D03*
X398622D02*
D03*
X420275D02*
D03*
X414370D02*
D03*
X414370Y166260D02*
D03*
X420275D02*
D03*
X497047Y172323D02*
D03*
X491142D02*
D03*
X509842Y155512D02*
D03*
X503937Y150591D02*
D03*
X446850Y161417D02*
D03*
X359252Y142716D02*
D03*
Y139763D02*
D03*
X356299D02*
D03*
Y142716D02*
D03*
X333661Y169291D02*
D03*
X330708D02*
D03*
X327755D02*
D03*
X324803D02*
D03*
X365158Y171338D02*
D03*
X371063D02*
D03*
X381890D02*
D03*
X387795D02*
D03*
X371063Y166260D02*
D03*
X365158D02*
D03*
X289370Y172323D02*
D03*
X295275D02*
D03*
X272638D02*
D03*
X278543D02*
D03*
X295276Y166260D02*
D03*
X289370D02*
D03*
X377953Y150591D02*
D03*
X320866Y161417D02*
D03*
X311024Y152559D02*
D03*
X437008D02*
D03*
X348819Y164961D02*
D03*
X588583Y181102D02*
D03*
X567913Y354331D02*
D03*
X366142Y229331D02*
D03*
X240158Y299213D02*
D03*
Y293307D02*
D03*
X234252Y299213D02*
D03*
Y293307D02*
D03*
X429134Y392717D02*
D03*
X531496Y138779D02*
D03*
X535433D02*
D03*
D78*
X478347Y283464D02*
D03*
X474410D02*
D03*
X408465Y349410D02*
D03*
X437008Y347441D02*
D03*
X407480Y338583D02*
D03*
X470473Y330709D02*
D03*
X462598Y322835D02*
D03*
X454725Y251968D02*
D03*
X446850Y259843D02*
D03*
X466535Y314961D02*
D03*
Y318898D02*
D03*
X470473Y314960D02*
D03*
X427166Y330708D02*
D03*
X458661Y318898D02*
D03*
X454725Y279528D02*
D03*
X458662Y279527D02*
D03*
X383858Y228346D02*
D03*
X470473Y318897D02*
D03*
X478346Y244094D02*
D03*
X411417Y255906D02*
D03*
X415354Y255905D02*
D03*
X387795Y244094D02*
D03*
X391732Y248032D02*
D03*
X454725Y314960D02*
D03*
X446851Y322834D02*
D03*
X438977Y318897D02*
D03*
X446851Y326771D02*
D03*
X442914Y330709D02*
D03*
X466535Y283464D02*
D03*
X411417Y307087D02*
D03*
X407480Y314961D02*
D03*
X391732Y322835D02*
D03*
X391732Y314961D02*
D03*
X399606Y279528D02*
D03*
X419291Y334645D02*
D03*
X423228Y330708D02*
D03*
X419291Y338583D02*
D03*
X415354D02*
D03*
X415354Y322834D02*
D03*
X411417Y326772D02*
D03*
X415354Y326771D02*
D03*
X415354Y330709D02*
D03*
X411417Y330708D02*
D03*
X411417Y334646D02*
D03*
X407480Y326772D02*
D03*
X423228Y346457D02*
D03*
X435040Y338583D02*
D03*
X383858Y291339D02*
D03*
X383858Y287402D02*
D03*
X379921Y287402D02*
D03*
X383858Y283465D02*
D03*
X383858Y279527D02*
D03*
X383858Y275590D02*
D03*
X387795Y283464D02*
D03*
X379921Y267716D02*
D03*
Y271653D02*
D03*
X387795Y279528D02*
D03*
X375000Y293307D02*
D03*
X411417Y295276D02*
D03*
X411417Y291338D02*
D03*
X490157Y295276D02*
D03*
X494095Y295275D02*
D03*
Y263779D02*
D03*
X482282Y271653D02*
D03*
X454725Y275591D02*
D03*
X486023Y271654D02*
D03*
X486220Y248031D02*
D03*
X490158Y251968D02*
D03*
Y255905D02*
D03*
X486221Y259842D02*
D03*
X482283Y255905D02*
D03*
X431102Y283464D02*
D03*
X427165Y291339D02*
D03*
X431102Y295276D02*
D03*
X427165Y279527D02*
D03*
X431102Y275590D02*
D03*
X427165Y299213D02*
D03*
X423228Y295275D02*
D03*
X438977Y271653D02*
D03*
X423228Y275590D02*
D03*
X419291Y279527D02*
D03*
X442914Y303150D02*
D03*
X419291Y299213D02*
D03*
X427165Y267716D02*
D03*
X415354Y295276D02*
D03*
X442914Y263779D02*
D03*
X450788Y267716D02*
D03*
X411417Y279527D02*
D03*
X458662Y295276D02*
D03*
Y299213D02*
D03*
X419292Y263780D02*
D03*
X431102Y259842D02*
D03*
X438977Y314961D02*
D03*
X450788Y311024D02*
D03*
X458662Y303150D02*
D03*
X407480Y283464D02*
D03*
X427165Y259842D02*
D03*
X450788D02*
D03*
X427165Y318898D02*
D03*
X466536Y295276D02*
D03*
X458662Y311024D02*
D03*
X446851Y255905D02*
D03*
X423228Y318898D02*
D03*
X446851D02*
D03*
X454725Y259842D02*
D03*
X462599Y267716D02*
D03*
X466536Y275590D02*
D03*
X407480Y307087D02*
D03*
X462599D02*
D03*
X403543Y299213D02*
D03*
X466536Y271653D02*
D03*
X411417Y259842D02*
D03*
X399606Y291339D02*
D03*
X470473D02*
D03*
X442914Y251968D02*
D03*
X470473Y295276D02*
D03*
X454725Y255905D02*
D03*
X466536Y267716D02*
D03*
Y307087D02*
D03*
X446851Y251968D02*
D03*
X399606Y299213D02*
D03*
X462599Y314961D02*
D03*
X399606Y303150D02*
D03*
X466536Y263779D02*
D03*
X431102Y248031D02*
D03*
X395669Y283464D02*
D03*
X474410Y291339D02*
D03*
X427165Y248031D02*
D03*
X442914D02*
D03*
Y326772D02*
D03*
X454725Y322835D02*
D03*
X474410Y295276D02*
D03*
X423228Y248031D02*
D03*
X446851D02*
D03*
X407480Y255905D02*
D03*
X450788Y248031D02*
D03*
X411417Y322835D02*
D03*
X474410Y303150D02*
D03*
X399606Y311024D02*
D03*
X438977Y244094D02*
D03*
X415354Y248031D02*
D03*
X474410Y267716D02*
D03*
X391732Y283464D02*
D03*
Y287401D02*
D03*
X395669Y307087D02*
D03*
X427165Y244094D02*
D03*
X403543Y255905D02*
D03*
X466536D02*
D03*
X478347Y279527D02*
D03*
X446851Y244094D02*
D03*
X478347Y275590D02*
D03*
X458662Y248031D02*
D03*
X395669Y311024D02*
D03*
X419291Y330709D02*
D03*
X478347Y271653D02*
D03*
X391732Y303150D02*
D03*
X466536Y251968D02*
D03*
X454725Y244094D02*
D03*
X478347Y267716D02*
D03*
X391732Y307087D02*
D03*
X431102Y240157D02*
D03*
X407480Y248031D02*
D03*
X474410Y259842D02*
D03*
X395669Y314961D02*
D03*
X482284Y283464D02*
D03*
X387795Y291339D02*
D03*
X482284D02*
D03*
Y279527D02*
D03*
Y295276D02*
D03*
X387795Y275590D02*
D03*
X482284D02*
D03*
X391732Y263779D02*
D03*
X450788Y240157D02*
D03*
X470473Y251968D02*
D03*
X399606Y322835D02*
D03*
X387795Y271653D02*
D03*
X474410Y255905D02*
D03*
X466536Y326772D02*
D03*
X395669Y318898D02*
D03*
X462599Y244094D02*
D03*
X415354Y334646D02*
D03*
X478347Y259842D02*
D03*
X482284Y267716D02*
D03*
X415354Y240157D02*
D03*
X431102Y236220D02*
D03*
X486221Y283464D02*
D03*
Y291339D02*
D03*
Y279527D02*
D03*
Y295276D02*
D03*
X446851Y338583D02*
D03*
X458662Y334646D02*
D03*
X399606Y326772D02*
D03*
X403543Y244094D02*
D03*
X450788Y236220D02*
D03*
X407480Y240157D02*
D03*
X387795Y259842D02*
D03*
X482284D02*
D03*
X415354Y236221D02*
D03*
X383858Y267716D02*
D03*
X486221D02*
D03*
X474410Y248031D02*
D03*
X470473Y244094D02*
D03*
X438977Y232283D02*
D03*
X427165D02*
D03*
X442914D02*
D03*
X383858Y263779D02*
D03*
X486221D02*
D03*
X466536Y240157D02*
D03*
X423228Y232283D02*
D03*
X446851D02*
D03*
X419291D02*
D03*
X450788D02*
D03*
X407480Y236220D02*
D03*
X383858Y314961D02*
D03*
X395669Y244094D02*
D03*
X415354Y232283D02*
D03*
X454725D02*
D03*
X399606Y240157D02*
D03*
X431102Y228346D02*
D03*
X438977D02*
D03*
X466536Y236220D02*
D03*
X379921Y263779D02*
D03*
X383858Y318898D02*
D03*
X490158Y311024D02*
D03*
X427165Y228346D02*
D03*
X442914D02*
D03*
X411417Y232283D02*
D03*
X458662D02*
D03*
X423228Y228346D02*
D03*
X446851D02*
D03*
X391732Y244094D02*
D03*
X474410Y240157D02*
D03*
X375984Y271653D02*
D03*
X419291Y228346D02*
D03*
X450788D02*
D03*
X490158Y259842D02*
D03*
Y314961D02*
D03*
X462599Y232283D02*
D03*
X399606Y236220D02*
D03*
X383858Y251968D02*
D03*
X375984Y307087D02*
D03*
X415354Y228346D02*
D03*
X454725D02*
D03*
X403543Y232283D02*
D03*
X466536D02*
D03*
X411417Y228346D02*
D03*
X458662D02*
D03*
X391732Y240157D02*
D03*
X387795Y330709D02*
D03*
X482284D02*
D03*
X474410Y236220D02*
D03*
X383858Y248031D02*
D03*
X462599Y228346D02*
D03*
X490158Y322835D02*
D03*
X470473Y232283D02*
D03*
X482284Y240157D02*
D03*
X383858Y330709D02*
D03*
X375984Y318898D02*
D03*
X403543Y228346D02*
D03*
X466536D02*
D03*
X395669Y232283D02*
D03*
X474410D02*
D03*
Y342520D02*
D03*
X375984Y322835D02*
D03*
X470473Y228346D02*
D03*
X383858Y240157D02*
D03*
X482284Y236220D02*
D03*
X478347Y232283D02*
D03*
X391732Y342520D02*
D03*
X494095Y248031D02*
D03*
X395669Y228346D02*
D03*
X474410D02*
D03*
X383858Y236220D02*
D03*
X486221D02*
D03*
X379921Y334646D02*
D03*
X387795Y232283D02*
D03*
X482284D02*
D03*
X375984Y330709D02*
D03*
X478347Y228346D02*
D03*
X383858Y232283D02*
D03*
X486221D02*
D03*
X375984Y334646D02*
D03*
X387795Y228346D02*
D03*
X482284D02*
D03*
X379921Y232283D02*
D03*
X494882Y336614D02*
D03*
X486221Y228346D02*
D03*
X494095Y232283D02*
D03*
X379921Y228346D02*
D03*
X482283Y299213D02*
D03*
X494095Y291339D02*
D03*
X490158Y303150D02*
D03*
X497047Y305118D02*
D03*
X486221Y299212D02*
D03*
X454725Y295276D02*
D03*
Y299213D02*
D03*
X395669Y295275D02*
D03*
X391732Y291338D02*
D03*
X391732Y295276D02*
D03*
X399606Y271654D02*
D03*
X403543D02*
D03*
X407480D02*
D03*
X387795Y263780D02*
D03*
X374016Y269685D02*
D03*
X374016Y257874D02*
D03*
X399606Y267717D02*
D03*
Y259842D02*
D03*
X395669Y263780D02*
D03*
X399606Y275591D02*
D03*
X395669Y271653D02*
D03*
Y267716D02*
D03*
X399606Y287401D02*
D03*
X407480D02*
D03*
X403543Y287402D02*
D03*
X379921Y259842D02*
D03*
X383858Y255905D02*
D03*
X379921Y255906D02*
D03*
X419291Y259842D02*
D03*
Y255905D02*
D03*
X470472Y307086D02*
D03*
X474409Y311023D02*
D03*
X494882Y320866D02*
D03*
X460630Y347244D02*
D03*
X494882Y340551D02*
D03*
X478346Y326772D02*
D03*
X482283D02*
D03*
Y338583D02*
D03*
X466536Y322835D02*
D03*
X470473Y326772D02*
D03*
X474410D02*
D03*
X474409Y322835D02*
D03*
X478347Y330709D02*
D03*
X474410D02*
D03*
X478346Y338583D02*
D03*
X438977Y342520D02*
D03*
X442914Y334646D02*
D03*
X446851D02*
D03*
X450788D02*
D03*
X454725Y330709D02*
D03*
X458662Y326772D02*
D03*
Y330709D02*
D03*
X462599D02*
D03*
X466536D02*
D03*
X454725Y334646D02*
D03*
X458662Y338583D02*
D03*
X466536Y334646D02*
D03*
X470473D02*
D03*
X474409Y338583D02*
D03*
X442913Y342520D02*
D03*
X466535D02*
D03*
X435040Y303150D02*
D03*
X427165D02*
D03*
X435039Y299213D02*
D03*
X442913Y299213D02*
D03*
X435039Y291339D02*
D03*
X442913D02*
D03*
X438976Y283464D02*
D03*
X446850D02*
D03*
X435039Y279527D02*
D03*
X442913D02*
D03*
X438976Y275590D02*
D03*
X446850D02*
D03*
X454725Y283465D02*
D03*
X438976Y295276D02*
D03*
X435039Y307087D02*
D03*
X442913D02*
D03*
X446850Y299212D02*
D03*
Y291338D02*
D03*
X470473Y267717D02*
D03*
X403543Y251969D02*
D03*
X399606Y248032D02*
D03*
X435040Y255905D02*
D03*
X431103Y255905D02*
D03*
X427165D02*
D03*
X435040Y251968D02*
D03*
X431103Y251968D02*
D03*
X423228D02*
D03*
X458661Y263779D02*
D03*
X474409Y244094D02*
D03*
X395669Y236220D02*
D03*
X462598Y287402D02*
D03*
X466535Y311023D02*
D03*
X454724Y311024D02*
D03*
X411417Y314960D02*
D03*
X411417Y318897D02*
D03*
X438976Y330709D02*
D03*
Y338583D02*
D03*
X435039Y259843D02*
D03*
X438977Y255906D02*
D03*
X458661Y251969D02*
D03*
X415354D02*
D03*
X423228Y287402D02*
D03*
X419291Y303149D02*
D03*
X454725Y326772D02*
D03*
X423228Y314961D02*
D03*
X419291Y244094D02*
D03*
X411417Y248032D02*
D03*
X438976Y240157D02*
D03*
Y236220D02*
D03*
X435040Y232283D02*
D03*
X427166Y236220D02*
D03*
X427165Y240157D02*
D03*
X462598Y251969D02*
D03*
X454724Y240157D02*
D03*
Y236220D02*
D03*
X383858Y307087D02*
D03*
X403543Y303149D02*
D03*
X379921Y314961D02*
D03*
X474409Y318898D02*
D03*
X411417Y267716D02*
D03*
X403543Y334646D02*
D03*
Y338583D02*
D03*
X395669D02*
D03*
X399606D02*
D03*
X391732Y334646D02*
D03*
X387795D02*
D03*
Y342520D02*
D03*
Y338583D02*
D03*
X411417Y342520D02*
D03*
Y338583D02*
D03*
X423228Y342520D02*
D03*
X423228Y338583D02*
D03*
X381890Y347244D02*
D03*
X458662Y291339D02*
D03*
X454725D02*
D03*
X415354Y287401D02*
D03*
X415354Y291339D02*
D03*
X495276Y281496D02*
D03*
X494095Y255905D02*
D03*
D79*
X335433Y222834D02*
D03*
X331496D02*
D03*
X335433Y218897D02*
D03*
X331496D02*
D03*
X432874Y423032D02*
D03*
X437205D02*
D03*
X432874Y427362D02*
D03*
X437205D02*
D03*
X349803Y153543D02*
D03*
X352362Y150984D02*
D03*
X354921Y153543D02*
D03*
X352362Y156102D02*
D03*
X475787Y153543D02*
D03*
X478346Y150984D02*
D03*
X480905Y153543D02*
D03*
X478346Y156102D02*
D03*
X229134Y162795D02*
D03*
X233465D02*
D03*
X229134Y158464D02*
D03*
X233465D02*
D03*
X229134Y154134D02*
D03*
X233465D02*
D03*
X292126Y215748D02*
D03*
X296457D02*
D03*
X292126Y211417D02*
D03*
X296457D02*
D03*
X200000Y275197D02*
D03*
Y279528D02*
D03*
Y283858D02*
D03*
Y288189D02*
D03*
Y292520D02*
D03*
X204331Y275197D02*
D03*
Y279528D02*
D03*
Y283858D02*
D03*
Y288189D02*
D03*
Y292520D02*
D03*
X208661Y275197D02*
D03*
Y279528D02*
D03*
Y283858D02*
D03*
Y288189D02*
D03*
Y292520D02*
D03*
X212992Y275197D02*
D03*
Y279528D02*
D03*
Y283858D02*
D03*
Y288189D02*
D03*
Y292520D02*
D03*
X217323Y275197D02*
D03*
Y279528D02*
D03*
Y283858D02*
D03*
Y288189D02*
D03*
Y292520D02*
D03*
X290157Y406693D02*
D03*
X294488D02*
D03*
X298819D02*
D03*
X303150D02*
D03*
X307480D02*
D03*
X311811D02*
D03*
X316142D02*
D03*
X290157Y402362D02*
D03*
X294488D02*
D03*
X298819D02*
D03*
X303150D02*
D03*
X307480D02*
D03*
X311811D02*
D03*
X316142D02*
D03*
X290157Y398031D02*
D03*
X294488D02*
D03*
X298819D02*
D03*
X303150D02*
D03*
X307480D02*
D03*
X311811D02*
D03*
X316142D02*
D03*
X290157Y393701D02*
D03*
X294488D02*
D03*
X298819D02*
D03*
X303150D02*
D03*
X307480D02*
D03*
X311811D02*
D03*
X316142D02*
D03*
X290157Y389370D02*
D03*
X294488D02*
D03*
X298819D02*
D03*
X303150D02*
D03*
X307480D02*
D03*
X311811D02*
D03*
X316142D02*
D03*
X290157Y385039D02*
D03*
X294488D02*
D03*
X298819D02*
D03*
X303150D02*
D03*
X307480D02*
D03*
X311811D02*
D03*
X316142D02*
D03*
X290157Y380709D02*
D03*
X294488D02*
D03*
X298819D02*
D03*
X303150D02*
D03*
X307480D02*
D03*
X311811D02*
D03*
X316142D02*
D03*
X538583Y258662D02*
D03*
X530315Y250394D02*
D03*
X538609Y254750D02*
D03*
X536614Y262992D02*
D03*
X533465Y259843D02*
D03*
X527166Y250394D02*
D03*
X524410Y250000D02*
D03*
X538583Y264567D02*
D03*
X540158Y267323D02*
D03*
X544602Y425378D02*
D03*
X544602Y422228D02*
D03*
X544602Y428527D02*
D03*
X564173Y400394D02*
D03*
X555905Y393701D02*
D03*
X555512Y400000D02*
D03*
X550902Y415929D02*
D03*
X554051Y441126D02*
D03*
X520669Y457677D02*
D03*
X559055Y453740D02*
D03*
X545276Y446850D02*
D03*
X556102Y445866D02*
D03*
X583661Y409449D02*
D03*
X577756Y416339D02*
D03*
Y419291D02*
D03*
X589567Y418307D02*
D03*
X550902Y419079D02*
D03*
X564288Y428527D02*
D03*
X563500Y437976D02*
D03*
X576772Y407480D02*
D03*
X578740Y402559D02*
D03*
X366142Y343504D02*
D03*
X347441D02*
D03*
X560039Y390748D02*
D03*
X562992Y388779D02*
D03*
X307773Y418993D02*
D03*
X306102Y417323D02*
D03*
X296260Y369094D02*
D03*
X313779Y336221D02*
D03*
X324016Y344882D02*
D03*
X361024Y262992D02*
D03*
X368110Y250984D02*
D03*
X275590Y223425D02*
D03*
X279528D02*
D03*
X277559Y225394D02*
D03*
X279528Y227362D02*
D03*
X275590D02*
D03*
X555512Y266142D02*
D03*
X544882Y261024D02*
D03*
X544095Y263780D02*
D03*
X560630Y276772D02*
D03*
X546063Y272441D02*
D03*
X560630Y273622D02*
D03*
X549213Y269291D02*
D03*
X552362Y256693D02*
D03*
X555512D02*
D03*
X549213Y259843D02*
D03*
X515748Y320866D02*
D03*
X503937Y318898D02*
D03*
X554051Y428527D02*
D03*
Y431677D02*
D03*
Y437976D02*
D03*
Y434827D02*
D03*
X566929Y268898D02*
D03*
Y264173D02*
D03*
X552362Y262992D02*
D03*
X549213Y266142D02*
D03*
X555512Y272441D02*
D03*
X549213Y278740D02*
D03*
X546063D02*
D03*
X549213Y272441D02*
D03*
X556299Y280315D02*
D03*
X312992Y277165D02*
D03*
X320866Y272441D02*
D03*
X317716Y262992D02*
D03*
X324803Y296063D02*
D03*
X526772Y259449D02*
D03*
X507874Y253937D02*
D03*
X533465Y272441D02*
D03*
X545276Y285433D02*
D03*
X549213Y281890D02*
D03*
X552362D02*
D03*
X530315Y229527D02*
D03*
X549213Y229528D02*
D03*
X579921Y260630D02*
D03*
X579921Y270079D02*
D03*
X331693Y230315D02*
D03*
X289370Y260827D02*
D03*
X289370Y269685D02*
D03*
X289370Y274606D02*
D03*
X252756Y401575D02*
D03*
X490866Y463701D02*
D03*
Y453937D02*
D03*
X482205Y443701D02*
D03*
X541453Y419079D02*
D03*
X538303Y419079D02*
D03*
X535154D02*
D03*
X541453Y415929D02*
D03*
X538303D02*
D03*
X535154D02*
D03*
Y412779D02*
D03*
X538303D02*
D03*
X541453D02*
D03*
X528854Y441126D02*
D03*
X535154Y428527D02*
D03*
X538303D02*
D03*
X532004Y431677D02*
D03*
X535154D02*
D03*
X538303D02*
D03*
Y434827D02*
D03*
X535154D02*
D03*
X532004D02*
D03*
X541453D02*
D03*
Y431677D02*
D03*
Y428527D02*
D03*
X550902Y437976D02*
D03*
X563500Y441126D02*
D03*
X560351Y441126D02*
D03*
Y437976D02*
D03*
Y434827D02*
D03*
Y431677D02*
D03*
X554051Y409630D02*
D03*
X557201Y428527D02*
D03*
X563500Y419079D02*
D03*
X560351D02*
D03*
X557201D02*
D03*
Y415929D02*
D03*
X563500D02*
D03*
X560351D02*
D03*
Y412779D02*
D03*
X557201D02*
D03*
X554051D02*
D03*
X550902Y409630D02*
D03*
X557201Y406480D02*
D03*
X528854Y406480D02*
D03*
X344016Y316220D02*
D03*
X299213Y370079D02*
D03*
X279921Y376378D02*
D03*
X282677D02*
D03*
X324016Y396063D02*
D03*
Y399213D02*
D03*
X327953Y392618D02*
D03*
X323228Y410236D02*
D03*
X319685Y413779D02*
D03*
X324016Y250394D02*
D03*
X317716Y250394D02*
D03*
X333465D02*
D03*
X375000Y297244D02*
D03*
X313779Y280315D02*
D03*
X320866Y294488D02*
D03*
X331102Y258268D02*
D03*
X339764Y253543D02*
D03*
X336614Y250394D02*
D03*
Y256693D02*
D03*
X333071Y267717D02*
D03*
Y261417D02*
D03*
X326378Y255118D02*
D03*
X324410Y258268D02*
D03*
Y264567D02*
D03*
X326378Y267717D02*
D03*
X324410Y270866D02*
D03*
X326378Y274016D02*
D03*
X327165Y281890D02*
D03*
X324016Y300787D02*
D03*
X320866D02*
D03*
X324803Y292913D02*
D03*
X324803Y289764D02*
D03*
X320866Y288189D02*
D03*
X313779Y283465D02*
D03*
X324803Y287402D02*
D03*
X325984Y284646D02*
D03*
X330709Y281890D02*
D03*
X333465Y300787D02*
D03*
X336614Y294488D02*
D03*
X336614Y281890D02*
D03*
X509055Y277559D02*
D03*
X579921Y274803D02*
D03*
X560630Y251181D02*
D03*
Y254331D02*
D03*
Y257480D02*
D03*
Y261024D02*
D03*
Y270079D02*
D03*
Y266929D02*
D03*
X527166Y256693D02*
D03*
X526378Y280709D02*
D03*
X527166Y288189D02*
D03*
X533465Y275591D02*
D03*
X495276Y310630D02*
D03*
X536614Y253543D02*
D03*
X544095Y267717D02*
D03*
X552362Y253543D02*
D03*
X544095Y258268D02*
D03*
X527166Y266142D02*
D03*
X530315D02*
D03*
X533465Y266142D02*
D03*
X546063Y253543D02*
D03*
X549213Y250394D02*
D03*
X544095Y250394D02*
D03*
X536614Y269291D02*
D03*
X527166Y272441D02*
D03*
Y297638D02*
D03*
X536614D02*
D03*
X555512Y300788D02*
D03*
Y297638D02*
D03*
X552362Y288189D02*
D03*
X555512Y285039D02*
D03*
Y250394D02*
D03*
X314567Y297638D02*
D03*
Y250394D02*
D03*
X342913Y250394D02*
D03*
Y256693D02*
D03*
X339764Y272441D02*
D03*
Y288189D02*
D03*
X538189Y276378D02*
D03*
X543701Y288189D02*
D03*
X538189Y292914D02*
D03*
X539764Y284252D02*
D03*
X549213Y288189D02*
D03*
X543701Y299213D02*
D03*
X545276Y301969D02*
D03*
X533465Y291339D02*
D03*
X542520Y291339D02*
D03*
X533465Y285039D02*
D03*
X549213D02*
D03*
X546063Y294488D02*
D03*
X549213Y294488D02*
D03*
X313779Y286614D02*
D03*
Y289764D02*
D03*
X342913Y297638D02*
D03*
Y300787D02*
D03*
X320866Y253543D02*
D03*
Y281890D02*
D03*
X333071Y289764D02*
D03*
X336614Y285039D02*
D03*
X333465Y285039D02*
D03*
X339764Y266142D02*
D03*
X313779Y258268D02*
D03*
X333465Y253543D02*
D03*
X328346Y261417D02*
D03*
X317716Y269291D02*
D03*
X320866Y266142D02*
D03*
X362205Y271654D02*
D03*
X342913Y266142D02*
D03*
X339764Y262992D02*
D03*
X336614Y262992D02*
D03*
X331102Y270866D02*
D03*
X333071Y272835D02*
D03*
X320866Y256693D02*
D03*
Y259843D02*
D03*
X355118Y263386D02*
D03*
X324016Y316220D02*
D03*
X535154Y422228D02*
D03*
X538303D02*
D03*
X541453D02*
D03*
X544602Y431677D02*
D03*
X550902Y422228D02*
D03*
X557201D02*
D03*
X560351D02*
D03*
X560351Y428527D02*
D03*
X544602Y419079D02*
D03*
Y415929D02*
D03*
Y412779D02*
D03*
X547752Y431677D02*
D03*
X546177Y441913D02*
D03*
X543028Y405693D02*
D03*
X539878D02*
D03*
X528067Y414354D02*
D03*
Y417504D02*
D03*
Y423803D02*
D03*
Y430102D02*
D03*
Y433252D02*
D03*
Y436402D02*
D03*
X543028Y441913D02*
D03*
X249016Y355315D02*
D03*
X233071Y407480D02*
D03*
X252756Y396457D02*
D03*
X251575Y390748D02*
D03*
X253346Y380709D02*
D03*
X549016Y397342D02*
D03*
X552165Y394587D02*
D03*
X545866D02*
D03*
X542717Y397342D02*
D03*
X526968Y397343D02*
D03*
X530118Y394587D02*
D03*
X536417D02*
D03*
X533267Y397343D02*
D03*
X519390Y404134D02*
D03*
X516634Y394685D02*
D03*
X519390Y397835D02*
D03*
X519390Y419882D02*
D03*
X516634Y410433D02*
D03*
X519390Y413583D02*
D03*
X516634Y426181D02*
D03*
X519390Y429331D02*
D03*
X519390Y451378D02*
D03*
Y445079D02*
D03*
X517421Y416732D02*
D03*
X517225Y400984D02*
D03*
X517421Y448130D02*
D03*
X518405Y433071D02*
D03*
X520177Y434744D02*
D03*
X515945Y441929D02*
D03*
X552165Y378248D02*
D03*
X549016Y381004D02*
D03*
X542717D02*
D03*
X545866Y378248D02*
D03*
X536417Y378248D02*
D03*
X533268Y381004D02*
D03*
X526968D02*
D03*
X530118Y378248D02*
D03*
X500295Y410433D02*
D03*
X503051Y413583D02*
D03*
Y419882D02*
D03*
X500295Y416732D02*
D03*
Y426181D02*
D03*
X503051Y429330D02*
D03*
Y435630D02*
D03*
X500295Y432480D02*
D03*
X500295Y441929D02*
D03*
X503051Y445079D02*
D03*
Y451378D02*
D03*
X500295Y448228D02*
D03*
X500295Y394685D02*
D03*
X503051Y397834D02*
D03*
X500295Y400984D02*
D03*
X503051Y404134D02*
D03*
X313779Y324882D02*
D03*
X439961Y176181D02*
D03*
X579724Y198819D02*
D03*
X574803Y196850D02*
D03*
X526575Y178150D02*
D03*
X525591Y171260D02*
D03*
X558071Y362205D02*
D03*
X556102Y364173D02*
D03*
X555118Y370079D02*
D03*
X289370Y250984D02*
D03*
X372047Y307087D02*
D03*
X580118Y250984D02*
D03*
X505118Y228346D02*
D03*
X576772Y264764D02*
D03*
X324016Y388189D02*
D03*
Y391338D02*
D03*
X327953Y394980D02*
D03*
X294882Y414567D02*
D03*
X291732D02*
D03*
X536614Y278740D02*
D03*
Y281890D02*
D03*
X333071Y292913D02*
D03*
Y296063D02*
D03*
X506299Y277559D02*
D03*
X495276Y273572D02*
D03*
Y277509D02*
D03*
X374016Y289370D02*
D03*
X230315Y249016D02*
D03*
X233268D02*
D03*
X230315Y251969D02*
D03*
Y246063D02*
D03*
X227362Y249016D02*
D03*
X342913Y281890D02*
D03*
D80*
X319685Y223228D02*
D03*
X316535D02*
D03*
X322835D02*
D03*
X344882Y224016D02*
D03*
X347244D02*
D03*
D81*
X218602Y177264D02*
D03*
X583661Y387343D02*
D03*
Y383632D02*
D03*
X319882Y228346D02*
D03*
X248031Y146653D02*
D03*
X237205Y175197D02*
D03*
X533465Y206693D02*
D03*
X584370Y266142D02*
D03*
X600118Y285827D02*
D03*
Y266142D02*
D03*
X584371Y285827D02*
D03*
X584370Y256299D02*
D03*
X600118Y236614D02*
D03*
Y256299D02*
D03*
X584370Y236614D02*
D03*
X622047Y380906D02*
D03*
Y390748D02*
D03*
X512795Y472441D02*
D03*
X502953D02*
D03*
X260827Y472441D02*
D03*
X250984D02*
D03*
X157480Y457677D02*
D03*
Y447835D02*
D03*
X157480Y182087D02*
D03*
Y172244D02*
D03*
X250984Y125984D02*
D03*
X260827D02*
D03*
X534449Y125984D02*
D03*
X544291D02*
D03*
X622047Y150591D02*
D03*
Y140748D02*
D03*
X421260Y398622D02*
D03*
X425197Y398622D02*
D03*
D86*
X133858Y496063D02*
X645669D01*
X133858Y102362D02*
Y496063D01*
Y102362D02*
X645669D01*
Y496063D01*
D87*
X145669Y208661D02*
D03*
X165669D02*
D03*
X145669Y188661D02*
D03*
X165669D02*
D03*
X145669Y346457D02*
D03*
X165669Y346457D02*
D03*
X145669Y326457D02*
D03*
X165669D02*
D03*
X145669Y429134D02*
D03*
X165669D02*
D03*
X145669Y409134D02*
D03*
X165669D02*
D03*
X633858Y350079D02*
D03*
X613858D02*
D03*
X633858Y370079D02*
D03*
X613858D02*
D03*
D88*
X629921Y448976D02*
D03*
Y401575D02*
D03*
M02*
