%FSLAX25Y25*%
%MOIN*%
G70*
G01*
G75*
G04 Layer_Color=65535*
%ADD10C,0.00591*%
%ADD11C,0.00591*%
%ADD12C,0.00492*%
%ADD13R,0.03347X0.05118*%
%ADD14R,0.04528X0.05709*%
%ADD15R,0.12598X0.16929*%
%ADD16R,0.03150X0.01575*%
%ADD17R,0.01575X0.03150*%
%ADD18R,0.05709X0.04528*%
%ADD19R,0.03543X0.02756*%
G04:AMPARAMS|DCode=20|XSize=23.62mil|YSize=23.62mil|CornerRadius=2.95mil|HoleSize=0mil|Usage=FLASHONLY|Rotation=90.000|XOffset=0mil|YOffset=0mil|HoleType=Round|Shape=RoundedRectangle|*
%AMROUNDEDRECTD20*
21,1,0.02362,0.01772,0,0,90.0*
21,1,0.01772,0.02362,0,0,90.0*
1,1,0.00591,0.00886,0.00886*
1,1,0.00591,0.00886,-0.00886*
1,1,0.00591,-0.00886,-0.00886*
1,1,0.00591,-0.00886,0.00886*
%
%ADD20ROUNDEDRECTD20*%
%ADD21R,0.02756X0.03543*%
G04:AMPARAMS|DCode=22|XSize=23.62mil|YSize=23.62mil|CornerRadius=2.95mil|HoleSize=0mil|Usage=FLASHONLY|Rotation=180.000|XOffset=0mil|YOffset=0mil|HoleType=Round|Shape=RoundedRectangle|*
%AMROUNDEDRECTD22*
21,1,0.02362,0.01772,0,0,180.0*
21,1,0.01772,0.02362,0,0,180.0*
1,1,0.00591,-0.00886,0.00886*
1,1,0.00591,0.00886,0.00886*
1,1,0.00591,0.00886,-0.00886*
1,1,0.00591,-0.00886,-0.00886*
%
%ADD22ROUNDEDRECTD22*%
%ADD23R,0.05118X0.03347*%
%ADD24R,0.11000X0.08500*%
%ADD25R,0.23622X0.19685*%
%ADD26O,0.06102X0.01378*%
%ADD27R,0.10787X0.12795*%
%ADD28O,0.04134X0.01181*%
%ADD29O,0.01181X0.04134*%
%ADD30R,0.08268X0.08268*%
%ADD31R,0.05906X0.09449*%
%ADD32C,0.03937*%
%ADD33R,0.05512X0.02992*%
%ADD34R,0.12520X0.05000*%
%ADD35R,0.02992X0.05512*%
%ADD36R,0.05000X0.12520*%
%ADD37O,0.00984X0.03150*%
%ADD38O,0.03150X0.00984*%
%ADD39R,0.21654X0.21654*%
%ADD40O,0.00984X0.05709*%
%ADD41R,0.29528X0.29528*%
%ADD42O,0.00984X0.03543*%
%ADD43O,0.03543X0.00984*%
%ADD44C,0.01772*%
%ADD45C,0.01575*%
%ADD46C,0.01969*%
%ADD47R,0.07087X0.08661*%
%ADD48R,0.08661X0.07087*%
%ADD49R,0.14961X0.11024*%
%ADD50R,0.03543X0.03740*%
%ADD51C,0.05906*%
%ADD52C,0.01181*%
%ADD53C,0.00984*%
%ADD54C,0.03937*%
%ADD55C,0.00787*%
%ADD56C,0.00551*%
%ADD57C,0.00394*%
%ADD58P,0.05966X8X22.5*%
%ADD59C,0.05512*%
%ADD60C,0.05906*%
%ADD61C,0.07874*%
%ADD62C,0.09843*%
%ADD63C,0.15748*%
%ADD64C,0.04724*%
%ADD65R,0.07874X0.07874*%
%ADD66R,0.07874X0.07874*%
G04:AMPARAMS|DCode=67|XSize=62.99mil|YSize=62.99mil|CornerRadius=15.75mil|HoleSize=0mil|Usage=FLASHONLY|Rotation=90.000|XOffset=0mil|YOffset=0mil|HoleType=Round|Shape=RoundedRectangle|*
%AMROUNDEDRECTD67*
21,1,0.06299,0.03150,0,0,90.0*
21,1,0.03150,0.06299,0,0,90.0*
1,1,0.03150,0.01575,0.01575*
1,1,0.03150,0.01575,-0.01575*
1,1,0.03150,-0.01575,-0.01575*
1,1,0.03150,-0.01575,0.01575*
%
%ADD67ROUNDEDRECTD67*%
%ADD68C,0.06299*%
%ADD69C,0.02559*%
%ADD70C,0.02953*%
%ADD71C,0.02362*%
%ADD72C,0.02756*%
%ADD73C,0.01575*%
%ADD74C,0.01969*%
%ADD75C,0.08661*%
%ADD76C,0.06693*%
%ADD77C,0.03937*%
%ADD78C,0.03740*%
%ADD79C,0.03543*%
%ADD80C,0.03150*%
%ADD81C,0.04331*%
%ADD82C,0.03347*%
%ADD83C,0.00512*%
%ADD84C,0.00494*%
%ADD85C,0.02756*%
%ADD86C,0.02362*%
%ADD87C,0.09449*%
%ADD88C,0.10630*%
%ADD89R,0.03347X0.01102*%
%ADD90R,0.06496X0.09449*%
%ADD91O,0.08661X0.02362*%
%ADD92O,0.03347X0.01102*%
%ADD93O,0.01102X0.03347*%
%ADD94R,0.08071X0.08071*%
%ADD95O,0.02756X0.09843*%
%ADD96C,0.07874*%
%ADD97C,0.01000*%
%ADD98C,0.00984*%
G36*
X311024Y299213D02*
Y303150D01*
X314961D01*
X311024Y299213D01*
D02*
G37*
G36*
X377953Y226378D02*
X374016D01*
Y230315D01*
X377953Y226378D01*
D02*
G37*
G36*
X565862Y439551D02*
X561925Y443488D01*
X565862Y443488D01*
Y439551D01*
D02*
G37*
G36*
X523622Y299213D02*
Y303150D01*
X527559D01*
X523622Y299213D01*
D02*
G37*
D32*
X458661Y447835D02*
D03*
X317913Y348425D02*
D03*
D52*
X291339Y472441D02*
X393701D01*
X413386D01*
Y452756D02*
Y472441D01*
X291339Y452756D02*
X413386D01*
X291339D02*
Y472441D01*
D53*
X220472Y175394D02*
G03*
X220472Y175394I-492J0D01*
G01*
X283563Y221654D02*
G03*
X283563Y221654I-492J0D01*
G01*
X195177Y266732D02*
G03*
X195177Y266732I-492J0D01*
G01*
X586417Y302067D02*
G03*
X586417Y302067I-492J0D01*
G01*
X324705Y375787D02*
G03*
X324705Y375787I-492J0D01*
G01*
X565764Y446047D02*
G03*
X565764Y446047I-492J0D01*
G01*
X521555Y302559D02*
G03*
X521555Y302559I-492J0D01*
G01*
X375098Y223819D02*
G03*
X375098Y223819I-492J0D01*
G01*
X308957Y302559D02*
G03*
X308957Y302559I-492J0D01*
G01*
D55*
X212402Y180905D02*
X212795D01*
X212402Y185236D02*
X212795D01*
X212401Y193110D02*
X212795D01*
X212401Y188780D02*
X212795D01*
X200787Y203248D02*
X201181Y203248D01*
X200787Y198327D02*
X201181Y198327D01*
X522835Y457283D02*
Y475787D01*
X567717D01*
Y457283D02*
Y475787D01*
X522835Y457283D02*
X567717D01*
X468504Y139764D02*
X480315D01*
X429134D02*
X440945D01*
X429134Y190945D02*
X440945D01*
X468504D02*
X480315D01*
X342520D02*
X354331D01*
X303150D02*
X314961D01*
X303150Y139764D02*
X314961D01*
X342520D02*
X354331D01*
X248524Y407283D02*
Y407677D01*
X243602Y407283D02*
Y407677D01*
X266732Y393307D02*
Y393701D01*
X263976Y393307D02*
Y393701D01*
X241339Y415157D02*
X241732D01*
X241339Y419488D02*
X241732D01*
X229528Y415157D02*
X229921D01*
X229528Y419488D02*
X229921D01*
X259449Y423032D02*
Y423425D01*
X262205Y423032D02*
Y423425D01*
X275098Y423031D02*
Y423425D01*
X270177Y423031D02*
Y423425D01*
X240650Y407283D02*
Y407677D01*
X235728Y407283D02*
Y407677D01*
X241339Y395473D02*
X241732D01*
X241339Y399803D02*
X241732D01*
X229528Y395472D02*
X229921D01*
X229528Y399803D02*
X229921D01*
X256890Y389370D02*
X257283D01*
X256890Y392126D02*
X257283D01*
X259252Y378543D02*
X259646D01*
X259252Y382874D02*
X259646D01*
X257244Y363032D02*
X257638D01*
X257244Y367362D02*
X257638D01*
X251476Y355315D02*
Y355709D01*
X256398Y355315D02*
Y355709D01*
X259508Y355157D02*
Y355551D01*
X264429Y355157D02*
Y355551D01*
X245433Y363032D02*
X245827D01*
X245433Y367362D02*
X245827D01*
X257244Y343347D02*
X257638D01*
X257244Y347677D02*
X257638D01*
X245433Y343347D02*
X245827D01*
X245433Y347677D02*
X245827D01*
X289173Y356102D02*
X289567D01*
X289173Y360433D02*
X289567D01*
X566535Y381693D02*
Y382087D01*
X569291Y381693D02*
Y382087D01*
X560630Y381693D02*
Y382087D01*
X563386Y381693D02*
Y382087D01*
X581496Y399803D02*
X581890D01*
X581496Y395472D02*
X581890D01*
X578937Y455315D02*
Y455709D01*
X576181Y455315D02*
Y455709D01*
X328543Y354921D02*
X328937D01*
X328543Y352165D02*
X328937D01*
X509646Y317520D02*
X510039D01*
X509646Y320275D02*
X510039D01*
X564764Y275000D02*
Y275394D01*
X569094Y275000D02*
Y275394D01*
X576575Y232775D02*
X576969D01*
X576575Y227854D02*
X576969D01*
X580512Y204921D02*
X580905D01*
X580512Y200590D02*
X580905D01*
X580512Y195079D02*
X580905D01*
X580512Y190748D02*
X580905D01*
X512303Y147441D02*
Y147835D01*
X507382Y147441D02*
Y147835D01*
X387303Y147441D02*
Y147835D01*
X382382Y147441D02*
Y147835D01*
X330512Y230118D02*
Y230512D01*
X334842Y230118D02*
Y230512D01*
X326969Y230118D02*
Y230512D01*
X322638Y230118D02*
Y230512D01*
X343307Y234744D02*
X343701D01*
X343307Y229823D02*
X343701D01*
X325295Y217323D02*
Y217717D01*
X330217Y217323D02*
Y217717D01*
X337106Y217323D02*
Y217717D01*
X342028Y217323D02*
Y217717D01*
X312992Y198819D02*
X317913Y203740D01*
X310827Y209449D02*
Y209842D01*
X315158Y209449D02*
Y209842D01*
X306890Y200984D02*
X307283D01*
X306890Y196654D02*
X307283D01*
X311811Y232776D02*
X312205D01*
X311811Y227854D02*
X312205D01*
X275590Y162402D02*
Y162402D01*
X285433Y172244D01*
X285433D01*
X275394Y204134D02*
X275787D01*
X275394Y201378D02*
X275787D01*
X241929Y188779D02*
X242323D01*
X241929Y193110D02*
X242323D01*
X241929Y180906D02*
X242323D01*
X241929Y185236D02*
X242323D01*
X224606Y174016D02*
X237992D01*
X224606Y142913D02*
X237992D01*
X300295Y222244D02*
X302953D01*
Y219586D02*
Y222244D01*
X300295Y204921D02*
X302953D01*
Y207579D01*
X285630Y204921D02*
X288287D01*
X285630D02*
Y207579D01*
Y222244D02*
X288287D01*
X285630Y219586D02*
Y222244D01*
X292126Y237697D02*
X292520D01*
X292126Y242618D02*
X292520D01*
X265256Y231102D02*
Y231496D01*
X270177Y231102D02*
Y231496D01*
X253445Y231102D02*
Y231496D01*
X258366Y231102D02*
Y231496D01*
X208169Y251772D02*
Y252165D01*
X203248Y251772D02*
Y252165D01*
X168897Y157382D02*
X169291D01*
X168897Y162303D02*
X169291D01*
X198032Y251772D02*
Y252165D01*
X193701Y251772D02*
Y252165D01*
X188484Y251772D02*
Y252165D01*
X183563Y251772D02*
Y252165D01*
X160236Y237008D02*
X160630D01*
X160236Y241338D02*
X160630D01*
X160236Y232480D02*
X160630D01*
X160236Y228150D02*
X160630D01*
X237008Y294882D02*
X237402D01*
X237008Y297638D02*
X237402D01*
X237008Y284941D02*
X237402D01*
X237008Y289862D02*
X237402D01*
X175000Y326575D02*
Y326969D01*
X179331Y326575D02*
Y326969D01*
Y428937D02*
Y429331D01*
X175000Y428937D02*
Y429331D01*
X178937Y280315D02*
X179331D01*
X178937Y284646D02*
X179331D01*
X178937Y289173D02*
X179331D01*
X178937Y293504D02*
X179331D01*
X452165Y458465D02*
Y458858D01*
X454921Y458465D02*
Y458858D01*
X194094Y296752D02*
Y298425D01*
X195768D01*
X223228Y296752D02*
Y298425D01*
X221555D02*
X223228D01*
Y269291D02*
Y270965D01*
X221555Y269291D02*
X223228D01*
X194094D02*
Y270965D01*
Y269291D02*
X195768D01*
X598622Y306496D02*
Y313583D01*
X586417Y306496D02*
Y313583D01*
X598622D01*
X586417Y306496D02*
X598622D01*
X321653Y375197D02*
Y376870D01*
X319980Y375197D02*
X321653D01*
Y410531D02*
Y412205D01*
X319980D02*
X321653D01*
X284646Y410531D02*
Y412205D01*
X286319D01*
X284646Y375197D02*
Y376870D01*
Y375197D02*
X286319D01*
X561925Y443488D02*
X565862Y439551D01*
X526492Y443488D02*
X565862D01*
X526492Y404118D02*
X565862D01*
Y443488D01*
X526492Y404118D02*
Y443488D01*
X559055Y248032D02*
Y303150D01*
X523622D02*
X559055D01*
X523622Y299213D02*
X527559Y303150D01*
X523622Y248032D02*
X559055D01*
X523622D02*
Y303150D01*
X496063Y226378D02*
Y348425D01*
X374016Y226378D02*
Y348425D01*
X496063D01*
X374016Y226378D02*
X496063D01*
X374016Y230315D02*
X377953Y226378D01*
X311024Y248032D02*
Y303150D01*
Y248032D02*
X346457D01*
X311024Y299213D02*
X314961Y303150D01*
X311024D02*
X346457D01*
Y248032D02*
Y303150D01*
X471457Y468504D02*
X481299D01*
X471457Y448819D02*
X481299D01*
X318898Y325787D02*
Y335630D01*
X338583Y325787D02*
Y335630D01*
X192913Y181102D02*
Y185825D01*
X195275D01*
X196062Y185038D01*
Y183464D01*
X195275Y182677D01*
X192913D01*
X194488D02*
X196062Y181102D01*
X199998D02*
Y185825D01*
X197636Y183464D01*
X200785D01*
X202359Y181889D02*
X203146Y181102D01*
X204721D01*
X205508Y181889D01*
Y185038D01*
X204721Y185825D01*
X203146D01*
X202359Y185038D01*
Y184251D01*
X203146Y183464D01*
X205508D01*
X192913Y187992D02*
Y192715D01*
X195275D01*
X196062Y191928D01*
Y190354D01*
X195275Y189566D01*
X192913D01*
X194488D02*
X196062Y187992D01*
X199998D02*
Y192715D01*
X197636Y190354D01*
X200785D01*
X202359Y192715D02*
X205508D01*
Y191928D01*
X202359Y188779D01*
Y187992D01*
X206692Y214566D02*
X205905Y215353D01*
X204330D01*
X203543Y214566D01*
Y211417D01*
X204330Y210630D01*
X205905D01*
X206692Y211417D01*
X208266Y210630D02*
X209840D01*
X209053D01*
Y215353D01*
X208266Y214566D01*
X215351Y215353D02*
X213776Y214566D01*
X212202Y212991D01*
Y211417D01*
X212989Y210630D01*
X214563D01*
X215351Y211417D01*
Y212204D01*
X214563Y212991D01*
X212202D01*
X220073Y210630D02*
X216925D01*
X220073Y213778D01*
Y214566D01*
X219286Y215353D01*
X217712D01*
X216925Y214566D01*
X515946Y465551D02*
Y468700D01*
X516734D01*
X519882Y465551D01*
X520669D01*
Y468700D01*
X519882Y473423D02*
X516734D01*
X515946Y472636D01*
Y471061D01*
X516734Y470274D01*
X519882D01*
X520669Y471061D01*
Y472636D01*
X519095Y471848D02*
X520669Y473423D01*
Y472636D02*
X519882Y473423D01*
X520669Y474997D02*
Y476571D01*
Y475784D01*
X515946D01*
X516734Y474997D01*
X172244Y200589D02*
X175393Y195866D01*
Y200589D02*
X172244Y195866D01*
X176967Y199802D02*
X177754Y200589D01*
X179328D01*
X180116Y199802D01*
Y199015D01*
X179328Y198228D01*
X180116Y197440D01*
Y196653D01*
X179328Y195866D01*
X177754D01*
X176967Y196653D01*
Y197440D01*
X177754Y198228D01*
X176967Y199015D01*
Y199802D01*
X177754Y198228D02*
X179328D01*
X152559Y358069D02*
X155708Y353346D01*
Y358069D02*
X152559Y353346D01*
X157282Y358069D02*
X160431D01*
Y357282D01*
X157282Y354134D01*
Y353346D01*
X604529Y314961D02*
X609252Y318109D01*
X604529D02*
X609252Y314961D01*
X604529Y322832D02*
X605316Y321258D01*
X606890Y319684D01*
X608465D01*
X609252Y320471D01*
Y322045D01*
X608465Y322832D01*
X607678D01*
X606890Y322045D01*
Y319684D01*
X152559Y440746D02*
X155708Y436024D01*
Y440746D02*
X152559Y436024D01*
X160431Y440746D02*
X157282D01*
Y438385D01*
X158856Y439172D01*
X159643D01*
X160431Y438385D01*
Y436811D01*
X159643Y436024D01*
X158069D01*
X157282Y436811D01*
X606299Y457479D02*
X609448Y452756D01*
Y457479D02*
X606299Y452756D01*
X613383D02*
Y457479D01*
X611022Y455117D01*
X614171D01*
X619095Y381691D02*
X622243Y376969D01*
Y381691D02*
X619095Y376969D01*
X623817Y380904D02*
X624605Y381691D01*
X626179D01*
X626966Y380904D01*
Y380117D01*
X626179Y379330D01*
X625392D01*
X626179D01*
X626966Y378543D01*
Y377756D01*
X626179Y376969D01*
X624605D01*
X623817Y377756D01*
X599409Y230117D02*
X602558Y225394D01*
Y230117D02*
X599409Y225394D01*
X607281D02*
X604132D01*
X607281Y228542D01*
Y229329D01*
X606494Y230117D01*
X604919D01*
X604132Y229329D01*
X536417Y230117D02*
X539566Y225394D01*
Y230117D02*
X536417Y225394D01*
X541140D02*
X542715D01*
X541927D01*
Y230117D01*
X541140Y229329D01*
X308269Y324803D02*
X311418D01*
X312992Y326377D01*
X311418Y327952D01*
X308269D01*
X309056Y332675D02*
X308269Y331888D01*
Y330313D01*
X309056Y329526D01*
X312205D01*
X312992Y330313D01*
Y331888D01*
X312205Y332675D01*
X310631D01*
Y331100D01*
X312992Y337398D02*
Y334249D01*
X309843Y337398D01*
X309056D01*
X308269Y336610D01*
Y335036D01*
X309056Y334249D01*
X470472Y479132D02*
Y475984D01*
X472047Y474409D01*
X473621Y475984D01*
Y479132D01*
X478344Y478345D02*
X477557Y479132D01*
X475983D01*
X475195Y478345D01*
Y475197D01*
X475983Y474409D01*
X477557D01*
X478344Y475197D01*
Y476771D01*
X476770D01*
X479918Y474409D02*
X481493D01*
X480705D01*
Y479132D01*
X479918Y478345D01*
X154527Y273128D02*
Y269980D01*
X156102Y268406D01*
X157676Y269980D01*
Y273128D01*
X159250D02*
Y268406D01*
X161612D01*
X162399Y269193D01*
Y272341D01*
X161612Y273128D01*
X159250D01*
X167122Y268406D02*
X163973D01*
X167122Y271554D01*
Y272341D01*
X166335Y273128D01*
X164760D01*
X163973Y272341D01*
X571065Y344488D02*
X574213D01*
X575787Y346062D01*
X574213Y347637D01*
X571065D01*
Y349211D02*
X575787D01*
Y351572D01*
X575000Y352360D01*
X571852D01*
X571065Y351572D01*
Y349211D01*
X575787Y353934D02*
Y355508D01*
Y354721D01*
X571065D01*
X571852Y353934D01*
X205709Y338384D02*
X208857D01*
X207283D01*
Y333661D01*
X213580D02*
X210432D01*
X213580Y336810D01*
Y337597D01*
X212793Y338384D01*
X211219D01*
X210432Y337597D01*
X198819Y450589D02*
X201968D01*
X200393D01*
Y445866D01*
X203542D02*
X205116D01*
X204329D01*
Y450589D01*
X203542Y449802D01*
X198819Y229331D02*
X194096D01*
Y231692D01*
X194883Y232479D01*
X196458D01*
X197245Y231692D01*
Y229331D01*
Y230905D02*
X198819Y232479D01*
Y234054D02*
Y235628D01*
Y234841D01*
X194096D01*
X194883Y234054D01*
Y237989D02*
X194096Y238776D01*
Y240351D01*
X194883Y241138D01*
X198032D01*
X198819Y240351D01*
Y238776D01*
X198032Y237989D01*
X194883D01*
X194096Y242712D02*
Y245861D01*
X194883D01*
X198032Y242712D01*
X198819D01*
X153631Y280426D02*
Y285149D01*
X155992D01*
X156779Y284362D01*
Y282787D01*
X155992Y282000D01*
X153631D01*
X155205D02*
X156779Y280426D01*
X158354D02*
X159928D01*
X159141D01*
Y285149D01*
X158354Y284362D01*
X162289D02*
X163076Y285149D01*
X164651D01*
X165438Y284362D01*
Y281213D01*
X164651Y280426D01*
X163076D01*
X162289Y281213D01*
Y284362D01*
X170161Y285149D02*
X168587Y284362D01*
X167012Y282787D01*
Y281213D01*
X167799Y280426D01*
X169374D01*
X170161Y281213D01*
Y282000D01*
X169374Y282787D01*
X167012D01*
X153631Y289326D02*
Y294049D01*
X155992D01*
X156779Y293262D01*
Y291687D01*
X155992Y290900D01*
X153631D01*
X155205D02*
X156779Y289326D01*
X158354D02*
X159928D01*
X159141D01*
Y294049D01*
X158354Y293262D01*
X162289D02*
X163076Y294049D01*
X164651D01*
X165438Y293262D01*
Y290113D01*
X164651Y289326D01*
X163076D01*
X162289Y290113D01*
Y293262D01*
X170161Y294049D02*
X167012D01*
Y291687D01*
X168587Y292475D01*
X169374D01*
X170161Y291687D01*
Y290113D01*
X169374Y289326D01*
X167799D01*
X167012Y290113D01*
X170276Y236221D02*
Y240943D01*
X172637D01*
X173424Y240156D01*
Y238582D01*
X172637Y237795D01*
X170276D01*
X171850D02*
X173424Y236221D01*
X174998D02*
X176573D01*
X175786D01*
Y240943D01*
X174998Y240156D01*
X178934D02*
X179721Y240943D01*
X181296D01*
X182083Y240156D01*
Y237008D01*
X181296Y236221D01*
X179721D01*
X178934Y237008D01*
Y240156D01*
X186019Y236221D02*
Y240943D01*
X183657Y238582D01*
X186806D01*
X169291Y227362D02*
Y232085D01*
X171653D01*
X172440Y231298D01*
Y229724D01*
X171653Y228937D01*
X169291D01*
X170866D02*
X172440Y227362D01*
X174014D02*
X175589D01*
X174801D01*
Y232085D01*
X174014Y231298D01*
X177950D02*
X178737Y232085D01*
X180311D01*
X181099Y231298D01*
Y228149D01*
X180311Y227362D01*
X178737D01*
X177950Y228149D01*
Y231298D01*
X182673D02*
X183460Y232085D01*
X185034D01*
X185821Y231298D01*
Y230511D01*
X185034Y229724D01*
X184247D01*
X185034D01*
X185821Y228937D01*
Y228149D01*
X185034Y227362D01*
X183460D01*
X182673Y228149D01*
X319882Y357480D02*
Y362203D01*
X322243D01*
X323030Y361416D01*
Y359842D01*
X322243Y359055D01*
X319882D01*
X321456D02*
X323030Y357480D01*
X324605D02*
X326179D01*
X325392D01*
Y362203D01*
X324605Y361416D01*
X328540D02*
X329328Y362203D01*
X330902D01*
X331689Y361416D01*
Y358267D01*
X330902Y357480D01*
X329328D01*
X328540Y358267D01*
Y361416D01*
X336412Y357480D02*
X333263D01*
X336412Y360629D01*
Y361416D01*
X335625Y362203D01*
X334050D01*
X333263Y361416D01*
X253937Y370079D02*
Y374802D01*
X256298D01*
X257086Y374014D01*
Y372440D01*
X256298Y371653D01*
X253937D01*
X255511D02*
X257086Y370079D01*
X258660D02*
X260234D01*
X259447D01*
Y374802D01*
X258660Y374014D01*
X262596D02*
X263383Y374802D01*
X264957D01*
X265744Y374014D01*
Y370866D01*
X264957Y370079D01*
X263383D01*
X262596Y370866D01*
Y374014D01*
X267319Y370079D02*
X268893D01*
X268106D01*
Y374802D01*
X267319Y374014D01*
X234252Y370079D02*
Y374802D01*
X236613D01*
X237401Y374014D01*
Y372440D01*
X236613Y371653D01*
X234252D01*
X235826D02*
X237401Y370079D01*
X238975D02*
X240549D01*
X239762D01*
Y374802D01*
X238975Y374014D01*
X242911D02*
X243698Y374802D01*
X245272D01*
X246059Y374014D01*
Y370866D01*
X245272Y370079D01*
X243698D01*
X242911Y370866D01*
Y374014D01*
X247634D02*
X248421Y374802D01*
X249995D01*
X250782Y374014D01*
Y370866D01*
X249995Y370079D01*
X248421D01*
X247634Y370866D01*
Y374014D01*
X251969Y431102D02*
Y435825D01*
X254330D01*
X255117Y435038D01*
Y433464D01*
X254330Y432677D01*
X251969D01*
X253543D02*
X255117Y431102D01*
X256691Y431889D02*
X257478Y431102D01*
X259053D01*
X259840Y431889D01*
Y435038D01*
X259053Y435825D01*
X257478D01*
X256691Y435038D01*
Y434251D01*
X257478Y433464D01*
X259840D01*
X261414Y431889D02*
X262201Y431102D01*
X263776D01*
X264563Y431889D01*
Y435038D01*
X263776Y435825D01*
X262201D01*
X261414Y435038D01*
Y434251D01*
X262201Y433464D01*
X264563D01*
X172244Y313976D02*
Y318699D01*
X174606D01*
X175393Y317912D01*
Y316338D01*
X174606Y315551D01*
X172244D01*
X173818D02*
X175393Y313976D01*
X176967Y314763D02*
X177754Y313976D01*
X179328D01*
X180116Y314763D01*
Y317912D01*
X179328Y318699D01*
X177754D01*
X176967Y317912D01*
Y317125D01*
X177754Y316338D01*
X180116D01*
X181690Y317912D02*
X182477Y318699D01*
X184051D01*
X184838Y317912D01*
Y317125D01*
X184051Y316338D01*
X184838Y315551D01*
Y314763D01*
X184051Y313976D01*
X182477D01*
X181690Y314763D01*
Y315551D01*
X182477Y316338D01*
X181690Y317125D01*
Y317912D01*
X182477Y316338D02*
X184051D01*
X253937Y335630D02*
Y340353D01*
X256298D01*
X257086Y339566D01*
Y337991D01*
X256298Y337204D01*
X253937D01*
X255511D02*
X257086Y335630D01*
X258660Y336417D02*
X259447Y335630D01*
X261021D01*
X261808Y336417D01*
Y339566D01*
X261021Y340353D01*
X259447D01*
X258660Y339566D01*
Y338778D01*
X259447Y337991D01*
X261808D01*
X263383Y340353D02*
X266531D01*
Y339566D01*
X263383Y336417D01*
Y335630D01*
X237205D02*
Y340353D01*
X239566D01*
X240353Y339566D01*
Y337991D01*
X239566Y337204D01*
X237205D01*
X238779D02*
X240353Y335630D01*
X241928Y336417D02*
X242715Y335630D01*
X244289D01*
X245076Y336417D01*
Y339566D01*
X244289Y340353D01*
X242715D01*
X241928Y339566D01*
Y338778D01*
X242715Y337991D01*
X245076D01*
X249799Y340353D02*
X248225Y339566D01*
X246651Y337991D01*
Y336417D01*
X247438Y335630D01*
X249012D01*
X249799Y336417D01*
Y337204D01*
X249012Y337991D01*
X246651D01*
X265748Y377953D02*
Y382676D01*
X268109D01*
X268897Y381889D01*
Y380314D01*
X268109Y379527D01*
X265748D01*
X267322D02*
X268897Y377953D01*
X270471Y378740D02*
X271258Y377953D01*
X272832D01*
X273620Y378740D01*
Y381889D01*
X272832Y382676D01*
X271258D01*
X270471Y381889D01*
Y381101D01*
X271258Y380314D01*
X273620D01*
X278342Y382676D02*
X275194D01*
Y380314D01*
X276768Y381101D01*
X277555D01*
X278342Y380314D01*
Y378740D01*
X277555Y377953D01*
X275981D01*
X275194Y378740D01*
X283465Y349410D02*
Y354132D01*
X285826D01*
X286613Y353345D01*
Y351771D01*
X285826Y350984D01*
X283465D01*
X285039D02*
X286613Y349410D01*
X288187Y350197D02*
X288975Y349410D01*
X290549D01*
X291336Y350197D01*
Y353345D01*
X290549Y354132D01*
X288975D01*
X288187Y353345D01*
Y352558D01*
X288975Y351771D01*
X291336D01*
X295272Y349410D02*
Y354132D01*
X292910Y351771D01*
X296059D01*
X273622Y387795D02*
X268899D01*
Y390157D01*
X269686Y390944D01*
X271261D01*
X272048Y390157D01*
Y387795D01*
Y389370D02*
X273622Y390944D01*
X272835Y392518D02*
X273622Y393305D01*
Y394880D01*
X272835Y395667D01*
X269686D01*
X268899Y394880D01*
Y393305D01*
X269686Y392518D01*
X270474D01*
X271261Y393305D01*
Y395667D01*
X269686Y397241D02*
X268899Y398028D01*
Y399603D01*
X269686Y400390D01*
X270474D01*
X271261Y399603D01*
Y398815D01*
Y399603D01*
X272048Y400390D01*
X272835D01*
X273622Y399603D01*
Y398028D01*
X272835Y397241D01*
X237205Y388779D02*
Y393502D01*
X239566D01*
X240353Y392715D01*
Y391141D01*
X239566Y390354D01*
X237205D01*
X238779D02*
X240353Y388779D01*
X241928Y389567D02*
X242715Y388779D01*
X244289D01*
X245076Y389567D01*
Y392715D01*
X244289Y393502D01*
X242715D01*
X241928Y392715D01*
Y391928D01*
X242715Y391141D01*
X245076D01*
X246651Y392715D02*
X247438Y393502D01*
X249012D01*
X249799Y392715D01*
Y389567D01*
X249012Y388779D01*
X247438D01*
X246651Y389567D01*
Y392715D01*
X221457Y388779D02*
Y393502D01*
X223818D01*
X224605Y392715D01*
Y391141D01*
X223818Y390354D01*
X221457D01*
X223031D02*
X224605Y388779D01*
X226180Y392715D02*
X226967Y393502D01*
X228541D01*
X229328Y392715D01*
Y391928D01*
X228541Y391141D01*
X229328Y390354D01*
Y389567D01*
X228541Y388779D01*
X226967D01*
X226180Y389567D01*
Y390354D01*
X226967Y391141D01*
X226180Y391928D01*
Y392715D01*
X226967Y391141D02*
X228541D01*
X230902Y389567D02*
X231690Y388779D01*
X233264D01*
X234051Y389567D01*
Y392715D01*
X233264Y393502D01*
X231690D01*
X230902Y392715D01*
Y391928D01*
X231690Y391141D01*
X234051D01*
X240158Y382874D02*
Y387597D01*
X242519D01*
X243306Y386810D01*
Y385236D01*
X242519Y384448D01*
X240158D01*
X241732D02*
X243306Y382874D01*
X244880Y386810D02*
X245668Y387597D01*
X247242D01*
X248029Y386810D01*
Y386023D01*
X247242Y385236D01*
X248029Y384448D01*
Y383661D01*
X247242Y382874D01*
X245668D01*
X244880Y383661D01*
Y384448D01*
X245668Y385236D01*
X244880Y386023D01*
Y386810D01*
X245668Y385236D02*
X247242D01*
X249603Y386810D02*
X250390Y387597D01*
X251965D01*
X252752Y386810D01*
Y386023D01*
X251965Y385236D01*
X252752Y384448D01*
Y383661D01*
X251965Y382874D01*
X250390D01*
X249603Y383661D01*
Y384448D01*
X250390Y385236D01*
X249603Y386023D01*
Y386810D01*
X250390Y385236D02*
X251965D01*
X171260Y437008D02*
Y441731D01*
X173621D01*
X174408Y440944D01*
Y439369D01*
X173621Y438582D01*
X171260D01*
X172834D02*
X174408Y437008D01*
X175983Y440944D02*
X176770Y441731D01*
X178344D01*
X179131Y440944D01*
Y440157D01*
X178344Y439369D01*
X179131Y438582D01*
Y437795D01*
X178344Y437008D01*
X176770D01*
X175983Y437795D01*
Y438582D01*
X176770Y439369D01*
X175983Y440157D01*
Y440944D01*
X176770Y439369D02*
X178344D01*
X180706Y441731D02*
X183854D01*
Y440944D01*
X180706Y437795D01*
Y437008D01*
X237205Y422244D02*
Y426967D01*
X239566D01*
X240353Y426180D01*
Y424606D01*
X239566Y423818D01*
X237205D01*
X238779D02*
X240353Y422244D01*
X241928Y426180D02*
X242715Y426967D01*
X244289D01*
X245076Y426180D01*
Y425393D01*
X244289Y424606D01*
X245076Y423818D01*
Y423031D01*
X244289Y422244D01*
X242715D01*
X241928Y423031D01*
Y423818D01*
X242715Y424606D01*
X241928Y425393D01*
Y426180D01*
X242715Y424606D02*
X244289D01*
X249799Y426967D02*
X248225Y426180D01*
X246651Y424606D01*
Y423031D01*
X247438Y422244D01*
X249012D01*
X249799Y423031D01*
Y423818D01*
X249012Y424606D01*
X246651D01*
X221457Y422244D02*
Y426967D01*
X223818D01*
X224605Y426180D01*
Y424606D01*
X223818Y423818D01*
X221457D01*
X223031D02*
X224605Y422244D01*
X226180Y426180D02*
X226967Y426967D01*
X228541D01*
X229328Y426180D01*
Y425393D01*
X228541Y424606D01*
X229328Y423818D01*
Y423031D01*
X228541Y422244D01*
X226967D01*
X226180Y423031D01*
Y423818D01*
X226967Y424606D01*
X226180Y425393D01*
Y426180D01*
X226967Y424606D02*
X228541D01*
X234051Y426967D02*
X230902D01*
Y424606D01*
X232477Y425393D01*
X233264D01*
X234051Y424606D01*
Y423031D01*
X233264Y422244D01*
X231690D01*
X230902Y423031D01*
X581693Y461614D02*
X576970D01*
Y463976D01*
X577757Y464763D01*
X579331D01*
X580119Y463976D01*
Y461614D01*
Y463189D02*
X581693Y464763D01*
X577757Y466337D02*
X576970Y467124D01*
Y468699D01*
X577757Y469486D01*
X578544D01*
X579331Y468699D01*
X580119Y469486D01*
X580906D01*
X581693Y468699D01*
Y467124D01*
X580906Y466337D01*
X580119D01*
X579331Y467124D01*
X578544Y466337D01*
X577757D01*
X579331Y467124D02*
Y468699D01*
X581693Y471060D02*
Y472634D01*
Y471847D01*
X576970D01*
X577757Y471060D01*
X563976Y363189D02*
X559254D01*
Y365550D01*
X560041Y366338D01*
X561615D01*
X562402Y365550D01*
Y363189D01*
Y364763D02*
X563976Y366338D01*
X559254Y367912D02*
Y371060D01*
X560041D01*
X563189Y367912D01*
X563976D01*
X559254Y375783D02*
X560041Y374209D01*
X561615Y372635D01*
X563189D01*
X563976Y373422D01*
Y374996D01*
X563189Y375783D01*
X562402D01*
X561615Y374996D01*
Y372635D01*
X570866Y363189D02*
X566143D01*
Y365550D01*
X566930Y366338D01*
X568505D01*
X569292Y365550D01*
Y363189D01*
Y364763D02*
X570866Y366338D01*
X566143Y367912D02*
Y371060D01*
X566930D01*
X570079Y367912D01*
X570866D01*
X566143Y375783D02*
Y372635D01*
X568505D01*
X567718Y374209D01*
Y374996D01*
X568505Y375783D01*
X570079D01*
X570866Y374996D01*
Y373422D01*
X570079Y372635D01*
X539370Y375984D02*
Y380707D01*
X541732D01*
X542519Y379920D01*
Y378346D01*
X541732Y377558D01*
X539370D01*
X540944D02*
X542519Y375984D01*
X544093Y380707D02*
X547242D01*
Y379920D01*
X544093Y376771D01*
Y375984D01*
X551177D02*
Y380707D01*
X548816Y378346D01*
X551964D01*
X502953Y443898D02*
X498230D01*
Y446259D01*
X499017Y447046D01*
X500591D01*
X501378Y446259D01*
Y443898D01*
Y445472D02*
X502953Y447046D01*
X498230Y448621D02*
Y451769D01*
X499017D01*
X502166Y448621D01*
X502953D01*
X499017Y453343D02*
X498230Y454131D01*
Y455705D01*
X499017Y456492D01*
X499804D01*
X500591Y455705D01*
Y454918D01*
Y455705D01*
X501378Y456492D01*
X502166D01*
X502953Y455705D01*
Y454131D01*
X502166Y453343D01*
X449606Y450787D02*
X444883D01*
Y453149D01*
X445671Y453936D01*
X447245D01*
X448032Y453149D01*
Y450787D01*
Y452362D02*
X449606Y453936D01*
Y455510D02*
Y457085D01*
Y456297D01*
X444883D01*
X445671Y455510D01*
Y459446D02*
X444883Y460233D01*
Y461807D01*
X445671Y462595D01*
X448819D01*
X449606Y461807D01*
Y460233D01*
X448819Y459446D01*
X445671D01*
Y464169D02*
X444883Y464956D01*
Y466530D01*
X445671Y467317D01*
X446458D01*
X447245Y466530D01*
X448032Y467317D01*
X448819D01*
X449606Y466530D01*
Y464956D01*
X448819Y464169D01*
X448032D01*
X447245Y464956D01*
X446458Y464169D01*
X445671D01*
X447245Y464956D02*
Y466530D01*
X502953Y394685D02*
X498230D01*
Y397046D01*
X499017Y397834D01*
X500591D01*
X501378Y397046D01*
Y394685D01*
Y396259D02*
X502953Y397834D01*
X498230Y402557D02*
X499017Y400982D01*
X500591Y399408D01*
X502166D01*
X502953Y400195D01*
Y401769D01*
X502166Y402557D01*
X501378D01*
X500591Y401769D01*
Y399408D01*
X502166Y404131D02*
X502953Y404918D01*
Y406492D01*
X502166Y407279D01*
X499017D01*
X498230Y406492D01*
Y404918D01*
X499017Y404131D01*
X499804D01*
X500591Y404918D01*
Y407279D01*
X502953Y427165D02*
X498230D01*
Y429527D01*
X499017Y430314D01*
X500591D01*
X501378Y429527D01*
Y427165D01*
Y428740D02*
X502953Y430314D01*
X498230Y435037D02*
X499017Y433462D01*
X500591Y431888D01*
X502166D01*
X502953Y432675D01*
Y434250D01*
X502166Y435037D01*
X501378D01*
X500591Y434250D01*
Y431888D01*
X499017Y436611D02*
X498230Y437398D01*
Y438973D01*
X499017Y439760D01*
X499804D01*
X500591Y438973D01*
Y438185D01*
Y438973D01*
X501378Y439760D01*
X502166D01*
X502953Y438973D01*
Y437398D01*
X502166Y436611D01*
X522638Y375984D02*
Y380707D01*
X524999D01*
X525786Y379920D01*
Y378346D01*
X524999Y377558D01*
X522638D01*
X524212D02*
X525786Y375984D01*
X530509Y380707D02*
X527361D01*
Y378346D01*
X528935Y379133D01*
X529722D01*
X530509Y378346D01*
Y376771D01*
X529722Y375984D01*
X528148D01*
X527361Y376771D01*
X532084Y379920D02*
X532871Y380707D01*
X534445D01*
X535232Y379920D01*
Y379133D01*
X534445Y378346D01*
X535232Y377558D01*
Y376771D01*
X534445Y375984D01*
X532871D01*
X532084Y376771D01*
Y377558D01*
X532871Y378346D01*
X532084Y379133D01*
Y379920D01*
X532871Y378346D02*
X534445D01*
X576772Y401575D02*
Y406298D01*
X579133D01*
X579920Y405511D01*
Y403936D01*
X579133Y403149D01*
X576772D01*
X578346D02*
X579920Y401575D01*
X584643Y406298D02*
X581495D01*
Y403936D01*
X583069Y404723D01*
X583856D01*
X584643Y403936D01*
Y402362D01*
X583856Y401575D01*
X582282D01*
X581495Y402362D01*
X586217Y406298D02*
X589366D01*
Y405511D01*
X586217Y402362D01*
Y401575D01*
X266732Y206693D02*
Y211416D01*
X269094D01*
X269881Y210629D01*
Y209054D01*
X269094Y208267D01*
X266732D01*
X268307D02*
X269881Y206693D01*
X274604Y211416D02*
X271455D01*
Y209054D01*
X273029Y209841D01*
X273817D01*
X274604Y209054D01*
Y207480D01*
X273817Y206693D01*
X272242D01*
X271455Y207480D01*
X279327Y211416D02*
X277752Y210629D01*
X276178Y209054D01*
Y207480D01*
X276965Y206693D01*
X278539D01*
X279327Y207480D01*
Y208267D01*
X278539Y209054D01*
X276178D01*
X319882Y202756D02*
Y207479D01*
X322243D01*
X323030Y206692D01*
Y205117D01*
X322243Y204330D01*
X319882D01*
X321456D02*
X323030Y202756D01*
X327753Y207479D02*
X324605D01*
Y205117D01*
X326179Y205905D01*
X326966D01*
X327753Y205117D01*
Y203543D01*
X326966Y202756D01*
X325392D01*
X324605Y203543D01*
X331689Y202756D02*
Y207479D01*
X329328Y205117D01*
X332476D01*
X306102Y216535D02*
Y221258D01*
X308464D01*
X309251Y220471D01*
Y218897D01*
X308464Y218110D01*
X306102D01*
X307677D02*
X309251Y216535D01*
X313974Y221258D02*
X310825D01*
Y218897D01*
X312400Y219684D01*
X313187D01*
X313974Y218897D01*
Y217323D01*
X313187Y216535D01*
X311612D01*
X310825Y217323D01*
X315548Y216535D02*
X317122D01*
X316335D01*
Y221258D01*
X315548Y220471D01*
X249016Y181102D02*
Y185825D01*
X251377D01*
X252164Y185038D01*
Y183464D01*
X251377Y182677D01*
X249016D01*
X250590D02*
X252164Y181102D01*
X256100D02*
Y185825D01*
X253739Y183464D01*
X256887D01*
X261610Y181102D02*
X258461D01*
X261610Y184251D01*
Y185038D01*
X260823Y185825D01*
X259249D01*
X258461Y185038D01*
X249016Y188976D02*
Y193699D01*
X251377D01*
X252164Y192912D01*
Y191338D01*
X251377Y190551D01*
X249016D01*
X250590D02*
X252164Y188976D01*
X256100D02*
Y193699D01*
X253739Y191338D01*
X256887D01*
X258461Y192912D02*
X259249Y193699D01*
X260823D01*
X261610Y192912D01*
Y189763D01*
X260823Y188976D01*
X259249D01*
X258461Y189763D01*
Y192912D01*
X574803Y207677D02*
Y212400D01*
X577165D01*
X577952Y211613D01*
Y210039D01*
X577165Y209251D01*
X574803D01*
X576377D02*
X577952Y207677D01*
X579526Y211613D02*
X580313Y212400D01*
X581887D01*
X582675Y211613D01*
Y210826D01*
X581887Y210039D01*
X581100D01*
X581887D01*
X582675Y209251D01*
Y208464D01*
X581887Y207677D01*
X580313D01*
X579526Y208464D01*
X584249Y212400D02*
X587397D01*
Y211613D01*
X584249Y208464D01*
Y207677D01*
X574803Y183071D02*
Y187794D01*
X577165D01*
X577952Y187007D01*
Y185432D01*
X577165Y184645D01*
X574803D01*
X576377D02*
X577952Y183071D01*
X579526Y187007D02*
X580313Y187794D01*
X581887D01*
X582675Y187007D01*
Y186220D01*
X581887Y185432D01*
X581100D01*
X581887D01*
X582675Y184645D01*
Y183858D01*
X581887Y183071D01*
X580313D01*
X579526Y183858D01*
X587397Y187794D02*
X584249D01*
Y185432D01*
X585823Y186220D01*
X586610D01*
X587397Y185432D01*
Y183858D01*
X586610Y183071D01*
X585036D01*
X584249Y183858D01*
X503937Y322835D02*
Y327557D01*
X506298D01*
X507086Y326770D01*
Y325196D01*
X506298Y324409D01*
X503937D01*
X505511D02*
X507086Y322835D01*
X511808D02*
X508660D01*
X511808Y325983D01*
Y326770D01*
X511021Y327557D01*
X509447D01*
X508660Y326770D01*
X516531Y322835D02*
X513383D01*
X516531Y325983D01*
Y326770D01*
X515744Y327557D01*
X514170D01*
X513383Y326770D01*
X329724Y240158D02*
Y244880D01*
X332086D01*
X332873Y244093D01*
Y242519D01*
X332086Y241732D01*
X329724D01*
X331299D02*
X332873Y240158D01*
X337596D02*
X334447D01*
X337596Y243306D01*
Y244093D01*
X336809Y244880D01*
X335234D01*
X334447Y244093D01*
X339170D02*
X339957Y244880D01*
X341532D01*
X342319Y244093D01*
Y240945D01*
X341532Y240158D01*
X339957D01*
X339170Y240945D01*
Y244093D01*
X315945Y240158D02*
Y244880D01*
X318306D01*
X319093Y244093D01*
Y242519D01*
X318306Y241732D01*
X315945D01*
X317519D02*
X319093Y240158D01*
X320668D02*
X322242D01*
X321455D01*
Y244880D01*
X320668Y244093D01*
X324604Y240945D02*
X325391Y240158D01*
X326965D01*
X327752Y240945D01*
Y244093D01*
X326965Y244880D01*
X325391D01*
X324604Y244093D01*
Y243306D01*
X325391Y242519D01*
X327752D01*
X562992Y282480D02*
Y287203D01*
X565354D01*
X566141Y286416D01*
Y284842D01*
X565354Y284055D01*
X562992D01*
X564566D02*
X566141Y282480D01*
X567715D02*
X569289D01*
X568502D01*
Y287203D01*
X567715Y286416D01*
X571651D02*
X572438Y287203D01*
X574012D01*
X574799Y286416D01*
Y285629D01*
X574012Y284842D01*
X573225D01*
X574012D01*
X574799Y284055D01*
Y283267D01*
X574012Y282480D01*
X572438D01*
X571651Y283267D01*
X246063Y290156D02*
Y285433D01*
X249212D01*
X250786D02*
X252360D01*
X251573D01*
Y290156D01*
X250786Y289369D01*
X257870Y290156D02*
X254722D01*
Y287794D01*
X256296Y288582D01*
X257083D01*
X257870Y287794D01*
Y286220D01*
X257083Y285433D01*
X255509D01*
X254722Y286220D01*
X270669Y437794D02*
Y433071D01*
X273818D01*
X275392D02*
X276967D01*
X276179D01*
Y437794D01*
X275392Y437007D01*
X279328D02*
X280115Y437794D01*
X281689D01*
X282476Y437007D01*
Y436220D01*
X281689Y435432D01*
X280902D01*
X281689D01*
X282476Y434645D01*
Y433858D01*
X281689Y433071D01*
X280115D01*
X279328Y433858D01*
X344488Y197636D02*
Y192913D01*
X347637D01*
X349211Y193701D02*
X349998Y192913D01*
X351572D01*
X352360Y193701D01*
Y196849D01*
X351572Y197636D01*
X349998D01*
X349211Y196849D01*
Y196062D01*
X349998Y195275D01*
X352360D01*
X174409Y179132D02*
Y174409D01*
X177558D01*
X179132Y178345D02*
X179920Y179132D01*
X181494D01*
X182281Y178345D01*
Y177558D01*
X181494Y176771D01*
X182281Y175984D01*
Y175197D01*
X181494Y174409D01*
X179920D01*
X179132Y175197D01*
Y175984D01*
X179920Y176771D01*
X179132Y177558D01*
Y178345D01*
X179920Y176771D02*
X181494D01*
X471457Y197636D02*
Y192913D01*
X474605D01*
X476180Y197636D02*
X479328D01*
Y196849D01*
X476180Y193701D01*
Y192913D01*
X209646Y308857D02*
Y304134D01*
X212007D01*
X212794Y304921D01*
Y308070D01*
X212007Y308857D01*
X209646D01*
X214369Y304134D02*
X215943D01*
X215156D01*
Y308857D01*
X214369Y308070D01*
X221453Y308857D02*
X218304D01*
Y306495D01*
X219879Y307282D01*
X220666D01*
X221453Y306495D01*
Y304921D01*
X220666Y304134D01*
X219091D01*
X218304Y304921D01*
X586614Y328542D02*
Y323819D01*
X588976D01*
X589763Y324606D01*
Y327755D01*
X588976Y328542D01*
X586614D01*
X591337Y323819D02*
X592911D01*
X592124D01*
Y328542D01*
X591337Y327755D01*
X597634Y323819D02*
Y328542D01*
X595273Y326180D01*
X598421D01*
X315945Y420077D02*
Y415354D01*
X318306D01*
X319093Y416142D01*
Y419290D01*
X318306Y420077D01*
X315945D01*
X320668Y415354D02*
X322242D01*
X321455D01*
Y420077D01*
X320668Y419290D01*
X324604D02*
X325391Y420077D01*
X326965D01*
X327752Y419290D01*
Y418503D01*
X326965Y417716D01*
X326178D01*
X326965D01*
X327752Y416929D01*
Y416142D01*
X326965Y415354D01*
X325391D01*
X324604Y416142D01*
X540354Y450589D02*
Y445866D01*
X542716D01*
X543503Y446653D01*
Y449802D01*
X542716Y450589D01*
X540354D01*
X545077Y445866D02*
X546652D01*
X545864D01*
Y450589D01*
X545077Y449802D01*
X549013D02*
X549800Y450589D01*
X551374D01*
X552162Y449802D01*
Y446653D01*
X551374Y445866D01*
X549800D01*
X549013Y446653D01*
Y449802D01*
X284449Y229132D02*
Y224410D01*
X286810D01*
X287597Y225197D01*
Y228345D01*
X286810Y229132D01*
X284449D01*
X289172Y225197D02*
X289959Y224410D01*
X291533D01*
X292320Y225197D01*
Y228345D01*
X291533Y229132D01*
X289959D01*
X289172Y228345D01*
Y227558D01*
X289959Y226771D01*
X292320D01*
X227362Y140550D02*
Y135827D01*
X229724D01*
X230511Y136614D01*
Y139762D01*
X229724Y140550D01*
X227362D01*
X235234D02*
X233659Y139762D01*
X232085Y138188D01*
Y136614D01*
X232872Y135827D01*
X234447D01*
X235234Y136614D01*
Y137401D01*
X234447Y138188D01*
X232085D01*
X538386Y310825D02*
Y306102D01*
X540747D01*
X541534Y306890D01*
Y310038D01*
X540747Y310825D01*
X538386D01*
X543109Y306102D02*
X544683D01*
X543896D01*
Y310825D01*
X543109Y310038D01*
X210826Y244093D02*
X210039Y244880D01*
X208464D01*
X207677Y244093D01*
Y240945D01*
X208464Y240158D01*
X210039D01*
X210826Y240945D01*
X215549Y240158D02*
X212400D01*
X215549Y243306D01*
Y244093D01*
X214761Y244880D01*
X213187D01*
X212400Y244093D01*
X219484Y240158D02*
Y244880D01*
X217123Y242519D01*
X220271D01*
X221846Y244880D02*
X224994D01*
Y244093D01*
X221846Y240945D01*
Y240158D01*
X177167Y246259D02*
X176380Y245472D01*
Y243897D01*
X177167Y243110D01*
X180315D01*
X181102Y243897D01*
Y245472D01*
X180315Y246259D01*
X181102Y250982D02*
Y247833D01*
X177954Y250982D01*
X177167D01*
X176380Y250195D01*
Y248620D01*
X177167Y247833D01*
X181102Y254917D02*
X176380D01*
X178741Y252556D01*
Y255705D01*
X176380Y260427D02*
X177167Y258853D01*
X178741Y257279D01*
X180315D01*
X181102Y258066D01*
Y259640D01*
X180315Y260427D01*
X179528D01*
X178741Y259640D01*
Y257279D01*
X214763Y250983D02*
X213976Y251770D01*
X212401D01*
X211614Y250983D01*
Y247834D01*
X212401Y247047D01*
X213976D01*
X214763Y247834D01*
X219486Y247047D02*
X216337D01*
X219486Y250196D01*
Y250983D01*
X218699Y251770D01*
X217124D01*
X216337Y250983D01*
X223421Y247047D02*
Y251770D01*
X221060Y249409D01*
X224208D01*
X228931Y251770D02*
X225783D01*
Y249409D01*
X227357Y250196D01*
X228144D01*
X228931Y249409D01*
Y247834D01*
X228144Y247047D01*
X226570D01*
X225783Y247834D01*
X162597Y222440D02*
X161810Y223227D01*
X160236D01*
X159449Y222440D01*
Y219291D01*
X160236Y218504D01*
X161810D01*
X162597Y219291D01*
X167320Y218504D02*
X164172D01*
X167320Y221653D01*
Y222440D01*
X166533Y223227D01*
X164959D01*
X164172Y222440D01*
X171256Y218504D02*
Y223227D01*
X168895Y220865D01*
X172043D01*
X176766Y218504D02*
X173617D01*
X176766Y221653D01*
Y222440D01*
X175979Y223227D01*
X174405D01*
X173617Y222440D01*
X225589Y261810D02*
X224802Y262597D01*
X223228D01*
X222441Y261810D01*
Y258661D01*
X223228Y257874D01*
X224802D01*
X225589Y258661D01*
X230312Y257874D02*
X227164D01*
X230312Y261023D01*
Y261810D01*
X229525Y262597D01*
X227951D01*
X227164Y261810D01*
X231887D02*
X232674Y262597D01*
X234248D01*
X235035Y261810D01*
Y261023D01*
X234248Y260236D01*
X233461D01*
X234248D01*
X235035Y259448D01*
Y258661D01*
X234248Y257874D01*
X232674D01*
X231887Y258661D01*
X239758Y262597D02*
X238184Y261810D01*
X236610Y260236D01*
Y258661D01*
X237397Y257874D01*
X238971D01*
X239758Y258661D01*
Y259448D01*
X238971Y260236D01*
X236610D01*
X267718Y349605D02*
X266931Y348818D01*
Y347244D01*
X267718Y346457D01*
X270866D01*
X271654Y347244D01*
Y348818D01*
X270866Y349605D01*
X271654Y354328D02*
Y351180D01*
X268505Y354328D01*
X267718D01*
X266931Y353541D01*
Y351967D01*
X267718Y351180D01*
X271654Y359051D02*
Y355902D01*
X268505Y359051D01*
X267718D01*
X266931Y358264D01*
Y356690D01*
X267718Y355902D01*
X266931Y360625D02*
Y363774D01*
X267718D01*
X270866Y360625D01*
X271654D01*
X185235Y336613D02*
X184448Y337400D01*
X182874D01*
X182087Y336613D01*
Y333464D01*
X182874Y332677D01*
X184448D01*
X185235Y333464D01*
X189958Y332677D02*
X186810D01*
X189958Y335826D01*
Y336613D01*
X189171Y337400D01*
X187597D01*
X186810Y336613D01*
X194681Y332677D02*
X191532D01*
X194681Y335826D01*
Y336613D01*
X193894Y337400D01*
X192320D01*
X191532Y336613D01*
X199404Y337400D02*
X196255D01*
Y335039D01*
X197829Y335826D01*
X198617D01*
X199404Y335039D01*
Y333464D01*
X198617Y332677D01*
X197042D01*
X196255Y333464D01*
X296261Y358464D02*
X295474Y357676D01*
Y356102D01*
X296261Y355315D01*
X299410D01*
X300197Y356102D01*
Y357676D01*
X299410Y358464D01*
X300197Y363186D02*
Y360038D01*
X297048Y363186D01*
X296261D01*
X295474Y362399D01*
Y360825D01*
X296261Y360038D01*
X300197Y367909D02*
Y364761D01*
X297048Y367909D01*
X296261D01*
X295474Y367122D01*
Y365548D01*
X296261Y364761D01*
X300197Y371845D02*
X295474D01*
X297835Y369484D01*
Y372632D01*
X278741Y358068D02*
X277954Y357281D01*
Y355707D01*
X278741Y354920D01*
X281890D01*
X282677Y355707D01*
Y357281D01*
X281890Y358068D01*
X282677Y362791D02*
Y359643D01*
X279529Y362791D01*
X278741D01*
X277954Y362004D01*
Y360430D01*
X278741Y359643D01*
X282677Y367514D02*
Y364366D01*
X279529Y367514D01*
X278741D01*
X277954Y366727D01*
Y365153D01*
X278741Y364366D01*
X282677Y372237D02*
Y369088D01*
X279529Y372237D01*
X278741D01*
X277954Y371450D01*
Y369876D01*
X278741Y369088D01*
X250986Y407676D02*
X250198Y406889D01*
Y405315D01*
X250986Y404528D01*
X254134D01*
X254921Y405315D01*
Y406889D01*
X254134Y407676D01*
X254921Y412399D02*
Y409250D01*
X251773Y412399D01*
X250986D01*
X250198Y411612D01*
Y410038D01*
X250986Y409250D01*
X254921Y413973D02*
Y415548D01*
Y414760D01*
X250198D01*
X250986Y413973D01*
X250198Y417909D02*
Y421058D01*
X250986D01*
X254134Y417909D01*
X254921D01*
X175198Y402755D02*
X174411Y401968D01*
Y400393D01*
X175198Y399606D01*
X178347D01*
X179134Y400393D01*
Y401968D01*
X178347Y402755D01*
X179134Y407478D02*
Y404329D01*
X175985Y407478D01*
X175198D01*
X174411Y406691D01*
Y405116D01*
X175198Y404329D01*
X179134Y409052D02*
Y410626D01*
Y409839D01*
X174411D01*
X175198Y409052D01*
X174411Y416136D02*
Y412988D01*
X176772D01*
X175985Y414562D01*
Y415349D01*
X176772Y416136D01*
X178347D01*
X179134Y415349D01*
Y413775D01*
X178347Y412988D01*
X569883Y463778D02*
X569096Y462991D01*
Y461417D01*
X569883Y460630D01*
X573032D01*
X573819Y461417D01*
Y462991D01*
X573032Y463778D01*
X573819Y465353D02*
Y466927D01*
Y466140D01*
X569096D01*
X569883Y465353D01*
Y469288D02*
X569096Y470076D01*
Y471650D01*
X569883Y472437D01*
X570670D01*
X571457Y471650D01*
X572245Y472437D01*
X573032D01*
X573819Y471650D01*
Y470076D01*
X573032Y469288D01*
X572245D01*
X571457Y470076D01*
X570670Y469288D01*
X569883D01*
X571457Y470076D02*
Y471650D01*
X569096Y474011D02*
Y477160D01*
X569883D01*
X573032Y474011D01*
X573819D01*
X572046Y418306D02*
X571259Y419093D01*
X569685D01*
X568898Y418306D01*
Y415157D01*
X569685Y414370D01*
X571259D01*
X572046Y415157D01*
X573621Y414370D02*
X575195D01*
X574408D01*
Y419093D01*
X573621Y418306D01*
X577556D02*
X578343Y419093D01*
X579918D01*
X580705Y418306D01*
Y417519D01*
X579918Y416732D01*
X580705Y415944D01*
Y415157D01*
X579918Y414370D01*
X578343D01*
X577556Y415157D01*
Y415944D01*
X578343Y416732D01*
X577556Y417519D01*
Y418306D01*
X578343Y416732D02*
X579918D01*
X582279Y414370D02*
X583853D01*
X583066D01*
Y419093D01*
X582279Y418306D01*
X572046Y433070D02*
X571259Y433857D01*
X569685D01*
X568898Y433070D01*
Y429921D01*
X569685Y429134D01*
X571259D01*
X572046Y429921D01*
X573621Y429134D02*
X575195D01*
X574408D01*
Y433857D01*
X573621Y433070D01*
X577556D02*
X578343Y433857D01*
X579918D01*
X580705Y433070D01*
Y432282D01*
X579918Y431495D01*
X580705Y430708D01*
Y429921D01*
X579918Y429134D01*
X578343D01*
X577556Y429921D01*
Y430708D01*
X578343Y431495D01*
X577556Y432282D01*
Y433070D01*
X578343Y431495D02*
X579918D01*
X582279Y433070D02*
X583066Y433857D01*
X584641D01*
X585428Y433070D01*
Y429921D01*
X584641Y429134D01*
X583066D01*
X582279Y429921D01*
Y433070D01*
X564172Y392715D02*
X563385Y393502D01*
X561811D01*
X561024Y392715D01*
Y389567D01*
X561811Y388779D01*
X563385D01*
X564172Y389567D01*
X565746Y388779D02*
X567321D01*
X566534D01*
Y393502D01*
X565746Y392715D01*
X569682Y393502D02*
X572831D01*
Y392715D01*
X569682Y389567D01*
Y388779D01*
X574405Y389567D02*
X575192Y388779D01*
X576767D01*
X577554Y389567D01*
Y392715D01*
X576767Y393502D01*
X575192D01*
X574405Y392715D01*
Y391928D01*
X575192Y391141D01*
X577554D01*
X264765Y180314D02*
X263978Y179527D01*
Y177953D01*
X264765Y177165D01*
X267914D01*
X268701Y177953D01*
Y179527D01*
X267914Y180314D01*
X268701Y181888D02*
Y183463D01*
Y182675D01*
X263978D01*
X264765Y181888D01*
X263978Y185824D02*
Y188973D01*
X264765D01*
X267914Y185824D01*
X268701D01*
X263978Y193695D02*
X264765Y192121D01*
X266339Y190547D01*
X267914D01*
X268701Y191334D01*
Y192908D01*
X267914Y193695D01*
X267126D01*
X266339Y192908D01*
Y190547D01*
X367127Y202952D02*
X366340Y202165D01*
Y200590D01*
X367127Y199803D01*
X370276D01*
X371063Y200590D01*
Y202165D01*
X370276Y202952D01*
X371063Y204526D02*
Y206100D01*
Y205313D01*
X366340D01*
X367127Y204526D01*
X366340Y208462D02*
Y211610D01*
X367127D01*
X370276Y208462D01*
X371063D01*
X366340Y216333D02*
Y213185D01*
X368702D01*
X367914Y214759D01*
Y215546D01*
X368702Y216333D01*
X370276D01*
X371063Y215546D01*
Y213972D01*
X370276Y213185D01*
X382875Y202952D02*
X382088Y202165D01*
Y200590D01*
X382875Y199803D01*
X386024D01*
X386811Y200590D01*
Y202165D01*
X386024Y202952D01*
X386811Y204526D02*
Y206100D01*
Y205313D01*
X382088D01*
X382875Y204526D01*
X382088Y208462D02*
Y211610D01*
X382875D01*
X386024Y208462D01*
X386811D01*
Y215546D02*
X382088D01*
X384450Y213185D01*
Y216333D01*
X261023Y164369D02*
X260236Y165156D01*
X258661D01*
X257874Y164369D01*
Y161220D01*
X258661Y160433D01*
X260236D01*
X261023Y161220D01*
X262597Y160433D02*
X264171D01*
X263384D01*
Y165156D01*
X262597Y164369D01*
X266533Y165156D02*
X269681D01*
Y164369D01*
X266533Y161220D01*
Y160433D01*
X271255Y164369D02*
X272043Y165156D01*
X273617D01*
X274404Y164369D01*
Y163582D01*
X273617Y162794D01*
X272830D01*
X273617D01*
X274404Y162007D01*
Y161220D01*
X273617Y160433D01*
X272043D01*
X271255Y161220D01*
X570078Y239172D02*
X569291Y239959D01*
X567716D01*
X566929Y239172D01*
Y236023D01*
X567716Y235236D01*
X569291D01*
X570078Y236023D01*
X571652Y235236D02*
X573226D01*
X572439D01*
Y239959D01*
X571652Y239172D01*
X575588Y239959D02*
X578736D01*
Y239172D01*
X575588Y236023D01*
Y235236D01*
X583459D02*
X580311D01*
X583459Y238385D01*
Y239172D01*
X582672Y239959D01*
X581098D01*
X580311Y239172D01*
X287597Y249014D02*
X286810Y249802D01*
X285236D01*
X284449Y249014D01*
Y245866D01*
X285236Y245079D01*
X286810D01*
X287597Y245866D01*
X289172Y245079D02*
X290746D01*
X289959D01*
Y249802D01*
X289172Y249014D01*
X293107Y249802D02*
X296256D01*
Y249014D01*
X293107Y245866D01*
Y245079D01*
X297830D02*
X299405D01*
X298618D01*
Y249802D01*
X297830Y249014D01*
X363385Y136810D02*
X362598Y137597D01*
X361023D01*
X360236Y136810D01*
Y133661D01*
X361023Y132874D01*
X362598D01*
X363385Y133661D01*
X364959Y132874D02*
X366533D01*
X365746D01*
Y137597D01*
X364959Y136810D01*
X372043Y137597D02*
X370469Y136810D01*
X368895Y135236D01*
Y133661D01*
X369682Y132874D01*
X371256D01*
X372043Y133661D01*
Y134448D01*
X371256Y135236D01*
X368895D01*
X373618Y133661D02*
X374405Y132874D01*
X375979D01*
X376766Y133661D01*
Y136810D01*
X375979Y137597D01*
X374405D01*
X373618Y136810D01*
Y136023D01*
X374405Y135236D01*
X376766D01*
X280513Y147834D02*
X279726Y147046D01*
Y145472D01*
X280513Y144685D01*
X283662D01*
X284449Y145472D01*
Y147046D01*
X283662Y147834D01*
X284449Y149408D02*
Y150982D01*
Y150195D01*
X279726D01*
X280513Y149408D01*
X279726Y156492D02*
X280513Y154918D01*
X282087Y153344D01*
X283662D01*
X284449Y154131D01*
Y155705D01*
X283662Y156492D01*
X282874D01*
X282087Y155705D01*
Y153344D01*
X280513Y158066D02*
X279726Y158854D01*
Y160428D01*
X280513Y161215D01*
X281300D01*
X282087Y160428D01*
X282874Y161215D01*
X283662D01*
X284449Y160428D01*
Y158854D01*
X283662Y158066D01*
X282874D01*
X282087Y158854D01*
X281300Y158066D01*
X280513D01*
X282087Y158854D02*
Y160428D01*
X389765Y142912D02*
X388978Y142125D01*
Y140551D01*
X389765Y139764D01*
X392914D01*
X393701Y140551D01*
Y142125D01*
X392914Y142912D01*
X393701Y144487D02*
Y146061D01*
Y145274D01*
X388978D01*
X389765Y144487D01*
X388978Y151571D02*
X389765Y149997D01*
X391339Y148422D01*
X392914D01*
X393701Y149209D01*
Y150784D01*
X392914Y151571D01*
X392126D01*
X391339Y150784D01*
Y148422D01*
X388978Y153145D02*
Y156294D01*
X389765D01*
X392914Y153145D01*
X393701D01*
X159054Y152361D02*
X158267Y153148D01*
X156693D01*
X155905Y152361D01*
Y149212D01*
X156693Y148425D01*
X158267D01*
X159054Y149212D01*
X160628Y148425D02*
X162203D01*
X161416D01*
Y153148D01*
X160628Y152361D01*
X167713Y153148D02*
X166138Y152361D01*
X164564Y150787D01*
Y149212D01*
X165351Y148425D01*
X166926D01*
X167713Y149212D01*
Y149999D01*
X166926Y150787D01*
X164564D01*
X169287Y152361D02*
X170074Y153148D01*
X171649D01*
X172436Y152361D01*
Y151574D01*
X171649Y150787D01*
X170861D01*
X171649D01*
X172436Y149999D01*
Y149212D01*
X171649Y148425D01*
X170074D01*
X169287Y149212D01*
X507875Y202952D02*
X507088Y202165D01*
Y200590D01*
X507875Y199803D01*
X511024D01*
X511811Y200590D01*
Y202165D01*
X511024Y202952D01*
X511811Y204526D02*
Y206100D01*
Y205313D01*
X507088D01*
X507875Y204526D01*
X507088Y211610D02*
Y208462D01*
X509450D01*
X508662Y210036D01*
Y210823D01*
X509450Y211610D01*
X511024D01*
X511811Y210823D01*
Y209249D01*
X511024Y208462D01*
X507088Y216333D02*
X507875Y214759D01*
X509450Y213185D01*
X511024D01*
X511811Y213972D01*
Y215546D01*
X511024Y216333D01*
X510237D01*
X509450Y215546D01*
Y213185D01*
X492127Y202952D02*
X491340Y202165D01*
Y200590D01*
X492127Y199803D01*
X495276D01*
X496063Y200590D01*
Y202165D01*
X495276Y202952D01*
X496063Y204526D02*
Y206100D01*
Y205313D01*
X491340D01*
X492127Y204526D01*
X491340Y211610D02*
Y208462D01*
X493702D01*
X492914Y210036D01*
Y210823D01*
X493702Y211610D01*
X495276D01*
X496063Y210823D01*
Y209249D01*
X495276Y208462D01*
X491340Y216333D02*
Y213185D01*
X493702D01*
X492914Y214759D01*
Y215546D01*
X493702Y216333D01*
X495276D01*
X496063Y215546D01*
Y213972D01*
X495276Y213185D01*
X399608Y202952D02*
X398820Y202165D01*
Y200590D01*
X399608Y199803D01*
X402756D01*
X403543Y200590D01*
Y202165D01*
X402756Y202952D01*
X403543Y204526D02*
Y206100D01*
Y205313D01*
X398820D01*
X399608Y204526D01*
X398820Y211610D02*
Y208462D01*
X401182D01*
X400395Y210036D01*
Y210823D01*
X401182Y211610D01*
X402756D01*
X403543Y210823D01*
Y209249D01*
X402756Y208462D01*
X403543Y215546D02*
X398820D01*
X401182Y213185D01*
Y216333D01*
X416340Y202952D02*
X415553Y202165D01*
Y200590D01*
X416340Y199803D01*
X419488D01*
X420276Y200590D01*
Y202165D01*
X419488Y202952D01*
X420276Y204526D02*
Y206100D01*
Y205313D01*
X415553D01*
X416340Y204526D01*
X415553Y211610D02*
Y208462D01*
X417914D01*
X417127Y210036D01*
Y210823D01*
X417914Y211610D01*
X419488D01*
X420276Y210823D01*
Y209249D01*
X419488Y208462D01*
X416340Y213185D02*
X415553Y213972D01*
Y215546D01*
X416340Y216333D01*
X417127D01*
X417914Y215546D01*
Y214759D01*
Y215546D01*
X418701Y216333D01*
X419488D01*
X420276Y215546D01*
Y213972D01*
X419488Y213185D01*
X614369Y233266D02*
X613582Y234054D01*
X612008D01*
X611221Y233266D01*
Y230118D01*
X612008Y229331D01*
X613582D01*
X614369Y230118D01*
X615943Y229331D02*
X617518D01*
X616730D01*
Y234054D01*
X615943Y233266D01*
X623028Y234054D02*
X619879D01*
Y231692D01*
X621453Y232479D01*
X622240D01*
X623028Y231692D01*
Y230118D01*
X622240Y229331D01*
X620666D01*
X619879Y230118D01*
X627751Y229331D02*
X624602D01*
X627751Y232479D01*
Y233266D01*
X626963Y234054D01*
X625389D01*
X624602Y233266D01*
X413582Y136810D02*
X412794Y137597D01*
X411220D01*
X410433Y136810D01*
Y133661D01*
X411220Y132874D01*
X412794D01*
X413582Y133661D01*
X415156Y132874D02*
X416730D01*
X415943D01*
Y137597D01*
X415156Y136810D01*
X422240Y137597D02*
X419092D01*
Y135236D01*
X420666Y136023D01*
X421453D01*
X422240Y135236D01*
Y133661D01*
X421453Y132874D01*
X419879D01*
X419092Y133661D01*
X423815Y136810D02*
X424602Y137597D01*
X426176D01*
X426963Y136810D01*
Y133661D01*
X426176Y132874D01*
X424602D01*
X423815Y133661D01*
Y136810D01*
X492127Y123227D02*
X491340Y122440D01*
Y120866D01*
X492127Y120079D01*
X495276D01*
X496063Y120866D01*
Y122440D01*
X495276Y123227D01*
X496063Y124802D02*
Y126376D01*
Y125589D01*
X491340D01*
X492127Y124802D01*
X496063Y131099D02*
X491340D01*
X493702Y128737D01*
Y131886D01*
X495276Y133460D02*
X496063Y134247D01*
Y135822D01*
X495276Y136609D01*
X492127D01*
X491340Y135822D01*
Y134247D01*
X492127Y133460D01*
X492914D01*
X493702Y134247D01*
Y136609D01*
X265749Y243306D02*
X264962Y242519D01*
Y240945D01*
X265749Y240158D01*
X268898D01*
X269685Y240945D01*
Y242519D01*
X268898Y243306D01*
X269685Y244880D02*
Y246455D01*
Y245668D01*
X264962D01*
X265749Y244880D01*
X269685Y251178D02*
X264962D01*
X267324Y248816D01*
Y251965D01*
X265749Y253539D02*
X264962Y254326D01*
Y255900D01*
X265749Y256688D01*
X266536D01*
X267324Y255900D01*
X268111Y256688D01*
X268898D01*
X269685Y255900D01*
Y254326D01*
X268898Y253539D01*
X268111D01*
X267324Y254326D01*
X266536Y253539D01*
X265749D01*
X267324Y254326D02*
Y255900D01*
X253938Y243306D02*
X253151Y242519D01*
Y240945D01*
X253938Y240158D01*
X257087D01*
X257874Y240945D01*
Y242519D01*
X257087Y243306D01*
X257874Y244880D02*
Y246455D01*
Y245668D01*
X253151D01*
X253938Y244880D01*
X257874Y251178D02*
X253151D01*
X255513Y248816D01*
Y251965D01*
X253151Y253539D02*
Y256688D01*
X253938D01*
X257087Y253539D01*
X257874D01*
X514765Y141928D02*
X513978Y141141D01*
Y139567D01*
X514765Y138779D01*
X517914D01*
X518701Y139567D01*
Y141141D01*
X517914Y141928D01*
X518701Y143502D02*
Y145077D01*
Y144290D01*
X513978D01*
X514765Y143502D01*
X518701Y149800D02*
X513978D01*
X516339Y147438D01*
Y150587D01*
X518701Y154523D02*
X513978D01*
X516339Y152161D01*
Y155310D01*
X605511Y292322D02*
X604724Y293109D01*
X603149D01*
X602362Y292322D01*
Y289173D01*
X603149Y288386D01*
X604724D01*
X605511Y289173D01*
X607085Y288386D02*
X608659D01*
X607872D01*
Y293109D01*
X607085Y292322D01*
X613382Y288386D02*
Y293109D01*
X611021Y290747D01*
X614169D01*
X615744Y292322D02*
X616531Y293109D01*
X618105D01*
X618892Y292322D01*
Y291534D01*
X618105Y290747D01*
X617318D01*
X618105D01*
X618892Y289960D01*
Y289173D01*
X618105Y288386D01*
X616531D01*
X615744Y289173D01*
X349411Y350589D02*
X348624Y349802D01*
Y348228D01*
X349411Y347441D01*
X352559D01*
X353346Y348228D01*
Y349802D01*
X352559Y350589D01*
X353346Y352164D02*
Y353738D01*
Y352951D01*
X348624D01*
X349411Y352164D01*
X353346Y359248D02*
Y356100D01*
X350198Y359248D01*
X349411D01*
X348624Y358461D01*
Y356887D01*
X349411Y356100D01*
Y360822D02*
X348624Y361610D01*
Y363184D01*
X349411Y363971D01*
X350198D01*
X350985Y363184D01*
Y362397D01*
Y363184D01*
X351772Y363971D01*
X352559D01*
X353346Y363184D01*
Y361610D01*
X352559Y360822D01*
X361222Y350589D02*
X360435Y349802D01*
Y348228D01*
X361222Y347441D01*
X364370D01*
X365158Y348228D01*
Y349802D01*
X364370Y350589D01*
X365158Y352164D02*
Y353738D01*
Y352951D01*
X360435D01*
X361222Y352164D01*
X365158Y359248D02*
Y356100D01*
X362009Y359248D01*
X361222D01*
X360435Y358461D01*
Y356887D01*
X361222Y356100D01*
X365158Y363971D02*
Y360822D01*
X362009Y363971D01*
X361222D01*
X360435Y363184D01*
Y361610D01*
X361222Y360822D01*
X567125Y260825D02*
X566338Y261613D01*
X564763D01*
X563976Y260825D01*
Y257677D01*
X564763Y256890D01*
X566338D01*
X567125Y257677D01*
X568699Y256890D02*
X570273D01*
X569486D01*
Y261613D01*
X568699Y260825D01*
X572635Y256890D02*
X574209D01*
X573422D01*
Y261613D01*
X572635Y260825D01*
X576571D02*
X577358Y261613D01*
X578932D01*
X579719Y260825D01*
Y260038D01*
X578932Y259251D01*
X579719Y258464D01*
Y257677D01*
X578932Y256890D01*
X577358D01*
X576571Y257677D01*
Y258464D01*
X577358Y259251D01*
X576571Y260038D01*
Y260825D01*
X577358Y259251D02*
X578932D01*
X319883Y214763D02*
X319096Y213976D01*
Y212401D01*
X319883Y211614D01*
X323032D01*
X323819Y212401D01*
Y213976D01*
X323032Y214763D01*
X319096Y219486D02*
X319883Y217911D01*
X321458Y216337D01*
X323032D01*
X323819Y217124D01*
Y218699D01*
X323032Y219486D01*
X322245D01*
X321458Y218699D01*
Y216337D01*
X323819Y224208D02*
Y221060D01*
X320670Y224208D01*
X319883D01*
X319096Y223421D01*
Y221847D01*
X319883Y221060D01*
X344490Y215747D02*
X343702Y214960D01*
Y213386D01*
X344490Y212598D01*
X347638D01*
X348425Y213386D01*
Y214960D01*
X347638Y215747D01*
X343702Y220470D02*
X344490Y218896D01*
X346064Y217321D01*
X347638D01*
X348425Y218109D01*
Y219683D01*
X347638Y220470D01*
X346851D01*
X346064Y219683D01*
Y217321D01*
X348425Y222044D02*
Y223619D01*
Y222831D01*
X343702D01*
X344490Y222044D01*
X347637Y240156D02*
X346850Y240943D01*
X345275D01*
X344488Y240156D01*
Y237008D01*
X345275Y236221D01*
X346850D01*
X347637Y237008D01*
X352360Y240943D02*
X350785Y240156D01*
X349211Y238582D01*
Y237008D01*
X349998Y236221D01*
X351572D01*
X352360Y237008D01*
Y237795D01*
X351572Y238582D01*
X349211D01*
X353934Y240156D02*
X354721Y240943D01*
X356295D01*
X357083Y240156D01*
Y237008D01*
X356295Y236221D01*
X354721D01*
X353934Y237008D01*
Y240156D01*
X309251Y239172D02*
X308464Y239959D01*
X306890D01*
X306102Y239172D01*
Y236023D01*
X306890Y235236D01*
X308464D01*
X309251Y236023D01*
X313187Y235236D02*
Y239959D01*
X310825Y237598D01*
X313974D01*
X318697Y235236D02*
X315548D01*
X318697Y238385D01*
Y239172D01*
X317910Y239959D01*
X316335D01*
X315548Y239172D01*
X431102Y357085D02*
Y352362D01*
X433464D01*
X434251Y353149D01*
Y356298D01*
X433464Y357085D01*
X431102D01*
X438187Y352362D02*
Y357085D01*
X435825Y354724D01*
X438974D01*
X231299Y221258D02*
Y216535D01*
X234448D01*
X239171Y221258D02*
X237596Y220471D01*
X236022Y218897D01*
Y217323D01*
X236809Y216535D01*
X238384D01*
X239171Y217323D01*
Y218110D01*
X238384Y218897D01*
X236022D01*
X502953Y411417D02*
X498230D01*
Y413779D01*
X499017Y414566D01*
X500591D01*
X501378Y413779D01*
Y411417D01*
Y412992D02*
X502953Y414566D01*
X498230Y416140D02*
Y419289D01*
X499017D01*
X502166Y416140D01*
X502953D01*
X499017Y420863D02*
X498230Y421650D01*
Y423224D01*
X499017Y424012D01*
X502166D01*
X502953Y423224D01*
Y421650D01*
X502166Y420863D01*
X499017D01*
X324803Y309841D02*
Y305118D01*
X327165D01*
X327952Y305905D01*
Y309054D01*
X327165Y309841D01*
X324803D01*
X332675Y305118D02*
X329526D01*
X332675Y308267D01*
Y309054D01*
X331888Y309841D01*
X330313D01*
X329526Y309054D01*
X245079Y293307D02*
Y298030D01*
X247440D01*
X248227Y297243D01*
Y295669D01*
X247440Y294881D01*
X245079D01*
X246653D02*
X248227Y293307D01*
X252950D02*
X249802D01*
X252950Y296456D01*
Y297243D01*
X252163Y298030D01*
X250589D01*
X249802Y297243D01*
X254524Y293307D02*
X256099D01*
X255312D01*
Y298030D01*
X254524Y297243D01*
X623628Y286709D02*
Y289872D01*
X625209Y288291D02*
X622046D01*
X623628Y257182D02*
Y260345D01*
X625209Y258763D02*
X622046D01*
X314961Y460630D02*
Y465353D01*
X317322Y467714D01*
X319684Y465353D01*
Y460630D01*
Y464172D01*
X314961D01*
X326768Y466534D02*
X325587Y467714D01*
X323226D01*
X322045Y466534D01*
Y465353D01*
X323226Y464172D01*
X325587D01*
X326768Y462991D01*
Y461811D01*
X325587Y460630D01*
X323226D01*
X322045Y461811D01*
X329129Y460630D02*
X331491D01*
X330310D01*
Y467714D01*
X329129Y466534D01*
X338575Y460630D02*
Y467714D01*
X335033Y464172D01*
X339756D01*
X342117Y460630D02*
X344479D01*
X343298D01*
Y467714D01*
X342117Y466534D01*
X352744Y460630D02*
X348021D01*
X352744Y465353D01*
Y466534D01*
X351563Y467714D01*
X349201D01*
X348021Y466534D01*
X355105D02*
X356286Y467714D01*
X358647D01*
X359828Y466534D01*
Y461811D01*
X358647Y460630D01*
X356286D01*
X355105Y461811D01*
Y466534D01*
X362189Y459449D02*
X366912D01*
X369274Y465353D02*
X373997Y460630D01*
X371635Y462991D01*
X373997Y465353D01*
X369274Y460630D01*
X376358Y466534D02*
X377539Y467714D01*
X379900D01*
X381081Y466534D01*
Y465353D01*
X379900Y464172D01*
X378719D01*
X379900D01*
X381081Y462991D01*
Y461811D01*
X379900Y460630D01*
X377539D01*
X376358Y461811D01*
X383442Y460630D02*
X385804D01*
X384623D01*
Y467714D01*
X383442Y466534D01*
D73*
X590354Y309646D02*
G03*
X590354Y309646I-787J0D01*
G01*
D86*
X229724Y170079D02*
G03*
X229724Y170079I-1181J0D01*
G01*
D97*
X638937Y449882D02*
X671417D01*
X638937Y400669D02*
X671417D01*
X611378Y449882D02*
X620236D01*
X611378Y400669D02*
X620236D01*
X671417D02*
Y449882D01*
X597598Y400669D02*
Y449882D01*
X611378D01*
X597598Y400669D02*
X611378D01*
X671102Y350236D02*
Y369921D01*
X618937Y346299D02*
X628779D01*
X610079Y356142D02*
Y364016D01*
X618937Y373858D02*
X628779D01*
X640590Y369921D02*
X671102D01*
X640590Y350236D02*
X671102D01*
X637638Y355157D02*
Y365000D01*
X141890Y414213D02*
Y424055D01*
X108425Y428976D02*
X138937D01*
X108425Y409291D02*
X138937D01*
X150748Y405354D02*
X160591D01*
X169449Y415197D02*
Y423071D01*
X150748Y432913D02*
X160591D01*
X108425Y409291D02*
Y428976D01*
Y326614D02*
Y346299D01*
X150748Y350236D02*
X160591D01*
X169449Y332520D02*
Y340394D01*
X150748Y322677D02*
X160591D01*
X108425Y326614D02*
X138937D01*
X108425Y346299D02*
X138937D01*
X141890Y331536D02*
Y341378D01*
Y193740D02*
Y203583D01*
X108425Y208504D02*
X138937D01*
X108425Y188819D02*
X138937D01*
X150748Y184882D02*
X160591D01*
X169449Y194724D02*
Y202598D01*
X150748Y212441D02*
X160591D01*
X108425Y188819D02*
Y208504D01*
X254252Y209021D02*
X256299Y211069D01*
X249977Y204747D02*
X254252Y209021D01*
X249890Y218394D02*
X256299Y211985D01*
X236221Y212148D02*
X242351Y218279D01*
X236221Y210906D02*
X242264Y204862D01*
X236221Y210906D02*
Y212148D01*
X256299Y211069D02*
Y211985D01*
X199213Y160872D02*
Y161788D01*
X179134Y160709D02*
Y161951D01*
Y160709D02*
X185177Y154666D01*
X179134Y161951D02*
X185265Y168082D01*
X192803Y168197D02*
X199213Y161788D01*
X192891Y154550D02*
X197165Y158825D01*
X199213Y160872D01*
X480315Y139764D02*
Y190945D01*
X429134Y139764D02*
Y190945D01*
X303150Y139764D02*
Y190945D01*
X354331Y139764D02*
Y190945D01*
X487205Y144685D02*
Y160433D01*
X500984Y144685D02*
Y160433D01*
X489173Y151575D02*
X499016D01*
X412402D02*
X422244D01*
X424213Y144685D02*
Y160433D01*
X410433Y144685D02*
Y160433D01*
X424213Y178150D02*
Y193898D01*
X410433Y178150D02*
Y193898D01*
X412402Y187008D02*
X422244D01*
X396654D02*
X406496D01*
X394685Y178150D02*
Y193898D01*
X408465Y178150D02*
Y193898D01*
X500984Y178150D02*
Y193898D01*
X487205Y178150D02*
Y193898D01*
X489173Y187008D02*
X499016D01*
X504921D02*
X514764D01*
X502953Y178150D02*
Y193898D01*
X516732Y178150D02*
Y193898D01*
X285433Y144685D02*
Y160433D01*
X299213Y144685D02*
Y160433D01*
X287402Y151575D02*
X297244D01*
X363189D02*
X373031D01*
X375000Y144685D02*
Y160433D01*
X361221Y144685D02*
Y160433D01*
X299213Y178150D02*
Y193898D01*
X285433Y178150D02*
Y193898D01*
X287402Y187008D02*
X297244D01*
X379921Y186024D02*
X389764D01*
X377953Y177165D02*
Y192913D01*
X391732Y177165D02*
Y192913D01*
X375000Y177165D02*
Y192913D01*
X361221Y177165D02*
Y192913D01*
X363189Y186024D02*
X373031D01*
X270669Y187008D02*
X280512D01*
X268701Y178150D02*
Y193898D01*
X282480Y178150D02*
Y193898D01*
X612047Y298898D02*
X632047D01*
X612047D02*
Y338898D01*
X632047D01*
Y298898D02*
Y338898D01*
X221890Y340945D02*
X221890Y370866D01*
X194724D02*
X221890D01*
X194724Y340945D02*
Y370866D01*
Y340945D02*
X221890D01*
X188189Y398032D02*
X218110Y398031D01*
Y425197D01*
X188189D02*
X218110D01*
X188189Y398032D02*
Y425197D01*
X491142Y448819D02*
Y468504D01*
X461614Y448819D02*
Y468504D01*
X318898Y345472D02*
X338583D01*
X318898Y315945D02*
X338583D01*
X599551Y374016D02*
X602362D01*
X578740D02*
X581551D01*
X599551Y344488D02*
X602362D01*
X578740D02*
X581551D01*
X578740Y352362D02*
X602362D01*
Y344488D02*
Y374016D01*
X578740Y344488D02*
Y374016D01*
X534744Y142756D02*
Y174756D01*
Y190756D02*
Y222756D01*
Y174756D02*
X537744D01*
Y190756D01*
X534744D02*
X537744D01*
X569744Y142756D02*
Y222756D01*
X534744Y142756D02*
X569744D01*
X534744Y222756D02*
X569744Y222756D01*
X557244Y142756D02*
Y145256D01*
X547244Y145256D02*
X557244Y145256D01*
X547244Y142756D02*
Y145256D01*
X557244Y222756D02*
X557244Y220256D01*
X547244Y220256D02*
X557244Y220256D01*
X547244Y220256D02*
Y222756D01*
X597736Y142756D02*
Y174756D01*
Y190756D02*
Y222756D01*
Y174756D02*
X600736D01*
Y190756D01*
X597736D02*
X600736D01*
X632736Y142756D02*
Y222756D01*
X597736Y142756D02*
X632736D01*
X597736Y222756D02*
X632736Y222756D01*
X620236Y142756D02*
Y145256D01*
X610236Y145256D02*
X620236Y145256D01*
X610236Y142756D02*
Y145256D01*
X620236Y222756D02*
X620236Y220256D01*
X610236Y220256D02*
X620236Y220256D01*
X610236Y220256D02*
Y222756D01*
X593307Y396849D02*
Y393897D01*
X594291Y392913D01*
X597243D01*
Y396849D01*
X599211Y392913D02*
X602163D01*
X603146Y393897D01*
X602163Y394881D01*
X600195D01*
X599211Y395865D01*
X600195Y396849D01*
X603146D01*
X605114Y398817D02*
Y392913D01*
X608066D01*
X609050Y393897D01*
Y394881D01*
Y395865D01*
X608066Y396849D01*
X605114D01*
X611018Y391930D02*
X614954D01*
X616922Y397833D02*
X617905Y398817D01*
X619873D01*
X620857Y397833D01*
Y396849D01*
X619873Y395865D01*
X618889D01*
X619873D01*
X620857Y394881D01*
Y393897D01*
X619873Y392913D01*
X617905D01*
X616922Y393897D01*
D98*
X152559Y260728D02*
X168307Y260728D01*
X152559Y244586D02*
X168307D01*
X152559D02*
Y260728D01*
X168307Y244586D02*
X168307Y260728D01*
M02*
